G75*
%MOIN*%
%OFA0B0*%
%FSLAX25Y25*%
%IPPOS*%
%LPD*%
%AMOC8*
5,1,8,0,0,1.08239X$1,22.5*
%
%ADD10C,0.01600*%
%ADD11C,0.00000*%
%ADD12C,0.00800*%
%ADD13C,0.00500*%
%ADD14C,0.00600*%
%ADD15C,0.02200*%
D10*
X0058905Y0179884D02*
X0048884Y0190305D01*
X0048884Y0388295D01*
X0190305Y0529716D01*
X0388295Y0529716D01*
X0529716Y0388295D01*
X0529716Y0190305D01*
X0518095Y0179184D01*
X0518195Y0179316D02*
X0059005Y0179916D01*
D11*
X0197324Y0249599D02*
X0197326Y0249746D01*
X0197332Y0249892D01*
X0197342Y0250038D01*
X0197356Y0250184D01*
X0197374Y0250330D01*
X0197395Y0250475D01*
X0197421Y0250619D01*
X0197451Y0250763D01*
X0197484Y0250905D01*
X0197521Y0251047D01*
X0197562Y0251188D01*
X0197607Y0251327D01*
X0197656Y0251466D01*
X0197708Y0251603D01*
X0197765Y0251738D01*
X0197824Y0251872D01*
X0197888Y0252004D01*
X0197955Y0252134D01*
X0198025Y0252263D01*
X0198099Y0252390D01*
X0198176Y0252514D01*
X0198257Y0252637D01*
X0198341Y0252757D01*
X0198428Y0252875D01*
X0198518Y0252990D01*
X0198611Y0253103D01*
X0198708Y0253214D01*
X0198807Y0253322D01*
X0198909Y0253427D01*
X0199014Y0253529D01*
X0199122Y0253628D01*
X0199233Y0253725D01*
X0199346Y0253818D01*
X0199461Y0253908D01*
X0199579Y0253995D01*
X0199699Y0254079D01*
X0199822Y0254160D01*
X0199946Y0254237D01*
X0200073Y0254311D01*
X0200202Y0254381D01*
X0200332Y0254448D01*
X0200464Y0254512D01*
X0200598Y0254571D01*
X0200733Y0254628D01*
X0200870Y0254680D01*
X0201009Y0254729D01*
X0201148Y0254774D01*
X0201289Y0254815D01*
X0201431Y0254852D01*
X0201573Y0254885D01*
X0201717Y0254915D01*
X0201861Y0254941D01*
X0202006Y0254962D01*
X0202152Y0254980D01*
X0202298Y0254994D01*
X0202444Y0255004D01*
X0202590Y0255010D01*
X0202737Y0255012D01*
X0202884Y0255010D01*
X0203030Y0255004D01*
X0203176Y0254994D01*
X0203322Y0254980D01*
X0203468Y0254962D01*
X0203613Y0254941D01*
X0203757Y0254915D01*
X0203901Y0254885D01*
X0204043Y0254852D01*
X0204185Y0254815D01*
X0204326Y0254774D01*
X0204465Y0254729D01*
X0204604Y0254680D01*
X0204741Y0254628D01*
X0204876Y0254571D01*
X0205010Y0254512D01*
X0205142Y0254448D01*
X0205272Y0254381D01*
X0205401Y0254311D01*
X0205528Y0254237D01*
X0205652Y0254160D01*
X0205775Y0254079D01*
X0205895Y0253995D01*
X0206013Y0253908D01*
X0206128Y0253818D01*
X0206241Y0253725D01*
X0206352Y0253628D01*
X0206460Y0253529D01*
X0206565Y0253427D01*
X0206667Y0253322D01*
X0206766Y0253214D01*
X0206863Y0253103D01*
X0206956Y0252990D01*
X0207046Y0252875D01*
X0207133Y0252757D01*
X0207217Y0252637D01*
X0207298Y0252514D01*
X0207375Y0252390D01*
X0207449Y0252263D01*
X0207519Y0252134D01*
X0207586Y0252004D01*
X0207650Y0251872D01*
X0207709Y0251738D01*
X0207766Y0251603D01*
X0207818Y0251466D01*
X0207867Y0251327D01*
X0207912Y0251188D01*
X0207953Y0251047D01*
X0207990Y0250905D01*
X0208023Y0250763D01*
X0208053Y0250619D01*
X0208079Y0250475D01*
X0208100Y0250330D01*
X0208118Y0250184D01*
X0208132Y0250038D01*
X0208142Y0249892D01*
X0208148Y0249746D01*
X0208150Y0249599D01*
X0208148Y0249452D01*
X0208142Y0249306D01*
X0208132Y0249160D01*
X0208118Y0249014D01*
X0208100Y0248868D01*
X0208079Y0248723D01*
X0208053Y0248579D01*
X0208023Y0248435D01*
X0207990Y0248293D01*
X0207953Y0248151D01*
X0207912Y0248010D01*
X0207867Y0247871D01*
X0207818Y0247732D01*
X0207766Y0247595D01*
X0207709Y0247460D01*
X0207650Y0247326D01*
X0207586Y0247194D01*
X0207519Y0247064D01*
X0207449Y0246935D01*
X0207375Y0246808D01*
X0207298Y0246684D01*
X0207217Y0246561D01*
X0207133Y0246441D01*
X0207046Y0246323D01*
X0206956Y0246208D01*
X0206863Y0246095D01*
X0206766Y0245984D01*
X0206667Y0245876D01*
X0206565Y0245771D01*
X0206460Y0245669D01*
X0206352Y0245570D01*
X0206241Y0245473D01*
X0206128Y0245380D01*
X0206013Y0245290D01*
X0205895Y0245203D01*
X0205775Y0245119D01*
X0205652Y0245038D01*
X0205528Y0244961D01*
X0205401Y0244887D01*
X0205272Y0244817D01*
X0205142Y0244750D01*
X0205010Y0244686D01*
X0204876Y0244627D01*
X0204741Y0244570D01*
X0204604Y0244518D01*
X0204465Y0244469D01*
X0204326Y0244424D01*
X0204185Y0244383D01*
X0204043Y0244346D01*
X0203901Y0244313D01*
X0203757Y0244283D01*
X0203613Y0244257D01*
X0203468Y0244236D01*
X0203322Y0244218D01*
X0203176Y0244204D01*
X0203030Y0244194D01*
X0202884Y0244188D01*
X0202737Y0244186D01*
X0202590Y0244188D01*
X0202444Y0244194D01*
X0202298Y0244204D01*
X0202152Y0244218D01*
X0202006Y0244236D01*
X0201861Y0244257D01*
X0201717Y0244283D01*
X0201573Y0244313D01*
X0201431Y0244346D01*
X0201289Y0244383D01*
X0201148Y0244424D01*
X0201009Y0244469D01*
X0200870Y0244518D01*
X0200733Y0244570D01*
X0200598Y0244627D01*
X0200464Y0244686D01*
X0200332Y0244750D01*
X0200202Y0244817D01*
X0200073Y0244887D01*
X0199946Y0244961D01*
X0199822Y0245038D01*
X0199699Y0245119D01*
X0199579Y0245203D01*
X0199461Y0245290D01*
X0199346Y0245380D01*
X0199233Y0245473D01*
X0199122Y0245570D01*
X0199014Y0245669D01*
X0198909Y0245771D01*
X0198807Y0245876D01*
X0198708Y0245984D01*
X0198611Y0246095D01*
X0198518Y0246208D01*
X0198428Y0246323D01*
X0198341Y0246441D01*
X0198257Y0246561D01*
X0198176Y0246684D01*
X0198099Y0246808D01*
X0198025Y0246935D01*
X0197955Y0247064D01*
X0197888Y0247194D01*
X0197824Y0247326D01*
X0197765Y0247460D01*
X0197708Y0247595D01*
X0197656Y0247732D01*
X0197607Y0247871D01*
X0197562Y0248010D01*
X0197521Y0248151D01*
X0197484Y0248293D01*
X0197451Y0248435D01*
X0197421Y0248579D01*
X0197395Y0248723D01*
X0197374Y0248868D01*
X0197356Y0249014D01*
X0197342Y0249160D01*
X0197332Y0249306D01*
X0197326Y0249452D01*
X0197324Y0249599D01*
X0390237Y0249599D02*
X0390239Y0249746D01*
X0390245Y0249892D01*
X0390255Y0250038D01*
X0390269Y0250184D01*
X0390287Y0250330D01*
X0390308Y0250475D01*
X0390334Y0250619D01*
X0390364Y0250763D01*
X0390397Y0250905D01*
X0390434Y0251047D01*
X0390475Y0251188D01*
X0390520Y0251327D01*
X0390569Y0251466D01*
X0390621Y0251603D01*
X0390678Y0251738D01*
X0390737Y0251872D01*
X0390801Y0252004D01*
X0390868Y0252134D01*
X0390938Y0252263D01*
X0391012Y0252390D01*
X0391089Y0252514D01*
X0391170Y0252637D01*
X0391254Y0252757D01*
X0391341Y0252875D01*
X0391431Y0252990D01*
X0391524Y0253103D01*
X0391621Y0253214D01*
X0391720Y0253322D01*
X0391822Y0253427D01*
X0391927Y0253529D01*
X0392035Y0253628D01*
X0392146Y0253725D01*
X0392259Y0253818D01*
X0392374Y0253908D01*
X0392492Y0253995D01*
X0392612Y0254079D01*
X0392735Y0254160D01*
X0392859Y0254237D01*
X0392986Y0254311D01*
X0393115Y0254381D01*
X0393245Y0254448D01*
X0393377Y0254512D01*
X0393511Y0254571D01*
X0393646Y0254628D01*
X0393783Y0254680D01*
X0393922Y0254729D01*
X0394061Y0254774D01*
X0394202Y0254815D01*
X0394344Y0254852D01*
X0394486Y0254885D01*
X0394630Y0254915D01*
X0394774Y0254941D01*
X0394919Y0254962D01*
X0395065Y0254980D01*
X0395211Y0254994D01*
X0395357Y0255004D01*
X0395503Y0255010D01*
X0395650Y0255012D01*
X0395797Y0255010D01*
X0395943Y0255004D01*
X0396089Y0254994D01*
X0396235Y0254980D01*
X0396381Y0254962D01*
X0396526Y0254941D01*
X0396670Y0254915D01*
X0396814Y0254885D01*
X0396956Y0254852D01*
X0397098Y0254815D01*
X0397239Y0254774D01*
X0397378Y0254729D01*
X0397517Y0254680D01*
X0397654Y0254628D01*
X0397789Y0254571D01*
X0397923Y0254512D01*
X0398055Y0254448D01*
X0398185Y0254381D01*
X0398314Y0254311D01*
X0398441Y0254237D01*
X0398565Y0254160D01*
X0398688Y0254079D01*
X0398808Y0253995D01*
X0398926Y0253908D01*
X0399041Y0253818D01*
X0399154Y0253725D01*
X0399265Y0253628D01*
X0399373Y0253529D01*
X0399478Y0253427D01*
X0399580Y0253322D01*
X0399679Y0253214D01*
X0399776Y0253103D01*
X0399869Y0252990D01*
X0399959Y0252875D01*
X0400046Y0252757D01*
X0400130Y0252637D01*
X0400211Y0252514D01*
X0400288Y0252390D01*
X0400362Y0252263D01*
X0400432Y0252134D01*
X0400499Y0252004D01*
X0400563Y0251872D01*
X0400622Y0251738D01*
X0400679Y0251603D01*
X0400731Y0251466D01*
X0400780Y0251327D01*
X0400825Y0251188D01*
X0400866Y0251047D01*
X0400903Y0250905D01*
X0400936Y0250763D01*
X0400966Y0250619D01*
X0400992Y0250475D01*
X0401013Y0250330D01*
X0401031Y0250184D01*
X0401045Y0250038D01*
X0401055Y0249892D01*
X0401061Y0249746D01*
X0401063Y0249599D01*
X0401061Y0249452D01*
X0401055Y0249306D01*
X0401045Y0249160D01*
X0401031Y0249014D01*
X0401013Y0248868D01*
X0400992Y0248723D01*
X0400966Y0248579D01*
X0400936Y0248435D01*
X0400903Y0248293D01*
X0400866Y0248151D01*
X0400825Y0248010D01*
X0400780Y0247871D01*
X0400731Y0247732D01*
X0400679Y0247595D01*
X0400622Y0247460D01*
X0400563Y0247326D01*
X0400499Y0247194D01*
X0400432Y0247064D01*
X0400362Y0246935D01*
X0400288Y0246808D01*
X0400211Y0246684D01*
X0400130Y0246561D01*
X0400046Y0246441D01*
X0399959Y0246323D01*
X0399869Y0246208D01*
X0399776Y0246095D01*
X0399679Y0245984D01*
X0399580Y0245876D01*
X0399478Y0245771D01*
X0399373Y0245669D01*
X0399265Y0245570D01*
X0399154Y0245473D01*
X0399041Y0245380D01*
X0398926Y0245290D01*
X0398808Y0245203D01*
X0398688Y0245119D01*
X0398565Y0245038D01*
X0398441Y0244961D01*
X0398314Y0244887D01*
X0398185Y0244817D01*
X0398055Y0244750D01*
X0397923Y0244686D01*
X0397789Y0244627D01*
X0397654Y0244570D01*
X0397517Y0244518D01*
X0397378Y0244469D01*
X0397239Y0244424D01*
X0397098Y0244383D01*
X0396956Y0244346D01*
X0396814Y0244313D01*
X0396670Y0244283D01*
X0396526Y0244257D01*
X0396381Y0244236D01*
X0396235Y0244218D01*
X0396089Y0244204D01*
X0395943Y0244194D01*
X0395797Y0244188D01*
X0395650Y0244186D01*
X0395503Y0244188D01*
X0395357Y0244194D01*
X0395211Y0244204D01*
X0395065Y0244218D01*
X0394919Y0244236D01*
X0394774Y0244257D01*
X0394630Y0244283D01*
X0394486Y0244313D01*
X0394344Y0244346D01*
X0394202Y0244383D01*
X0394061Y0244424D01*
X0393922Y0244469D01*
X0393783Y0244518D01*
X0393646Y0244570D01*
X0393511Y0244627D01*
X0393377Y0244686D01*
X0393245Y0244750D01*
X0393115Y0244817D01*
X0392986Y0244887D01*
X0392859Y0244961D01*
X0392735Y0245038D01*
X0392612Y0245119D01*
X0392492Y0245203D01*
X0392374Y0245290D01*
X0392259Y0245380D01*
X0392146Y0245473D01*
X0392035Y0245570D01*
X0391927Y0245669D01*
X0391822Y0245771D01*
X0391720Y0245876D01*
X0391621Y0245984D01*
X0391524Y0246095D01*
X0391431Y0246208D01*
X0391341Y0246323D01*
X0391254Y0246441D01*
X0391170Y0246561D01*
X0391089Y0246684D01*
X0391012Y0246808D01*
X0390938Y0246935D01*
X0390868Y0247064D01*
X0390801Y0247194D01*
X0390737Y0247326D01*
X0390678Y0247460D01*
X0390621Y0247595D01*
X0390569Y0247732D01*
X0390520Y0247871D01*
X0390475Y0248010D01*
X0390434Y0248151D01*
X0390397Y0248293D01*
X0390364Y0248435D01*
X0390334Y0248579D01*
X0390308Y0248723D01*
X0390287Y0248868D01*
X0390269Y0249014D01*
X0390255Y0249160D01*
X0390245Y0249306D01*
X0390239Y0249452D01*
X0390237Y0249599D01*
X0390237Y0477946D02*
X0390239Y0478093D01*
X0390245Y0478239D01*
X0390255Y0478385D01*
X0390269Y0478531D01*
X0390287Y0478677D01*
X0390308Y0478822D01*
X0390334Y0478966D01*
X0390364Y0479110D01*
X0390397Y0479252D01*
X0390434Y0479394D01*
X0390475Y0479535D01*
X0390520Y0479674D01*
X0390569Y0479813D01*
X0390621Y0479950D01*
X0390678Y0480085D01*
X0390737Y0480219D01*
X0390801Y0480351D01*
X0390868Y0480481D01*
X0390938Y0480610D01*
X0391012Y0480737D01*
X0391089Y0480861D01*
X0391170Y0480984D01*
X0391254Y0481104D01*
X0391341Y0481222D01*
X0391431Y0481337D01*
X0391524Y0481450D01*
X0391621Y0481561D01*
X0391720Y0481669D01*
X0391822Y0481774D01*
X0391927Y0481876D01*
X0392035Y0481975D01*
X0392146Y0482072D01*
X0392259Y0482165D01*
X0392374Y0482255D01*
X0392492Y0482342D01*
X0392612Y0482426D01*
X0392735Y0482507D01*
X0392859Y0482584D01*
X0392986Y0482658D01*
X0393115Y0482728D01*
X0393245Y0482795D01*
X0393377Y0482859D01*
X0393511Y0482918D01*
X0393646Y0482975D01*
X0393783Y0483027D01*
X0393922Y0483076D01*
X0394061Y0483121D01*
X0394202Y0483162D01*
X0394344Y0483199D01*
X0394486Y0483232D01*
X0394630Y0483262D01*
X0394774Y0483288D01*
X0394919Y0483309D01*
X0395065Y0483327D01*
X0395211Y0483341D01*
X0395357Y0483351D01*
X0395503Y0483357D01*
X0395650Y0483359D01*
X0395797Y0483357D01*
X0395943Y0483351D01*
X0396089Y0483341D01*
X0396235Y0483327D01*
X0396381Y0483309D01*
X0396526Y0483288D01*
X0396670Y0483262D01*
X0396814Y0483232D01*
X0396956Y0483199D01*
X0397098Y0483162D01*
X0397239Y0483121D01*
X0397378Y0483076D01*
X0397517Y0483027D01*
X0397654Y0482975D01*
X0397789Y0482918D01*
X0397923Y0482859D01*
X0398055Y0482795D01*
X0398185Y0482728D01*
X0398314Y0482658D01*
X0398441Y0482584D01*
X0398565Y0482507D01*
X0398688Y0482426D01*
X0398808Y0482342D01*
X0398926Y0482255D01*
X0399041Y0482165D01*
X0399154Y0482072D01*
X0399265Y0481975D01*
X0399373Y0481876D01*
X0399478Y0481774D01*
X0399580Y0481669D01*
X0399679Y0481561D01*
X0399776Y0481450D01*
X0399869Y0481337D01*
X0399959Y0481222D01*
X0400046Y0481104D01*
X0400130Y0480984D01*
X0400211Y0480861D01*
X0400288Y0480737D01*
X0400362Y0480610D01*
X0400432Y0480481D01*
X0400499Y0480351D01*
X0400563Y0480219D01*
X0400622Y0480085D01*
X0400679Y0479950D01*
X0400731Y0479813D01*
X0400780Y0479674D01*
X0400825Y0479535D01*
X0400866Y0479394D01*
X0400903Y0479252D01*
X0400936Y0479110D01*
X0400966Y0478966D01*
X0400992Y0478822D01*
X0401013Y0478677D01*
X0401031Y0478531D01*
X0401045Y0478385D01*
X0401055Y0478239D01*
X0401061Y0478093D01*
X0401063Y0477946D01*
X0401061Y0477799D01*
X0401055Y0477653D01*
X0401045Y0477507D01*
X0401031Y0477361D01*
X0401013Y0477215D01*
X0400992Y0477070D01*
X0400966Y0476926D01*
X0400936Y0476782D01*
X0400903Y0476640D01*
X0400866Y0476498D01*
X0400825Y0476357D01*
X0400780Y0476218D01*
X0400731Y0476079D01*
X0400679Y0475942D01*
X0400622Y0475807D01*
X0400563Y0475673D01*
X0400499Y0475541D01*
X0400432Y0475411D01*
X0400362Y0475282D01*
X0400288Y0475155D01*
X0400211Y0475031D01*
X0400130Y0474908D01*
X0400046Y0474788D01*
X0399959Y0474670D01*
X0399869Y0474555D01*
X0399776Y0474442D01*
X0399679Y0474331D01*
X0399580Y0474223D01*
X0399478Y0474118D01*
X0399373Y0474016D01*
X0399265Y0473917D01*
X0399154Y0473820D01*
X0399041Y0473727D01*
X0398926Y0473637D01*
X0398808Y0473550D01*
X0398688Y0473466D01*
X0398565Y0473385D01*
X0398441Y0473308D01*
X0398314Y0473234D01*
X0398185Y0473164D01*
X0398055Y0473097D01*
X0397923Y0473033D01*
X0397789Y0472974D01*
X0397654Y0472917D01*
X0397517Y0472865D01*
X0397378Y0472816D01*
X0397239Y0472771D01*
X0397098Y0472730D01*
X0396956Y0472693D01*
X0396814Y0472660D01*
X0396670Y0472630D01*
X0396526Y0472604D01*
X0396381Y0472583D01*
X0396235Y0472565D01*
X0396089Y0472551D01*
X0395943Y0472541D01*
X0395797Y0472535D01*
X0395650Y0472533D01*
X0395503Y0472535D01*
X0395357Y0472541D01*
X0395211Y0472551D01*
X0395065Y0472565D01*
X0394919Y0472583D01*
X0394774Y0472604D01*
X0394630Y0472630D01*
X0394486Y0472660D01*
X0394344Y0472693D01*
X0394202Y0472730D01*
X0394061Y0472771D01*
X0393922Y0472816D01*
X0393783Y0472865D01*
X0393646Y0472917D01*
X0393511Y0472974D01*
X0393377Y0473033D01*
X0393245Y0473097D01*
X0393115Y0473164D01*
X0392986Y0473234D01*
X0392859Y0473308D01*
X0392735Y0473385D01*
X0392612Y0473466D01*
X0392492Y0473550D01*
X0392374Y0473637D01*
X0392259Y0473727D01*
X0392146Y0473820D01*
X0392035Y0473917D01*
X0391927Y0474016D01*
X0391822Y0474118D01*
X0391720Y0474223D01*
X0391621Y0474331D01*
X0391524Y0474442D01*
X0391431Y0474555D01*
X0391341Y0474670D01*
X0391254Y0474788D01*
X0391170Y0474908D01*
X0391089Y0475031D01*
X0391012Y0475155D01*
X0390938Y0475282D01*
X0390868Y0475411D01*
X0390801Y0475541D01*
X0390737Y0475673D01*
X0390678Y0475807D01*
X0390621Y0475942D01*
X0390569Y0476079D01*
X0390520Y0476218D01*
X0390475Y0476357D01*
X0390434Y0476498D01*
X0390397Y0476640D01*
X0390364Y0476782D01*
X0390334Y0476926D01*
X0390308Y0477070D01*
X0390287Y0477215D01*
X0390269Y0477361D01*
X0390255Y0477507D01*
X0390245Y0477653D01*
X0390239Y0477799D01*
X0390237Y0477946D01*
X0197324Y0477946D02*
X0197326Y0478093D01*
X0197332Y0478239D01*
X0197342Y0478385D01*
X0197356Y0478531D01*
X0197374Y0478677D01*
X0197395Y0478822D01*
X0197421Y0478966D01*
X0197451Y0479110D01*
X0197484Y0479252D01*
X0197521Y0479394D01*
X0197562Y0479535D01*
X0197607Y0479674D01*
X0197656Y0479813D01*
X0197708Y0479950D01*
X0197765Y0480085D01*
X0197824Y0480219D01*
X0197888Y0480351D01*
X0197955Y0480481D01*
X0198025Y0480610D01*
X0198099Y0480737D01*
X0198176Y0480861D01*
X0198257Y0480984D01*
X0198341Y0481104D01*
X0198428Y0481222D01*
X0198518Y0481337D01*
X0198611Y0481450D01*
X0198708Y0481561D01*
X0198807Y0481669D01*
X0198909Y0481774D01*
X0199014Y0481876D01*
X0199122Y0481975D01*
X0199233Y0482072D01*
X0199346Y0482165D01*
X0199461Y0482255D01*
X0199579Y0482342D01*
X0199699Y0482426D01*
X0199822Y0482507D01*
X0199946Y0482584D01*
X0200073Y0482658D01*
X0200202Y0482728D01*
X0200332Y0482795D01*
X0200464Y0482859D01*
X0200598Y0482918D01*
X0200733Y0482975D01*
X0200870Y0483027D01*
X0201009Y0483076D01*
X0201148Y0483121D01*
X0201289Y0483162D01*
X0201431Y0483199D01*
X0201573Y0483232D01*
X0201717Y0483262D01*
X0201861Y0483288D01*
X0202006Y0483309D01*
X0202152Y0483327D01*
X0202298Y0483341D01*
X0202444Y0483351D01*
X0202590Y0483357D01*
X0202737Y0483359D01*
X0202884Y0483357D01*
X0203030Y0483351D01*
X0203176Y0483341D01*
X0203322Y0483327D01*
X0203468Y0483309D01*
X0203613Y0483288D01*
X0203757Y0483262D01*
X0203901Y0483232D01*
X0204043Y0483199D01*
X0204185Y0483162D01*
X0204326Y0483121D01*
X0204465Y0483076D01*
X0204604Y0483027D01*
X0204741Y0482975D01*
X0204876Y0482918D01*
X0205010Y0482859D01*
X0205142Y0482795D01*
X0205272Y0482728D01*
X0205401Y0482658D01*
X0205528Y0482584D01*
X0205652Y0482507D01*
X0205775Y0482426D01*
X0205895Y0482342D01*
X0206013Y0482255D01*
X0206128Y0482165D01*
X0206241Y0482072D01*
X0206352Y0481975D01*
X0206460Y0481876D01*
X0206565Y0481774D01*
X0206667Y0481669D01*
X0206766Y0481561D01*
X0206863Y0481450D01*
X0206956Y0481337D01*
X0207046Y0481222D01*
X0207133Y0481104D01*
X0207217Y0480984D01*
X0207298Y0480861D01*
X0207375Y0480737D01*
X0207449Y0480610D01*
X0207519Y0480481D01*
X0207586Y0480351D01*
X0207650Y0480219D01*
X0207709Y0480085D01*
X0207766Y0479950D01*
X0207818Y0479813D01*
X0207867Y0479674D01*
X0207912Y0479535D01*
X0207953Y0479394D01*
X0207990Y0479252D01*
X0208023Y0479110D01*
X0208053Y0478966D01*
X0208079Y0478822D01*
X0208100Y0478677D01*
X0208118Y0478531D01*
X0208132Y0478385D01*
X0208142Y0478239D01*
X0208148Y0478093D01*
X0208150Y0477946D01*
X0208148Y0477799D01*
X0208142Y0477653D01*
X0208132Y0477507D01*
X0208118Y0477361D01*
X0208100Y0477215D01*
X0208079Y0477070D01*
X0208053Y0476926D01*
X0208023Y0476782D01*
X0207990Y0476640D01*
X0207953Y0476498D01*
X0207912Y0476357D01*
X0207867Y0476218D01*
X0207818Y0476079D01*
X0207766Y0475942D01*
X0207709Y0475807D01*
X0207650Y0475673D01*
X0207586Y0475541D01*
X0207519Y0475411D01*
X0207449Y0475282D01*
X0207375Y0475155D01*
X0207298Y0475031D01*
X0207217Y0474908D01*
X0207133Y0474788D01*
X0207046Y0474670D01*
X0206956Y0474555D01*
X0206863Y0474442D01*
X0206766Y0474331D01*
X0206667Y0474223D01*
X0206565Y0474118D01*
X0206460Y0474016D01*
X0206352Y0473917D01*
X0206241Y0473820D01*
X0206128Y0473727D01*
X0206013Y0473637D01*
X0205895Y0473550D01*
X0205775Y0473466D01*
X0205652Y0473385D01*
X0205528Y0473308D01*
X0205401Y0473234D01*
X0205272Y0473164D01*
X0205142Y0473097D01*
X0205010Y0473033D01*
X0204876Y0472974D01*
X0204741Y0472917D01*
X0204604Y0472865D01*
X0204465Y0472816D01*
X0204326Y0472771D01*
X0204185Y0472730D01*
X0204043Y0472693D01*
X0203901Y0472660D01*
X0203757Y0472630D01*
X0203613Y0472604D01*
X0203468Y0472583D01*
X0203322Y0472565D01*
X0203176Y0472551D01*
X0203030Y0472541D01*
X0202884Y0472535D01*
X0202737Y0472533D01*
X0202590Y0472535D01*
X0202444Y0472541D01*
X0202298Y0472551D01*
X0202152Y0472565D01*
X0202006Y0472583D01*
X0201861Y0472604D01*
X0201717Y0472630D01*
X0201573Y0472660D01*
X0201431Y0472693D01*
X0201289Y0472730D01*
X0201148Y0472771D01*
X0201009Y0472816D01*
X0200870Y0472865D01*
X0200733Y0472917D01*
X0200598Y0472974D01*
X0200464Y0473033D01*
X0200332Y0473097D01*
X0200202Y0473164D01*
X0200073Y0473234D01*
X0199946Y0473308D01*
X0199822Y0473385D01*
X0199699Y0473466D01*
X0199579Y0473550D01*
X0199461Y0473637D01*
X0199346Y0473727D01*
X0199233Y0473820D01*
X0199122Y0473917D01*
X0199014Y0474016D01*
X0198909Y0474118D01*
X0198807Y0474223D01*
X0198708Y0474331D01*
X0198611Y0474442D01*
X0198518Y0474555D01*
X0198428Y0474670D01*
X0198341Y0474788D01*
X0198257Y0474908D01*
X0198176Y0475031D01*
X0198099Y0475155D01*
X0198025Y0475282D01*
X0197955Y0475411D01*
X0197888Y0475541D01*
X0197824Y0475673D01*
X0197765Y0475807D01*
X0197708Y0475942D01*
X0197656Y0476079D01*
X0197607Y0476218D01*
X0197562Y0476357D01*
X0197521Y0476498D01*
X0197484Y0476640D01*
X0197451Y0476782D01*
X0197421Y0476926D01*
X0197395Y0477070D01*
X0197374Y0477215D01*
X0197356Y0477361D01*
X0197342Y0477507D01*
X0197332Y0477653D01*
X0197326Y0477799D01*
X0197324Y0477946D01*
D12*
X0259349Y0476245D02*
X0259349Y0481245D01*
X0261849Y0483745D01*
X0266849Y0483745D01*
X0269349Y0481245D01*
X0269349Y0476245D01*
X0266849Y0473745D01*
X0269349Y0471245D01*
X0269349Y0466245D01*
X0266849Y0463745D01*
X0269349Y0461245D01*
X0269349Y0456245D01*
X0266849Y0453745D01*
X0269349Y0451245D01*
X0269349Y0446245D01*
X0266849Y0443745D01*
X0269349Y0441245D01*
X0269349Y0436245D01*
X0266849Y0433745D01*
X0269349Y0431245D01*
X0269349Y0426245D01*
X0266849Y0423745D01*
X0261849Y0423745D01*
X0259349Y0426245D01*
X0259349Y0431245D01*
X0261849Y0433745D01*
X0259349Y0436245D01*
X0259349Y0441245D01*
X0261849Y0443745D01*
X0259349Y0446245D01*
X0259349Y0451245D01*
X0261849Y0453745D01*
X0259349Y0456245D01*
X0259349Y0461245D01*
X0261849Y0463745D01*
X0259349Y0466245D01*
X0259349Y0471245D01*
X0261849Y0473745D01*
X0259349Y0476245D01*
X0329349Y0471245D02*
X0329349Y0466245D01*
X0331849Y0463745D01*
X0329349Y0461245D01*
X0329349Y0456245D01*
X0331849Y0453745D01*
X0329349Y0451245D01*
X0329349Y0446245D01*
X0331849Y0443745D01*
X0329349Y0441245D01*
X0329349Y0436245D01*
X0331849Y0433745D01*
X0336849Y0433745D01*
X0339349Y0436245D01*
X0339349Y0441245D01*
X0336849Y0443745D01*
X0339349Y0446245D01*
X0339349Y0451245D01*
X0336849Y0453745D01*
X0339349Y0456245D01*
X0339349Y0461245D01*
X0336849Y0463745D01*
X0339349Y0466245D01*
X0339349Y0471245D01*
X0336849Y0473745D01*
X0331849Y0473745D01*
X0329349Y0471245D01*
X0477770Y0306076D02*
X0477770Y0292691D01*
X0498242Y0292691D01*
X0498242Y0306076D01*
X0497849Y0306076D02*
X0477770Y0306076D01*
X0493912Y0302927D02*
X0493914Y0302996D01*
X0493920Y0303064D01*
X0493930Y0303132D01*
X0493944Y0303199D01*
X0493962Y0303266D01*
X0493983Y0303331D01*
X0494009Y0303395D01*
X0494038Y0303457D01*
X0494070Y0303517D01*
X0494106Y0303576D01*
X0494146Y0303632D01*
X0494188Y0303686D01*
X0494234Y0303737D01*
X0494283Y0303786D01*
X0494334Y0303832D01*
X0494388Y0303874D01*
X0494444Y0303914D01*
X0494502Y0303950D01*
X0494563Y0303982D01*
X0494625Y0304011D01*
X0494689Y0304037D01*
X0494754Y0304058D01*
X0494821Y0304076D01*
X0494888Y0304090D01*
X0494956Y0304100D01*
X0495024Y0304106D01*
X0495093Y0304108D01*
X0495162Y0304106D01*
X0495230Y0304100D01*
X0495298Y0304090D01*
X0495365Y0304076D01*
X0495432Y0304058D01*
X0495497Y0304037D01*
X0495561Y0304011D01*
X0495623Y0303982D01*
X0495683Y0303950D01*
X0495742Y0303914D01*
X0495798Y0303874D01*
X0495852Y0303832D01*
X0495903Y0303786D01*
X0495952Y0303737D01*
X0495998Y0303686D01*
X0496040Y0303632D01*
X0496080Y0303576D01*
X0496116Y0303517D01*
X0496148Y0303457D01*
X0496177Y0303395D01*
X0496203Y0303331D01*
X0496224Y0303266D01*
X0496242Y0303199D01*
X0496256Y0303132D01*
X0496266Y0303064D01*
X0496272Y0302996D01*
X0496274Y0302927D01*
X0496272Y0302858D01*
X0496266Y0302790D01*
X0496256Y0302722D01*
X0496242Y0302655D01*
X0496224Y0302588D01*
X0496203Y0302523D01*
X0496177Y0302459D01*
X0496148Y0302397D01*
X0496116Y0302336D01*
X0496080Y0302278D01*
X0496040Y0302222D01*
X0495998Y0302168D01*
X0495952Y0302117D01*
X0495903Y0302068D01*
X0495852Y0302022D01*
X0495798Y0301980D01*
X0495742Y0301940D01*
X0495684Y0301904D01*
X0495623Y0301872D01*
X0495561Y0301843D01*
X0495497Y0301817D01*
X0495432Y0301796D01*
X0495365Y0301778D01*
X0495298Y0301764D01*
X0495230Y0301754D01*
X0495162Y0301748D01*
X0495093Y0301746D01*
X0495024Y0301748D01*
X0494956Y0301754D01*
X0494888Y0301764D01*
X0494821Y0301778D01*
X0494754Y0301796D01*
X0494689Y0301817D01*
X0494625Y0301843D01*
X0494563Y0301872D01*
X0494502Y0301904D01*
X0494444Y0301940D01*
X0494388Y0301980D01*
X0494334Y0302022D01*
X0494283Y0302068D01*
X0494234Y0302117D01*
X0494188Y0302168D01*
X0494146Y0302222D01*
X0494106Y0302278D01*
X0494070Y0302336D01*
X0494038Y0302397D01*
X0494009Y0302459D01*
X0493983Y0302523D01*
X0493962Y0302588D01*
X0493944Y0302655D01*
X0493930Y0302722D01*
X0493920Y0302790D01*
X0493914Y0302858D01*
X0493912Y0302927D01*
D13*
X0517295Y0341595D02*
X0517295Y0344598D01*
X0518045Y0344598D01*
X0521048Y0341595D01*
X0521799Y0341595D01*
X0521048Y0346199D02*
X0518045Y0349201D01*
X0521048Y0349201D01*
X0521799Y0348451D01*
X0521799Y0346950D01*
X0521048Y0346199D01*
X0518045Y0346199D01*
X0517295Y0346950D01*
X0517295Y0348451D01*
X0518045Y0349201D01*
X0499299Y0201201D02*
X0499299Y0198199D01*
X0499299Y0199700D02*
X0494795Y0199700D01*
X0496296Y0198199D01*
X0497047Y0196598D02*
X0497047Y0193595D01*
X0494795Y0195847D01*
X0499299Y0195847D01*
X0341349Y0404745D02*
X0257349Y0404745D01*
X0257349Y0503745D01*
X0341349Y0503745D01*
X0341349Y0404745D01*
X0185286Y0455571D02*
X0185286Y0461476D01*
X0169538Y0461476D01*
X0169538Y0455571D01*
X0185286Y0455571D01*
X0103642Y0359235D02*
X0080020Y0359235D01*
X0080020Y0325376D01*
X0103642Y0325376D01*
X0103642Y0359235D01*
X0097892Y0355691D02*
X0097894Y0355766D01*
X0097900Y0355841D01*
X0097910Y0355915D01*
X0097924Y0355989D01*
X0097941Y0356062D01*
X0097963Y0356133D01*
X0097988Y0356204D01*
X0098017Y0356273D01*
X0098049Y0356341D01*
X0098085Y0356406D01*
X0098125Y0356470D01*
X0098168Y0356532D01*
X0098214Y0356591D01*
X0098263Y0356648D01*
X0098315Y0356702D01*
X0098369Y0356753D01*
X0098427Y0356801D01*
X0098486Y0356846D01*
X0098549Y0356888D01*
X0098613Y0356927D01*
X0098679Y0356962D01*
X0098747Y0356994D01*
X0098817Y0357022D01*
X0098887Y0357046D01*
X0098960Y0357067D01*
X0099033Y0357083D01*
X0099107Y0357096D01*
X0099181Y0357105D01*
X0099256Y0357110D01*
X0099331Y0357111D01*
X0099406Y0357108D01*
X0099480Y0357101D01*
X0099554Y0357090D01*
X0099628Y0357075D01*
X0099701Y0357057D01*
X0099772Y0357034D01*
X0099842Y0357008D01*
X0099911Y0356978D01*
X0099978Y0356945D01*
X0100044Y0356908D01*
X0100107Y0356868D01*
X0100168Y0356824D01*
X0100226Y0356777D01*
X0100282Y0356728D01*
X0100336Y0356675D01*
X0100386Y0356620D01*
X0100434Y0356562D01*
X0100478Y0356501D01*
X0100519Y0356439D01*
X0100557Y0356374D01*
X0100591Y0356307D01*
X0100622Y0356239D01*
X0100649Y0356169D01*
X0100673Y0356098D01*
X0100692Y0356025D01*
X0100708Y0355952D01*
X0100720Y0355878D01*
X0100728Y0355803D01*
X0100732Y0355728D01*
X0100732Y0355654D01*
X0100728Y0355579D01*
X0100720Y0355504D01*
X0100708Y0355430D01*
X0100692Y0355357D01*
X0100673Y0355284D01*
X0100649Y0355213D01*
X0100622Y0355143D01*
X0100591Y0355075D01*
X0100557Y0355008D01*
X0100519Y0354943D01*
X0100478Y0354881D01*
X0100434Y0354820D01*
X0100386Y0354762D01*
X0100336Y0354707D01*
X0100282Y0354654D01*
X0100226Y0354605D01*
X0100168Y0354558D01*
X0100107Y0354514D01*
X0100044Y0354474D01*
X0099978Y0354437D01*
X0099911Y0354404D01*
X0099842Y0354374D01*
X0099772Y0354348D01*
X0099701Y0354325D01*
X0099628Y0354307D01*
X0099554Y0354292D01*
X0099480Y0354281D01*
X0099406Y0354274D01*
X0099331Y0354271D01*
X0099256Y0354272D01*
X0099181Y0354277D01*
X0099107Y0354286D01*
X0099033Y0354299D01*
X0098960Y0354315D01*
X0098887Y0354336D01*
X0098817Y0354360D01*
X0098747Y0354388D01*
X0098679Y0354420D01*
X0098613Y0354455D01*
X0098549Y0354494D01*
X0098486Y0354536D01*
X0098427Y0354581D01*
X0098369Y0354629D01*
X0098315Y0354680D01*
X0098263Y0354734D01*
X0098214Y0354791D01*
X0098168Y0354850D01*
X0098125Y0354912D01*
X0098085Y0354976D01*
X0098049Y0355041D01*
X0098017Y0355109D01*
X0097988Y0355178D01*
X0097963Y0355249D01*
X0097941Y0355320D01*
X0097924Y0355393D01*
X0097910Y0355467D01*
X0097900Y0355541D01*
X0097894Y0355616D01*
X0097892Y0355691D01*
X0067547Y0390887D02*
X0067547Y0393890D01*
X0069048Y0395491D02*
X0066045Y0398494D01*
X0069048Y0398494D01*
X0069799Y0397743D01*
X0069799Y0396242D01*
X0069048Y0395491D01*
X0066045Y0395491D01*
X0065295Y0396242D01*
X0065295Y0397743D01*
X0066045Y0398494D01*
X0065295Y0393139D02*
X0067547Y0390887D01*
X0069799Y0393139D02*
X0065295Y0393139D01*
X0061799Y0185494D02*
X0061799Y0182491D01*
X0061799Y0183992D02*
X0057295Y0183992D01*
X0058796Y0182491D01*
D14*
X0056049Y0189845D02*
X0053549Y0192345D01*
X0053549Y0197345D01*
X0056049Y0199845D01*
X0053549Y0202345D01*
X0053549Y0207345D01*
X0056049Y0209845D01*
X0053549Y0212345D01*
X0053549Y0217345D01*
X0056049Y0219845D01*
X0053549Y0222345D01*
X0053549Y0227345D01*
X0056049Y0229845D01*
X0053549Y0232345D01*
X0053549Y0237345D01*
X0056049Y0239845D01*
X0053549Y0242345D01*
X0053549Y0247345D01*
X0056049Y0249845D01*
X0053549Y0252345D01*
X0053549Y0257345D01*
X0056049Y0259845D01*
X0053549Y0262345D01*
X0053549Y0267345D01*
X0056049Y0269845D01*
X0053549Y0272345D01*
X0053549Y0277345D01*
X0056049Y0279845D01*
X0053549Y0282345D01*
X0053549Y0287345D01*
X0056049Y0289845D01*
X0053549Y0292345D01*
X0053549Y0297345D01*
X0056049Y0299845D01*
X0053549Y0302345D01*
X0053549Y0307345D01*
X0056049Y0309845D01*
X0053549Y0312345D01*
X0053549Y0317345D01*
X0056049Y0319845D01*
X0053549Y0322345D01*
X0053549Y0327345D01*
X0056049Y0329845D01*
X0053549Y0332345D01*
X0053549Y0337345D01*
X0056049Y0339845D01*
X0053549Y0342345D01*
X0053549Y0347345D01*
X0056049Y0349845D01*
X0053549Y0352345D01*
X0053549Y0357345D01*
X0056049Y0359845D01*
X0053549Y0362345D01*
X0053549Y0367345D01*
X0056049Y0369845D01*
X0053549Y0372345D01*
X0053549Y0377345D01*
X0056049Y0379845D01*
X0053549Y0382345D01*
X0053549Y0387345D01*
X0056049Y0389845D01*
X0071049Y0389845D01*
X0073549Y0387345D01*
X0073549Y0382345D01*
X0071049Y0379845D01*
X0073549Y0377345D01*
X0073549Y0372345D01*
X0071049Y0369845D01*
X0073549Y0367345D01*
X0073549Y0362345D01*
X0071049Y0359845D01*
X0073549Y0357345D01*
X0073549Y0352345D01*
X0071049Y0349845D01*
X0073549Y0347345D01*
X0073549Y0342345D01*
X0071049Y0339845D01*
X0073549Y0337345D01*
X0073549Y0332345D01*
X0071049Y0329845D01*
X0073549Y0327345D01*
X0073549Y0322345D01*
X0071049Y0319845D01*
X0073549Y0317345D01*
X0073549Y0312345D01*
X0071049Y0309845D01*
X0073549Y0307345D01*
X0073549Y0302345D01*
X0071049Y0299845D01*
X0073549Y0297345D01*
X0073549Y0292345D01*
X0071049Y0289845D01*
X0073549Y0287345D01*
X0073549Y0282345D01*
X0071049Y0279845D01*
X0073549Y0277345D01*
X0073549Y0272345D01*
X0071049Y0269845D01*
X0073549Y0267345D01*
X0073549Y0262345D01*
X0071049Y0259845D01*
X0073549Y0257345D01*
X0073549Y0252345D01*
X0071049Y0249845D01*
X0073549Y0247345D01*
X0073549Y0242345D01*
X0071049Y0239845D01*
X0073549Y0237345D01*
X0073549Y0232345D01*
X0071049Y0229845D01*
X0073549Y0227345D01*
X0073549Y0222345D01*
X0071049Y0219845D01*
X0073549Y0217345D01*
X0073549Y0212345D01*
X0071049Y0209845D01*
X0073549Y0207345D01*
X0073549Y0202345D01*
X0071049Y0199845D01*
X0073549Y0197345D01*
X0073549Y0192345D01*
X0071049Y0189845D01*
X0056049Y0189845D01*
X0501549Y0192345D02*
X0501549Y0337345D01*
X0501551Y0337443D01*
X0501557Y0337541D01*
X0501566Y0337639D01*
X0501580Y0337736D01*
X0501597Y0337833D01*
X0501618Y0337929D01*
X0501643Y0338024D01*
X0501671Y0338118D01*
X0501704Y0338210D01*
X0501739Y0338302D01*
X0501779Y0338392D01*
X0501821Y0338480D01*
X0501868Y0338567D01*
X0501917Y0338651D01*
X0501970Y0338734D01*
X0502026Y0338814D01*
X0502086Y0338893D01*
X0502148Y0338969D01*
X0502213Y0339042D01*
X0502281Y0339113D01*
X0502352Y0339181D01*
X0502425Y0339246D01*
X0502501Y0339308D01*
X0502580Y0339368D01*
X0502660Y0339424D01*
X0502743Y0339477D01*
X0502827Y0339526D01*
X0502914Y0339573D01*
X0503002Y0339615D01*
X0503092Y0339655D01*
X0503184Y0339690D01*
X0503276Y0339723D01*
X0503370Y0339751D01*
X0503465Y0339776D01*
X0503561Y0339797D01*
X0503658Y0339814D01*
X0503755Y0339828D01*
X0503853Y0339837D01*
X0503951Y0339843D01*
X0504049Y0339845D01*
X0523049Y0339845D01*
X0523147Y0339843D01*
X0523245Y0339837D01*
X0523343Y0339828D01*
X0523440Y0339814D01*
X0523537Y0339797D01*
X0523633Y0339776D01*
X0523728Y0339751D01*
X0523822Y0339723D01*
X0523914Y0339690D01*
X0524006Y0339655D01*
X0524096Y0339615D01*
X0524184Y0339573D01*
X0524271Y0339526D01*
X0524355Y0339477D01*
X0524438Y0339424D01*
X0524518Y0339368D01*
X0524597Y0339308D01*
X0524673Y0339246D01*
X0524746Y0339181D01*
X0524817Y0339113D01*
X0524885Y0339042D01*
X0524950Y0338969D01*
X0525012Y0338893D01*
X0525072Y0338814D01*
X0525128Y0338734D01*
X0525181Y0338651D01*
X0525230Y0338567D01*
X0525277Y0338480D01*
X0525319Y0338392D01*
X0525359Y0338302D01*
X0525394Y0338210D01*
X0525427Y0338118D01*
X0525455Y0338024D01*
X0525480Y0337929D01*
X0525501Y0337833D01*
X0525518Y0337736D01*
X0525532Y0337639D01*
X0525541Y0337541D01*
X0525547Y0337443D01*
X0525549Y0337345D01*
X0525549Y0192345D01*
X0525547Y0192247D01*
X0525541Y0192149D01*
X0525532Y0192051D01*
X0525518Y0191954D01*
X0525501Y0191857D01*
X0525480Y0191761D01*
X0525455Y0191666D01*
X0525427Y0191572D01*
X0525394Y0191480D01*
X0525359Y0191388D01*
X0525319Y0191298D01*
X0525277Y0191210D01*
X0525230Y0191123D01*
X0525181Y0191039D01*
X0525128Y0190956D01*
X0525072Y0190876D01*
X0525012Y0190797D01*
X0524950Y0190721D01*
X0524885Y0190648D01*
X0524817Y0190577D01*
X0524746Y0190509D01*
X0524673Y0190444D01*
X0524597Y0190382D01*
X0524518Y0190322D01*
X0524438Y0190266D01*
X0524355Y0190213D01*
X0524271Y0190164D01*
X0524184Y0190117D01*
X0524096Y0190075D01*
X0524006Y0190035D01*
X0523914Y0190000D01*
X0523822Y0189967D01*
X0523728Y0189939D01*
X0523633Y0189914D01*
X0523537Y0189893D01*
X0523440Y0189876D01*
X0523343Y0189862D01*
X0523245Y0189853D01*
X0523147Y0189847D01*
X0523049Y0189845D01*
X0504049Y0189845D01*
X0503951Y0189847D01*
X0503853Y0189853D01*
X0503755Y0189862D01*
X0503658Y0189876D01*
X0503561Y0189893D01*
X0503465Y0189914D01*
X0503370Y0189939D01*
X0503276Y0189967D01*
X0503184Y0190000D01*
X0503092Y0190035D01*
X0503002Y0190075D01*
X0502914Y0190117D01*
X0502827Y0190164D01*
X0502743Y0190213D01*
X0502660Y0190266D01*
X0502580Y0190322D01*
X0502501Y0190382D01*
X0502425Y0190444D01*
X0502352Y0190509D01*
X0502281Y0190577D01*
X0502213Y0190648D01*
X0502148Y0190721D01*
X0502086Y0190797D01*
X0502026Y0190876D01*
X0501970Y0190956D01*
X0501917Y0191039D01*
X0501868Y0191123D01*
X0501821Y0191210D01*
X0501779Y0191298D01*
X0501739Y0191388D01*
X0501704Y0191480D01*
X0501671Y0191572D01*
X0501643Y0191666D01*
X0501618Y0191761D01*
X0501597Y0191857D01*
X0501580Y0191954D01*
X0501566Y0192051D01*
X0501557Y0192149D01*
X0501551Y0192247D01*
X0501549Y0192345D01*
D15*
X0429749Y0346225D02*
X0429749Y0346465D01*
M02*
