G75*
%MOIN*%
%OFA0B0*%
%FSLAX25Y25*%
%IPPOS*%
%LPD*%
%AMOC8*
5,1,8,0,0,1.08239X$1,22.5*
%
%ADD10C,0.01600*%
%ADD11C,0.00000*%
%ADD12C,0.00500*%
%ADD13C,0.00300*%
%ADD14C,0.00600*%
%ADD15C,0.00800*%
%ADD16R,0.03800X0.09500*%
%ADD17C,0.01000*%
%ADD18C,0.00400*%
D10*
X0058905Y0179884D02*
X0048884Y0190305D01*
X0048884Y0388295D01*
X0190305Y0529716D01*
X0388295Y0529716D01*
X0529716Y0388295D01*
X0529716Y0190305D01*
X0518095Y0179184D01*
X0518195Y0179316D02*
X0059005Y0179916D01*
D11*
X0197324Y0249599D02*
X0197326Y0249746D01*
X0197332Y0249892D01*
X0197342Y0250038D01*
X0197356Y0250184D01*
X0197374Y0250330D01*
X0197395Y0250475D01*
X0197421Y0250619D01*
X0197451Y0250763D01*
X0197484Y0250905D01*
X0197521Y0251047D01*
X0197562Y0251188D01*
X0197607Y0251327D01*
X0197656Y0251466D01*
X0197708Y0251603D01*
X0197765Y0251738D01*
X0197824Y0251872D01*
X0197888Y0252004D01*
X0197955Y0252134D01*
X0198025Y0252263D01*
X0198099Y0252390D01*
X0198176Y0252514D01*
X0198257Y0252637D01*
X0198341Y0252757D01*
X0198428Y0252875D01*
X0198518Y0252990D01*
X0198611Y0253103D01*
X0198708Y0253214D01*
X0198807Y0253322D01*
X0198909Y0253427D01*
X0199014Y0253529D01*
X0199122Y0253628D01*
X0199233Y0253725D01*
X0199346Y0253818D01*
X0199461Y0253908D01*
X0199579Y0253995D01*
X0199699Y0254079D01*
X0199822Y0254160D01*
X0199946Y0254237D01*
X0200073Y0254311D01*
X0200202Y0254381D01*
X0200332Y0254448D01*
X0200464Y0254512D01*
X0200598Y0254571D01*
X0200733Y0254628D01*
X0200870Y0254680D01*
X0201009Y0254729D01*
X0201148Y0254774D01*
X0201289Y0254815D01*
X0201431Y0254852D01*
X0201573Y0254885D01*
X0201717Y0254915D01*
X0201861Y0254941D01*
X0202006Y0254962D01*
X0202152Y0254980D01*
X0202298Y0254994D01*
X0202444Y0255004D01*
X0202590Y0255010D01*
X0202737Y0255012D01*
X0202884Y0255010D01*
X0203030Y0255004D01*
X0203176Y0254994D01*
X0203322Y0254980D01*
X0203468Y0254962D01*
X0203613Y0254941D01*
X0203757Y0254915D01*
X0203901Y0254885D01*
X0204043Y0254852D01*
X0204185Y0254815D01*
X0204326Y0254774D01*
X0204465Y0254729D01*
X0204604Y0254680D01*
X0204741Y0254628D01*
X0204876Y0254571D01*
X0205010Y0254512D01*
X0205142Y0254448D01*
X0205272Y0254381D01*
X0205401Y0254311D01*
X0205528Y0254237D01*
X0205652Y0254160D01*
X0205775Y0254079D01*
X0205895Y0253995D01*
X0206013Y0253908D01*
X0206128Y0253818D01*
X0206241Y0253725D01*
X0206352Y0253628D01*
X0206460Y0253529D01*
X0206565Y0253427D01*
X0206667Y0253322D01*
X0206766Y0253214D01*
X0206863Y0253103D01*
X0206956Y0252990D01*
X0207046Y0252875D01*
X0207133Y0252757D01*
X0207217Y0252637D01*
X0207298Y0252514D01*
X0207375Y0252390D01*
X0207449Y0252263D01*
X0207519Y0252134D01*
X0207586Y0252004D01*
X0207650Y0251872D01*
X0207709Y0251738D01*
X0207766Y0251603D01*
X0207818Y0251466D01*
X0207867Y0251327D01*
X0207912Y0251188D01*
X0207953Y0251047D01*
X0207990Y0250905D01*
X0208023Y0250763D01*
X0208053Y0250619D01*
X0208079Y0250475D01*
X0208100Y0250330D01*
X0208118Y0250184D01*
X0208132Y0250038D01*
X0208142Y0249892D01*
X0208148Y0249746D01*
X0208150Y0249599D01*
X0208148Y0249452D01*
X0208142Y0249306D01*
X0208132Y0249160D01*
X0208118Y0249014D01*
X0208100Y0248868D01*
X0208079Y0248723D01*
X0208053Y0248579D01*
X0208023Y0248435D01*
X0207990Y0248293D01*
X0207953Y0248151D01*
X0207912Y0248010D01*
X0207867Y0247871D01*
X0207818Y0247732D01*
X0207766Y0247595D01*
X0207709Y0247460D01*
X0207650Y0247326D01*
X0207586Y0247194D01*
X0207519Y0247064D01*
X0207449Y0246935D01*
X0207375Y0246808D01*
X0207298Y0246684D01*
X0207217Y0246561D01*
X0207133Y0246441D01*
X0207046Y0246323D01*
X0206956Y0246208D01*
X0206863Y0246095D01*
X0206766Y0245984D01*
X0206667Y0245876D01*
X0206565Y0245771D01*
X0206460Y0245669D01*
X0206352Y0245570D01*
X0206241Y0245473D01*
X0206128Y0245380D01*
X0206013Y0245290D01*
X0205895Y0245203D01*
X0205775Y0245119D01*
X0205652Y0245038D01*
X0205528Y0244961D01*
X0205401Y0244887D01*
X0205272Y0244817D01*
X0205142Y0244750D01*
X0205010Y0244686D01*
X0204876Y0244627D01*
X0204741Y0244570D01*
X0204604Y0244518D01*
X0204465Y0244469D01*
X0204326Y0244424D01*
X0204185Y0244383D01*
X0204043Y0244346D01*
X0203901Y0244313D01*
X0203757Y0244283D01*
X0203613Y0244257D01*
X0203468Y0244236D01*
X0203322Y0244218D01*
X0203176Y0244204D01*
X0203030Y0244194D01*
X0202884Y0244188D01*
X0202737Y0244186D01*
X0202590Y0244188D01*
X0202444Y0244194D01*
X0202298Y0244204D01*
X0202152Y0244218D01*
X0202006Y0244236D01*
X0201861Y0244257D01*
X0201717Y0244283D01*
X0201573Y0244313D01*
X0201431Y0244346D01*
X0201289Y0244383D01*
X0201148Y0244424D01*
X0201009Y0244469D01*
X0200870Y0244518D01*
X0200733Y0244570D01*
X0200598Y0244627D01*
X0200464Y0244686D01*
X0200332Y0244750D01*
X0200202Y0244817D01*
X0200073Y0244887D01*
X0199946Y0244961D01*
X0199822Y0245038D01*
X0199699Y0245119D01*
X0199579Y0245203D01*
X0199461Y0245290D01*
X0199346Y0245380D01*
X0199233Y0245473D01*
X0199122Y0245570D01*
X0199014Y0245669D01*
X0198909Y0245771D01*
X0198807Y0245876D01*
X0198708Y0245984D01*
X0198611Y0246095D01*
X0198518Y0246208D01*
X0198428Y0246323D01*
X0198341Y0246441D01*
X0198257Y0246561D01*
X0198176Y0246684D01*
X0198099Y0246808D01*
X0198025Y0246935D01*
X0197955Y0247064D01*
X0197888Y0247194D01*
X0197824Y0247326D01*
X0197765Y0247460D01*
X0197708Y0247595D01*
X0197656Y0247732D01*
X0197607Y0247871D01*
X0197562Y0248010D01*
X0197521Y0248151D01*
X0197484Y0248293D01*
X0197451Y0248435D01*
X0197421Y0248579D01*
X0197395Y0248723D01*
X0197374Y0248868D01*
X0197356Y0249014D01*
X0197342Y0249160D01*
X0197332Y0249306D01*
X0197326Y0249452D01*
X0197324Y0249599D01*
X0390237Y0249599D02*
X0390239Y0249746D01*
X0390245Y0249892D01*
X0390255Y0250038D01*
X0390269Y0250184D01*
X0390287Y0250330D01*
X0390308Y0250475D01*
X0390334Y0250619D01*
X0390364Y0250763D01*
X0390397Y0250905D01*
X0390434Y0251047D01*
X0390475Y0251188D01*
X0390520Y0251327D01*
X0390569Y0251466D01*
X0390621Y0251603D01*
X0390678Y0251738D01*
X0390737Y0251872D01*
X0390801Y0252004D01*
X0390868Y0252134D01*
X0390938Y0252263D01*
X0391012Y0252390D01*
X0391089Y0252514D01*
X0391170Y0252637D01*
X0391254Y0252757D01*
X0391341Y0252875D01*
X0391431Y0252990D01*
X0391524Y0253103D01*
X0391621Y0253214D01*
X0391720Y0253322D01*
X0391822Y0253427D01*
X0391927Y0253529D01*
X0392035Y0253628D01*
X0392146Y0253725D01*
X0392259Y0253818D01*
X0392374Y0253908D01*
X0392492Y0253995D01*
X0392612Y0254079D01*
X0392735Y0254160D01*
X0392859Y0254237D01*
X0392986Y0254311D01*
X0393115Y0254381D01*
X0393245Y0254448D01*
X0393377Y0254512D01*
X0393511Y0254571D01*
X0393646Y0254628D01*
X0393783Y0254680D01*
X0393922Y0254729D01*
X0394061Y0254774D01*
X0394202Y0254815D01*
X0394344Y0254852D01*
X0394486Y0254885D01*
X0394630Y0254915D01*
X0394774Y0254941D01*
X0394919Y0254962D01*
X0395065Y0254980D01*
X0395211Y0254994D01*
X0395357Y0255004D01*
X0395503Y0255010D01*
X0395650Y0255012D01*
X0395797Y0255010D01*
X0395943Y0255004D01*
X0396089Y0254994D01*
X0396235Y0254980D01*
X0396381Y0254962D01*
X0396526Y0254941D01*
X0396670Y0254915D01*
X0396814Y0254885D01*
X0396956Y0254852D01*
X0397098Y0254815D01*
X0397239Y0254774D01*
X0397378Y0254729D01*
X0397517Y0254680D01*
X0397654Y0254628D01*
X0397789Y0254571D01*
X0397923Y0254512D01*
X0398055Y0254448D01*
X0398185Y0254381D01*
X0398314Y0254311D01*
X0398441Y0254237D01*
X0398565Y0254160D01*
X0398688Y0254079D01*
X0398808Y0253995D01*
X0398926Y0253908D01*
X0399041Y0253818D01*
X0399154Y0253725D01*
X0399265Y0253628D01*
X0399373Y0253529D01*
X0399478Y0253427D01*
X0399580Y0253322D01*
X0399679Y0253214D01*
X0399776Y0253103D01*
X0399869Y0252990D01*
X0399959Y0252875D01*
X0400046Y0252757D01*
X0400130Y0252637D01*
X0400211Y0252514D01*
X0400288Y0252390D01*
X0400362Y0252263D01*
X0400432Y0252134D01*
X0400499Y0252004D01*
X0400563Y0251872D01*
X0400622Y0251738D01*
X0400679Y0251603D01*
X0400731Y0251466D01*
X0400780Y0251327D01*
X0400825Y0251188D01*
X0400866Y0251047D01*
X0400903Y0250905D01*
X0400936Y0250763D01*
X0400966Y0250619D01*
X0400992Y0250475D01*
X0401013Y0250330D01*
X0401031Y0250184D01*
X0401045Y0250038D01*
X0401055Y0249892D01*
X0401061Y0249746D01*
X0401063Y0249599D01*
X0401061Y0249452D01*
X0401055Y0249306D01*
X0401045Y0249160D01*
X0401031Y0249014D01*
X0401013Y0248868D01*
X0400992Y0248723D01*
X0400966Y0248579D01*
X0400936Y0248435D01*
X0400903Y0248293D01*
X0400866Y0248151D01*
X0400825Y0248010D01*
X0400780Y0247871D01*
X0400731Y0247732D01*
X0400679Y0247595D01*
X0400622Y0247460D01*
X0400563Y0247326D01*
X0400499Y0247194D01*
X0400432Y0247064D01*
X0400362Y0246935D01*
X0400288Y0246808D01*
X0400211Y0246684D01*
X0400130Y0246561D01*
X0400046Y0246441D01*
X0399959Y0246323D01*
X0399869Y0246208D01*
X0399776Y0246095D01*
X0399679Y0245984D01*
X0399580Y0245876D01*
X0399478Y0245771D01*
X0399373Y0245669D01*
X0399265Y0245570D01*
X0399154Y0245473D01*
X0399041Y0245380D01*
X0398926Y0245290D01*
X0398808Y0245203D01*
X0398688Y0245119D01*
X0398565Y0245038D01*
X0398441Y0244961D01*
X0398314Y0244887D01*
X0398185Y0244817D01*
X0398055Y0244750D01*
X0397923Y0244686D01*
X0397789Y0244627D01*
X0397654Y0244570D01*
X0397517Y0244518D01*
X0397378Y0244469D01*
X0397239Y0244424D01*
X0397098Y0244383D01*
X0396956Y0244346D01*
X0396814Y0244313D01*
X0396670Y0244283D01*
X0396526Y0244257D01*
X0396381Y0244236D01*
X0396235Y0244218D01*
X0396089Y0244204D01*
X0395943Y0244194D01*
X0395797Y0244188D01*
X0395650Y0244186D01*
X0395503Y0244188D01*
X0395357Y0244194D01*
X0395211Y0244204D01*
X0395065Y0244218D01*
X0394919Y0244236D01*
X0394774Y0244257D01*
X0394630Y0244283D01*
X0394486Y0244313D01*
X0394344Y0244346D01*
X0394202Y0244383D01*
X0394061Y0244424D01*
X0393922Y0244469D01*
X0393783Y0244518D01*
X0393646Y0244570D01*
X0393511Y0244627D01*
X0393377Y0244686D01*
X0393245Y0244750D01*
X0393115Y0244817D01*
X0392986Y0244887D01*
X0392859Y0244961D01*
X0392735Y0245038D01*
X0392612Y0245119D01*
X0392492Y0245203D01*
X0392374Y0245290D01*
X0392259Y0245380D01*
X0392146Y0245473D01*
X0392035Y0245570D01*
X0391927Y0245669D01*
X0391822Y0245771D01*
X0391720Y0245876D01*
X0391621Y0245984D01*
X0391524Y0246095D01*
X0391431Y0246208D01*
X0391341Y0246323D01*
X0391254Y0246441D01*
X0391170Y0246561D01*
X0391089Y0246684D01*
X0391012Y0246808D01*
X0390938Y0246935D01*
X0390868Y0247064D01*
X0390801Y0247194D01*
X0390737Y0247326D01*
X0390678Y0247460D01*
X0390621Y0247595D01*
X0390569Y0247732D01*
X0390520Y0247871D01*
X0390475Y0248010D01*
X0390434Y0248151D01*
X0390397Y0248293D01*
X0390364Y0248435D01*
X0390334Y0248579D01*
X0390308Y0248723D01*
X0390287Y0248868D01*
X0390269Y0249014D01*
X0390255Y0249160D01*
X0390245Y0249306D01*
X0390239Y0249452D01*
X0390237Y0249599D01*
X0390237Y0477946D02*
X0390239Y0478093D01*
X0390245Y0478239D01*
X0390255Y0478385D01*
X0390269Y0478531D01*
X0390287Y0478677D01*
X0390308Y0478822D01*
X0390334Y0478966D01*
X0390364Y0479110D01*
X0390397Y0479252D01*
X0390434Y0479394D01*
X0390475Y0479535D01*
X0390520Y0479674D01*
X0390569Y0479813D01*
X0390621Y0479950D01*
X0390678Y0480085D01*
X0390737Y0480219D01*
X0390801Y0480351D01*
X0390868Y0480481D01*
X0390938Y0480610D01*
X0391012Y0480737D01*
X0391089Y0480861D01*
X0391170Y0480984D01*
X0391254Y0481104D01*
X0391341Y0481222D01*
X0391431Y0481337D01*
X0391524Y0481450D01*
X0391621Y0481561D01*
X0391720Y0481669D01*
X0391822Y0481774D01*
X0391927Y0481876D01*
X0392035Y0481975D01*
X0392146Y0482072D01*
X0392259Y0482165D01*
X0392374Y0482255D01*
X0392492Y0482342D01*
X0392612Y0482426D01*
X0392735Y0482507D01*
X0392859Y0482584D01*
X0392986Y0482658D01*
X0393115Y0482728D01*
X0393245Y0482795D01*
X0393377Y0482859D01*
X0393511Y0482918D01*
X0393646Y0482975D01*
X0393783Y0483027D01*
X0393922Y0483076D01*
X0394061Y0483121D01*
X0394202Y0483162D01*
X0394344Y0483199D01*
X0394486Y0483232D01*
X0394630Y0483262D01*
X0394774Y0483288D01*
X0394919Y0483309D01*
X0395065Y0483327D01*
X0395211Y0483341D01*
X0395357Y0483351D01*
X0395503Y0483357D01*
X0395650Y0483359D01*
X0395797Y0483357D01*
X0395943Y0483351D01*
X0396089Y0483341D01*
X0396235Y0483327D01*
X0396381Y0483309D01*
X0396526Y0483288D01*
X0396670Y0483262D01*
X0396814Y0483232D01*
X0396956Y0483199D01*
X0397098Y0483162D01*
X0397239Y0483121D01*
X0397378Y0483076D01*
X0397517Y0483027D01*
X0397654Y0482975D01*
X0397789Y0482918D01*
X0397923Y0482859D01*
X0398055Y0482795D01*
X0398185Y0482728D01*
X0398314Y0482658D01*
X0398441Y0482584D01*
X0398565Y0482507D01*
X0398688Y0482426D01*
X0398808Y0482342D01*
X0398926Y0482255D01*
X0399041Y0482165D01*
X0399154Y0482072D01*
X0399265Y0481975D01*
X0399373Y0481876D01*
X0399478Y0481774D01*
X0399580Y0481669D01*
X0399679Y0481561D01*
X0399776Y0481450D01*
X0399869Y0481337D01*
X0399959Y0481222D01*
X0400046Y0481104D01*
X0400130Y0480984D01*
X0400211Y0480861D01*
X0400288Y0480737D01*
X0400362Y0480610D01*
X0400432Y0480481D01*
X0400499Y0480351D01*
X0400563Y0480219D01*
X0400622Y0480085D01*
X0400679Y0479950D01*
X0400731Y0479813D01*
X0400780Y0479674D01*
X0400825Y0479535D01*
X0400866Y0479394D01*
X0400903Y0479252D01*
X0400936Y0479110D01*
X0400966Y0478966D01*
X0400992Y0478822D01*
X0401013Y0478677D01*
X0401031Y0478531D01*
X0401045Y0478385D01*
X0401055Y0478239D01*
X0401061Y0478093D01*
X0401063Y0477946D01*
X0401061Y0477799D01*
X0401055Y0477653D01*
X0401045Y0477507D01*
X0401031Y0477361D01*
X0401013Y0477215D01*
X0400992Y0477070D01*
X0400966Y0476926D01*
X0400936Y0476782D01*
X0400903Y0476640D01*
X0400866Y0476498D01*
X0400825Y0476357D01*
X0400780Y0476218D01*
X0400731Y0476079D01*
X0400679Y0475942D01*
X0400622Y0475807D01*
X0400563Y0475673D01*
X0400499Y0475541D01*
X0400432Y0475411D01*
X0400362Y0475282D01*
X0400288Y0475155D01*
X0400211Y0475031D01*
X0400130Y0474908D01*
X0400046Y0474788D01*
X0399959Y0474670D01*
X0399869Y0474555D01*
X0399776Y0474442D01*
X0399679Y0474331D01*
X0399580Y0474223D01*
X0399478Y0474118D01*
X0399373Y0474016D01*
X0399265Y0473917D01*
X0399154Y0473820D01*
X0399041Y0473727D01*
X0398926Y0473637D01*
X0398808Y0473550D01*
X0398688Y0473466D01*
X0398565Y0473385D01*
X0398441Y0473308D01*
X0398314Y0473234D01*
X0398185Y0473164D01*
X0398055Y0473097D01*
X0397923Y0473033D01*
X0397789Y0472974D01*
X0397654Y0472917D01*
X0397517Y0472865D01*
X0397378Y0472816D01*
X0397239Y0472771D01*
X0397098Y0472730D01*
X0396956Y0472693D01*
X0396814Y0472660D01*
X0396670Y0472630D01*
X0396526Y0472604D01*
X0396381Y0472583D01*
X0396235Y0472565D01*
X0396089Y0472551D01*
X0395943Y0472541D01*
X0395797Y0472535D01*
X0395650Y0472533D01*
X0395503Y0472535D01*
X0395357Y0472541D01*
X0395211Y0472551D01*
X0395065Y0472565D01*
X0394919Y0472583D01*
X0394774Y0472604D01*
X0394630Y0472630D01*
X0394486Y0472660D01*
X0394344Y0472693D01*
X0394202Y0472730D01*
X0394061Y0472771D01*
X0393922Y0472816D01*
X0393783Y0472865D01*
X0393646Y0472917D01*
X0393511Y0472974D01*
X0393377Y0473033D01*
X0393245Y0473097D01*
X0393115Y0473164D01*
X0392986Y0473234D01*
X0392859Y0473308D01*
X0392735Y0473385D01*
X0392612Y0473466D01*
X0392492Y0473550D01*
X0392374Y0473637D01*
X0392259Y0473727D01*
X0392146Y0473820D01*
X0392035Y0473917D01*
X0391927Y0474016D01*
X0391822Y0474118D01*
X0391720Y0474223D01*
X0391621Y0474331D01*
X0391524Y0474442D01*
X0391431Y0474555D01*
X0391341Y0474670D01*
X0391254Y0474788D01*
X0391170Y0474908D01*
X0391089Y0475031D01*
X0391012Y0475155D01*
X0390938Y0475282D01*
X0390868Y0475411D01*
X0390801Y0475541D01*
X0390737Y0475673D01*
X0390678Y0475807D01*
X0390621Y0475942D01*
X0390569Y0476079D01*
X0390520Y0476218D01*
X0390475Y0476357D01*
X0390434Y0476498D01*
X0390397Y0476640D01*
X0390364Y0476782D01*
X0390334Y0476926D01*
X0390308Y0477070D01*
X0390287Y0477215D01*
X0390269Y0477361D01*
X0390255Y0477507D01*
X0390245Y0477653D01*
X0390239Y0477799D01*
X0390237Y0477946D01*
X0197324Y0477946D02*
X0197326Y0478093D01*
X0197332Y0478239D01*
X0197342Y0478385D01*
X0197356Y0478531D01*
X0197374Y0478677D01*
X0197395Y0478822D01*
X0197421Y0478966D01*
X0197451Y0479110D01*
X0197484Y0479252D01*
X0197521Y0479394D01*
X0197562Y0479535D01*
X0197607Y0479674D01*
X0197656Y0479813D01*
X0197708Y0479950D01*
X0197765Y0480085D01*
X0197824Y0480219D01*
X0197888Y0480351D01*
X0197955Y0480481D01*
X0198025Y0480610D01*
X0198099Y0480737D01*
X0198176Y0480861D01*
X0198257Y0480984D01*
X0198341Y0481104D01*
X0198428Y0481222D01*
X0198518Y0481337D01*
X0198611Y0481450D01*
X0198708Y0481561D01*
X0198807Y0481669D01*
X0198909Y0481774D01*
X0199014Y0481876D01*
X0199122Y0481975D01*
X0199233Y0482072D01*
X0199346Y0482165D01*
X0199461Y0482255D01*
X0199579Y0482342D01*
X0199699Y0482426D01*
X0199822Y0482507D01*
X0199946Y0482584D01*
X0200073Y0482658D01*
X0200202Y0482728D01*
X0200332Y0482795D01*
X0200464Y0482859D01*
X0200598Y0482918D01*
X0200733Y0482975D01*
X0200870Y0483027D01*
X0201009Y0483076D01*
X0201148Y0483121D01*
X0201289Y0483162D01*
X0201431Y0483199D01*
X0201573Y0483232D01*
X0201717Y0483262D01*
X0201861Y0483288D01*
X0202006Y0483309D01*
X0202152Y0483327D01*
X0202298Y0483341D01*
X0202444Y0483351D01*
X0202590Y0483357D01*
X0202737Y0483359D01*
X0202884Y0483357D01*
X0203030Y0483351D01*
X0203176Y0483341D01*
X0203322Y0483327D01*
X0203468Y0483309D01*
X0203613Y0483288D01*
X0203757Y0483262D01*
X0203901Y0483232D01*
X0204043Y0483199D01*
X0204185Y0483162D01*
X0204326Y0483121D01*
X0204465Y0483076D01*
X0204604Y0483027D01*
X0204741Y0482975D01*
X0204876Y0482918D01*
X0205010Y0482859D01*
X0205142Y0482795D01*
X0205272Y0482728D01*
X0205401Y0482658D01*
X0205528Y0482584D01*
X0205652Y0482507D01*
X0205775Y0482426D01*
X0205895Y0482342D01*
X0206013Y0482255D01*
X0206128Y0482165D01*
X0206241Y0482072D01*
X0206352Y0481975D01*
X0206460Y0481876D01*
X0206565Y0481774D01*
X0206667Y0481669D01*
X0206766Y0481561D01*
X0206863Y0481450D01*
X0206956Y0481337D01*
X0207046Y0481222D01*
X0207133Y0481104D01*
X0207217Y0480984D01*
X0207298Y0480861D01*
X0207375Y0480737D01*
X0207449Y0480610D01*
X0207519Y0480481D01*
X0207586Y0480351D01*
X0207650Y0480219D01*
X0207709Y0480085D01*
X0207766Y0479950D01*
X0207818Y0479813D01*
X0207867Y0479674D01*
X0207912Y0479535D01*
X0207953Y0479394D01*
X0207990Y0479252D01*
X0208023Y0479110D01*
X0208053Y0478966D01*
X0208079Y0478822D01*
X0208100Y0478677D01*
X0208118Y0478531D01*
X0208132Y0478385D01*
X0208142Y0478239D01*
X0208148Y0478093D01*
X0208150Y0477946D01*
X0208148Y0477799D01*
X0208142Y0477653D01*
X0208132Y0477507D01*
X0208118Y0477361D01*
X0208100Y0477215D01*
X0208079Y0477070D01*
X0208053Y0476926D01*
X0208023Y0476782D01*
X0207990Y0476640D01*
X0207953Y0476498D01*
X0207912Y0476357D01*
X0207867Y0476218D01*
X0207818Y0476079D01*
X0207766Y0475942D01*
X0207709Y0475807D01*
X0207650Y0475673D01*
X0207586Y0475541D01*
X0207519Y0475411D01*
X0207449Y0475282D01*
X0207375Y0475155D01*
X0207298Y0475031D01*
X0207217Y0474908D01*
X0207133Y0474788D01*
X0207046Y0474670D01*
X0206956Y0474555D01*
X0206863Y0474442D01*
X0206766Y0474331D01*
X0206667Y0474223D01*
X0206565Y0474118D01*
X0206460Y0474016D01*
X0206352Y0473917D01*
X0206241Y0473820D01*
X0206128Y0473727D01*
X0206013Y0473637D01*
X0205895Y0473550D01*
X0205775Y0473466D01*
X0205652Y0473385D01*
X0205528Y0473308D01*
X0205401Y0473234D01*
X0205272Y0473164D01*
X0205142Y0473097D01*
X0205010Y0473033D01*
X0204876Y0472974D01*
X0204741Y0472917D01*
X0204604Y0472865D01*
X0204465Y0472816D01*
X0204326Y0472771D01*
X0204185Y0472730D01*
X0204043Y0472693D01*
X0203901Y0472660D01*
X0203757Y0472630D01*
X0203613Y0472604D01*
X0203468Y0472583D01*
X0203322Y0472565D01*
X0203176Y0472551D01*
X0203030Y0472541D01*
X0202884Y0472535D01*
X0202737Y0472533D01*
X0202590Y0472535D01*
X0202444Y0472541D01*
X0202298Y0472551D01*
X0202152Y0472565D01*
X0202006Y0472583D01*
X0201861Y0472604D01*
X0201717Y0472630D01*
X0201573Y0472660D01*
X0201431Y0472693D01*
X0201289Y0472730D01*
X0201148Y0472771D01*
X0201009Y0472816D01*
X0200870Y0472865D01*
X0200733Y0472917D01*
X0200598Y0472974D01*
X0200464Y0473033D01*
X0200332Y0473097D01*
X0200202Y0473164D01*
X0200073Y0473234D01*
X0199946Y0473308D01*
X0199822Y0473385D01*
X0199699Y0473466D01*
X0199579Y0473550D01*
X0199461Y0473637D01*
X0199346Y0473727D01*
X0199233Y0473820D01*
X0199122Y0473917D01*
X0199014Y0474016D01*
X0198909Y0474118D01*
X0198807Y0474223D01*
X0198708Y0474331D01*
X0198611Y0474442D01*
X0198518Y0474555D01*
X0198428Y0474670D01*
X0198341Y0474788D01*
X0198257Y0474908D01*
X0198176Y0475031D01*
X0198099Y0475155D01*
X0198025Y0475282D01*
X0197955Y0475411D01*
X0197888Y0475541D01*
X0197824Y0475673D01*
X0197765Y0475807D01*
X0197708Y0475942D01*
X0197656Y0476079D01*
X0197607Y0476218D01*
X0197562Y0476357D01*
X0197521Y0476498D01*
X0197484Y0476640D01*
X0197451Y0476782D01*
X0197421Y0476926D01*
X0197395Y0477070D01*
X0197374Y0477215D01*
X0197356Y0477361D01*
X0197342Y0477507D01*
X0197332Y0477653D01*
X0197326Y0477799D01*
X0197324Y0477946D01*
D12*
X0192887Y0465194D02*
X0208635Y0465194D01*
X0212572Y0461257D01*
X0212572Y0262438D01*
X0192887Y0262438D01*
X0192887Y0465194D01*
X0255886Y0469678D02*
X0275571Y0469678D01*
X0275571Y0481489D02*
X0255886Y0481489D01*
X0255886Y0469678D01*
X0318878Y0469678D02*
X0342501Y0469678D01*
X0342501Y0481489D01*
X0318878Y0481489D01*
X0389745Y0465741D02*
X0389745Y0434245D01*
X0409036Y0434245D01*
X0429084Y0414215D02*
X0429084Y0385475D01*
X0446013Y0385475D02*
X0446013Y0414215D01*
X0453884Y0414215D02*
X0453884Y0385475D01*
X0470813Y0385475D02*
X0470813Y0414215D01*
X0483178Y0393910D02*
X0511919Y0393910D01*
X0511919Y0376980D02*
X0483178Y0376980D01*
X0491178Y0369310D02*
X0519919Y0369310D01*
X0519919Y0352380D02*
X0491178Y0352380D01*
X0464849Y0300845D02*
X0424849Y0300845D01*
X0409036Y0294875D02*
X0360217Y0294875D01*
X0360217Y0267316D01*
X0409036Y0267316D01*
X0400375Y0231883D02*
X0337382Y0231883D01*
X0337382Y0157867D01*
X0322815Y0157867D02*
X0322815Y0216135D01*
X0271634Y0216135D01*
X0271634Y0157867D01*
X0248012Y0157867D02*
X0248012Y0216135D01*
X0196831Y0216135D01*
X0196831Y0158654D01*
X0320847Y0306686D02*
X0320847Y0318497D01*
X0344469Y0318497D01*
X0344469Y0306686D02*
X0320847Y0306686D01*
X0357367Y0340429D02*
X0409730Y0340429D01*
X0409730Y0388461D01*
X0357367Y0388461D01*
X0357367Y0340429D01*
X0366123Y0338182D02*
X0409036Y0338182D01*
X0407461Y0318497D02*
X0387776Y0318497D01*
X0387776Y0306686D02*
X0407461Y0306686D01*
X0407461Y0318497D01*
X0366123Y0338182D02*
X0366123Y0397237D01*
X0409036Y0397237D01*
X0347713Y0400215D02*
X0347713Y0371475D01*
X0330784Y0371475D02*
X0330784Y0400215D01*
X0321813Y0400215D02*
X0321813Y0371475D01*
X0304884Y0371475D02*
X0304884Y0400215D01*
X0297013Y0400215D02*
X0297013Y0371475D01*
X0280084Y0371475D02*
X0280084Y0400215D01*
X0389745Y0465741D02*
X0409036Y0465741D01*
X0400375Y0231883D02*
X0400375Y0158261D01*
X0103642Y0325376D02*
X0080020Y0325376D01*
X0080020Y0359235D01*
X0103642Y0359235D01*
X0103642Y0325376D01*
X0097892Y0355691D02*
X0097894Y0355766D01*
X0097900Y0355841D01*
X0097910Y0355915D01*
X0097924Y0355989D01*
X0097941Y0356062D01*
X0097963Y0356133D01*
X0097988Y0356204D01*
X0098017Y0356273D01*
X0098049Y0356341D01*
X0098085Y0356406D01*
X0098125Y0356470D01*
X0098168Y0356532D01*
X0098214Y0356591D01*
X0098263Y0356648D01*
X0098315Y0356702D01*
X0098369Y0356753D01*
X0098427Y0356801D01*
X0098486Y0356846D01*
X0098549Y0356888D01*
X0098613Y0356927D01*
X0098679Y0356962D01*
X0098747Y0356994D01*
X0098817Y0357022D01*
X0098887Y0357046D01*
X0098960Y0357067D01*
X0099033Y0357083D01*
X0099107Y0357096D01*
X0099181Y0357105D01*
X0099256Y0357110D01*
X0099331Y0357111D01*
X0099406Y0357108D01*
X0099480Y0357101D01*
X0099554Y0357090D01*
X0099628Y0357075D01*
X0099701Y0357057D01*
X0099772Y0357034D01*
X0099842Y0357008D01*
X0099911Y0356978D01*
X0099978Y0356945D01*
X0100044Y0356908D01*
X0100107Y0356868D01*
X0100168Y0356824D01*
X0100226Y0356777D01*
X0100282Y0356728D01*
X0100336Y0356675D01*
X0100386Y0356620D01*
X0100434Y0356562D01*
X0100478Y0356501D01*
X0100519Y0356439D01*
X0100557Y0356374D01*
X0100591Y0356307D01*
X0100622Y0356239D01*
X0100649Y0356169D01*
X0100673Y0356098D01*
X0100692Y0356025D01*
X0100708Y0355952D01*
X0100720Y0355878D01*
X0100728Y0355803D01*
X0100732Y0355728D01*
X0100732Y0355654D01*
X0100728Y0355579D01*
X0100720Y0355504D01*
X0100708Y0355430D01*
X0100692Y0355357D01*
X0100673Y0355284D01*
X0100649Y0355213D01*
X0100622Y0355143D01*
X0100591Y0355075D01*
X0100557Y0355008D01*
X0100519Y0354943D01*
X0100478Y0354881D01*
X0100434Y0354820D01*
X0100386Y0354762D01*
X0100336Y0354707D01*
X0100282Y0354654D01*
X0100226Y0354605D01*
X0100168Y0354558D01*
X0100107Y0354514D01*
X0100044Y0354474D01*
X0099978Y0354437D01*
X0099911Y0354404D01*
X0099842Y0354374D01*
X0099772Y0354348D01*
X0099701Y0354325D01*
X0099628Y0354307D01*
X0099554Y0354292D01*
X0099480Y0354281D01*
X0099406Y0354274D01*
X0099331Y0354271D01*
X0099256Y0354272D01*
X0099181Y0354277D01*
X0099107Y0354286D01*
X0099033Y0354299D01*
X0098960Y0354315D01*
X0098887Y0354336D01*
X0098817Y0354360D01*
X0098747Y0354388D01*
X0098679Y0354420D01*
X0098613Y0354455D01*
X0098549Y0354494D01*
X0098486Y0354536D01*
X0098427Y0354581D01*
X0098369Y0354629D01*
X0098315Y0354680D01*
X0098263Y0354734D01*
X0098214Y0354791D01*
X0098168Y0354850D01*
X0098125Y0354912D01*
X0098085Y0354976D01*
X0098049Y0355041D01*
X0098017Y0355109D01*
X0097988Y0355178D01*
X0097963Y0355249D01*
X0097941Y0355320D01*
X0097924Y0355393D01*
X0097910Y0355467D01*
X0097900Y0355541D01*
X0097894Y0355616D01*
X0097892Y0355691D01*
X0091354Y0364546D02*
X0079543Y0364546D01*
X0079543Y0377144D02*
X0091354Y0377144D01*
D13*
X0213466Y0462844D02*
X0213466Y0463328D01*
X0213950Y0463811D01*
X0216369Y0463811D01*
X0216369Y0463328D02*
X0216369Y0464295D01*
X0215885Y0465307D02*
X0215401Y0465307D01*
X0214917Y0465790D01*
X0214917Y0466758D01*
X0214434Y0467242D01*
X0213950Y0467242D01*
X0213466Y0466758D01*
X0213466Y0465790D01*
X0213950Y0465307D01*
X0214434Y0465307D01*
X0214917Y0465790D01*
X0214917Y0466758D02*
X0215401Y0467242D01*
X0215885Y0467242D01*
X0216369Y0466758D01*
X0216369Y0465790D01*
X0215885Y0465307D01*
X0213466Y0462844D02*
X0213950Y0462360D01*
X0217220Y0435543D02*
X0219689Y0435543D01*
X0220306Y0434926D01*
X0220306Y0433691D01*
X0219689Y0433074D01*
X0217220Y0433074D01*
X0216603Y0433691D01*
X0216603Y0434926D01*
X0217220Y0435543D01*
X0216603Y0431853D02*
X0216603Y0430619D01*
X0216603Y0431236D02*
X0220306Y0431236D01*
X0220306Y0430619D02*
X0220306Y0431853D01*
X0219689Y0429404D02*
X0220306Y0428787D01*
X0220306Y0426935D01*
X0216603Y0426935D01*
X0217838Y0426935D02*
X0217838Y0428787D01*
X0218455Y0429404D01*
X0219689Y0429404D01*
X0219689Y0425721D02*
X0220306Y0425104D01*
X0220306Y0423869D01*
X0219689Y0423252D01*
X0217220Y0423252D01*
X0216603Y0423869D01*
X0216603Y0425104D01*
X0217220Y0425721D01*
X0218455Y0425721D01*
X0218455Y0424487D01*
X0260710Y0462844D02*
X0260710Y0463328D01*
X0261194Y0463811D01*
X0263613Y0463811D01*
X0263613Y0463328D02*
X0263613Y0464295D01*
X0262162Y0465307D02*
X0262162Y0467242D01*
X0263613Y0466758D02*
X0262162Y0465307D01*
X0260710Y0466758D02*
X0263613Y0466758D01*
X0260710Y0462844D02*
X0261194Y0462360D01*
X0287515Y0460145D02*
X0287515Y0459528D01*
X0288749Y0458294D01*
X0288749Y0456442D01*
X0288749Y0458294D02*
X0289983Y0459528D01*
X0289983Y0460145D01*
X0291198Y0458911D02*
X0291198Y0456442D01*
X0291198Y0458294D02*
X0293666Y0458294D01*
X0293666Y0458911D02*
X0292432Y0460145D01*
X0291198Y0458911D01*
X0293666Y0458911D02*
X0293666Y0456442D01*
X0294881Y0456442D02*
X0297350Y0456442D01*
X0297350Y0460145D01*
X0298564Y0459528D02*
X0298564Y0458294D01*
X0299181Y0457677D01*
X0301033Y0457677D01*
X0302247Y0457677D02*
X0302247Y0457059D01*
X0302864Y0456442D01*
X0304099Y0456442D01*
X0304716Y0457059D01*
X0305937Y0456442D02*
X0307171Y0456442D01*
X0306554Y0456442D02*
X0306554Y0460145D01*
X0307171Y0460145D02*
X0305937Y0460145D01*
X0304716Y0459528D02*
X0304716Y0458911D01*
X0304099Y0458294D01*
X0302864Y0458294D01*
X0302247Y0457677D01*
X0301033Y0456442D02*
X0301033Y0460145D01*
X0299181Y0460145D01*
X0298564Y0459528D01*
X0302247Y0459528D02*
X0302864Y0460145D01*
X0304099Y0460145D01*
X0304716Y0459528D01*
X0308386Y0459528D02*
X0308386Y0457059D01*
X0309003Y0456442D01*
X0310854Y0456442D01*
X0310854Y0460145D01*
X0309003Y0460145D01*
X0308386Y0459528D01*
X0389229Y0431799D02*
X0389229Y0428096D01*
X0391698Y0431799D01*
X0391698Y0428096D01*
X0392919Y0428096D02*
X0394153Y0428096D01*
X0393536Y0428096D02*
X0393536Y0431799D01*
X0394153Y0431799D02*
X0392919Y0431799D01*
X0399051Y0431182D02*
X0399051Y0429947D01*
X0399668Y0429330D01*
X0401520Y0429330D01*
X0401520Y0428096D02*
X0401520Y0431799D01*
X0399668Y0431799D01*
X0399051Y0431182D01*
X0400285Y0429330D02*
X0399051Y0428096D01*
X0402734Y0428096D02*
X0402734Y0431799D01*
X0405203Y0431799D02*
X0405203Y0428096D01*
X0403968Y0429330D01*
X0402734Y0428096D01*
X0406417Y0429947D02*
X0407034Y0429330D01*
X0408886Y0429330D01*
X0408886Y0428096D02*
X0408886Y0431799D01*
X0407034Y0431799D01*
X0406417Y0431182D01*
X0406417Y0429947D01*
X0406076Y0465116D02*
X0405592Y0465600D01*
X0405592Y0466084D01*
X0406076Y0466567D01*
X0408495Y0466567D01*
X0408495Y0466084D02*
X0408495Y0467051D01*
X0407527Y0468063D02*
X0408495Y0469030D01*
X0405592Y0469030D01*
X0405592Y0468063D02*
X0405592Y0469998D01*
X0364794Y0342045D02*
X0364310Y0341077D01*
X0363343Y0340110D01*
X0363343Y0341561D01*
X0362859Y0342045D01*
X0362375Y0342045D01*
X0361891Y0341561D01*
X0361891Y0340594D01*
X0362375Y0340110D01*
X0363343Y0340110D01*
X0364794Y0339098D02*
X0364794Y0338131D01*
X0364794Y0338615D02*
X0362375Y0338615D01*
X0361891Y0338131D01*
X0361891Y0337647D01*
X0362375Y0337163D01*
X0361593Y0324712D02*
X0360976Y0324095D01*
X0360976Y0322861D01*
X0361593Y0322244D01*
X0363445Y0322244D01*
X0362210Y0322244D02*
X0360976Y0321009D01*
X0359762Y0321009D02*
X0359762Y0323478D01*
X0358527Y0324712D01*
X0357293Y0323478D01*
X0357293Y0321009D01*
X0357293Y0322861D02*
X0359762Y0322861D01*
X0361593Y0324712D02*
X0363445Y0324712D01*
X0363445Y0321009D01*
X0364659Y0321009D02*
X0367128Y0321009D01*
X0367128Y0324712D01*
X0364659Y0324712D01*
X0365893Y0322861D02*
X0367128Y0322861D01*
X0368342Y0324712D02*
X0368342Y0321009D01*
X0370811Y0321009D02*
X0370811Y0324712D01*
X0369577Y0323478D01*
X0368342Y0324712D01*
X0372025Y0323478D02*
X0372025Y0321009D01*
X0372025Y0322861D02*
X0374494Y0322861D01*
X0374494Y0323478D02*
X0373260Y0324712D01*
X0372025Y0323478D01*
X0374494Y0323478D02*
X0374494Y0321009D01*
X0375709Y0321626D02*
X0376326Y0321009D01*
X0377560Y0321009D01*
X0378177Y0321626D01*
X0378177Y0324095D01*
X0377560Y0324712D01*
X0376326Y0324712D01*
X0375709Y0324095D01*
X0395421Y0329277D02*
X0396655Y0329277D01*
X0396038Y0329277D02*
X0396038Y0332980D01*
X0396655Y0332980D02*
X0395421Y0332980D01*
X0397870Y0332980D02*
X0397870Y0329277D01*
X0400339Y0329277D02*
X0400339Y0332980D01*
X0399104Y0331746D01*
X0397870Y0332980D01*
X0401553Y0332363D02*
X0402170Y0332980D01*
X0404022Y0332980D01*
X0404022Y0329277D01*
X0402170Y0329277D01*
X0401553Y0329894D01*
X0401553Y0332363D01*
X0405236Y0332980D02*
X0405236Y0329277D01*
X0405236Y0331128D02*
X0407705Y0331128D01*
X0407705Y0329277D02*
X0407705Y0332980D01*
X0406470Y0300303D02*
X0405236Y0299068D01*
X0405236Y0296600D01*
X0404022Y0296600D02*
X0401553Y0300303D01*
X0400339Y0300303D02*
X0400339Y0297834D01*
X0399104Y0296600D01*
X0397870Y0297834D01*
X0397870Y0300303D01*
X0405236Y0298451D02*
X0407705Y0298451D01*
X0407705Y0299068D02*
X0406470Y0300303D01*
X0407705Y0299068D02*
X0407705Y0296600D01*
X0407758Y0266442D02*
X0407274Y0266442D01*
X0405339Y0264507D01*
X0404855Y0264507D01*
X0405339Y0263012D02*
X0404855Y0262528D01*
X0404855Y0262044D01*
X0405339Y0261560D01*
X0405339Y0263012D02*
X0407758Y0263012D01*
X0407758Y0263495D02*
X0407758Y0262528D01*
X0407758Y0264507D02*
X0407758Y0266442D01*
X0405409Y0193354D02*
X0405409Y0190886D01*
X0405409Y0189671D02*
X0405409Y0187202D01*
X0401706Y0187202D01*
X0401706Y0189671D01*
X0403557Y0188437D02*
X0403557Y0187202D01*
X0401706Y0185988D02*
X0405409Y0185988D01*
X0405409Y0183519D02*
X0401706Y0183519D01*
X0401706Y0182305D02*
X0402940Y0181071D01*
X0402940Y0181688D02*
X0402940Y0179836D01*
X0401706Y0179836D02*
X0405409Y0179836D01*
X0405409Y0181688D01*
X0404792Y0182305D01*
X0403557Y0182305D01*
X0402940Y0181688D01*
X0405409Y0183519D02*
X0401706Y0185988D01*
X0401706Y0192120D02*
X0405409Y0192120D01*
X0405409Y0178622D02*
X0405409Y0176153D01*
X0401706Y0176153D01*
X0401706Y0178622D01*
X0403557Y0177387D02*
X0403557Y0176153D01*
X0403557Y0174939D02*
X0403557Y0172470D01*
X0401706Y0172470D02*
X0405409Y0172470D01*
X0405409Y0171256D02*
X0405409Y0168787D01*
X0405409Y0167572D02*
X0405409Y0165104D01*
X0401706Y0165104D01*
X0401706Y0167572D01*
X0403557Y0166338D02*
X0403557Y0165104D01*
X0401706Y0170021D02*
X0405409Y0170021D01*
X0405409Y0174939D02*
X0401706Y0174939D01*
X0336104Y0166542D02*
X0335620Y0167026D01*
X0333685Y0165091D01*
X0333202Y0165575D01*
X0333202Y0166542D01*
X0333685Y0167026D01*
X0335620Y0167026D01*
X0336104Y0166542D02*
X0336104Y0165575D01*
X0335620Y0165091D01*
X0333685Y0165091D01*
X0333202Y0164080D02*
X0333202Y0162145D01*
X0333202Y0163112D02*
X0336104Y0163112D01*
X0335137Y0162145D01*
X0336104Y0161133D02*
X0336104Y0160166D01*
X0336104Y0160649D02*
X0333685Y0160649D01*
X0333202Y0160166D01*
X0333202Y0159682D01*
X0333685Y0159198D01*
X0327850Y0159198D02*
X0324764Y0159198D01*
X0324147Y0159815D01*
X0324147Y0161050D01*
X0324764Y0161667D01*
X0327850Y0161667D01*
X0327233Y0162881D02*
X0326615Y0162881D01*
X0325998Y0163498D01*
X0325998Y0164733D01*
X0325381Y0165350D01*
X0324764Y0165350D01*
X0324147Y0164733D01*
X0324147Y0163498D01*
X0324764Y0162881D01*
X0327233Y0162881D02*
X0327850Y0163498D01*
X0327850Y0164733D01*
X0327233Y0165350D01*
X0327850Y0166564D02*
X0327850Y0168416D01*
X0327233Y0169033D01*
X0326615Y0169033D01*
X0325998Y0168416D01*
X0325998Y0166564D01*
X0324147Y0166564D02*
X0324147Y0168416D01*
X0324764Y0169033D01*
X0325381Y0169033D01*
X0325998Y0168416D01*
X0324147Y0166564D02*
X0327850Y0166564D01*
X0270356Y0165665D02*
X0267454Y0165665D01*
X0267454Y0166632D02*
X0267454Y0164697D01*
X0267454Y0163686D02*
X0267454Y0161751D01*
X0267454Y0162718D02*
X0270356Y0162718D01*
X0269389Y0161751D01*
X0270356Y0160739D02*
X0270356Y0159772D01*
X0270356Y0160256D02*
X0267937Y0160256D01*
X0267454Y0159772D01*
X0267454Y0159288D01*
X0267937Y0158804D01*
X0269389Y0164697D02*
X0270356Y0165665D01*
X0253377Y0165101D02*
X0253377Y0163866D01*
X0252760Y0163249D01*
X0252143Y0163249D01*
X0251526Y0163866D01*
X0251526Y0165101D01*
X0250909Y0165718D01*
X0250291Y0165718D01*
X0249674Y0165101D01*
X0249674Y0163866D01*
X0250291Y0163249D01*
X0250291Y0162035D02*
X0253377Y0162035D01*
X0253377Y0159566D02*
X0250291Y0159566D01*
X0249674Y0160183D01*
X0249674Y0161418D01*
X0250291Y0162035D01*
X0253377Y0165101D02*
X0252760Y0165718D01*
X0253377Y0166932D02*
X0253377Y0168784D01*
X0252760Y0169401D01*
X0252143Y0169401D01*
X0251526Y0168784D01*
X0251526Y0166932D01*
X0253377Y0166932D02*
X0249674Y0166932D01*
X0249674Y0168784D01*
X0250291Y0169401D01*
X0250909Y0169401D01*
X0251526Y0168784D01*
X0195947Y0168331D02*
X0195463Y0167847D01*
X0195947Y0168331D02*
X0195947Y0169298D01*
X0195463Y0169782D01*
X0194979Y0169782D01*
X0193044Y0167847D01*
X0193044Y0169782D01*
X0193044Y0166836D02*
X0193044Y0164901D01*
X0193044Y0165868D02*
X0195947Y0165868D01*
X0194979Y0164901D01*
X0195947Y0163889D02*
X0195947Y0162921D01*
X0195947Y0163405D02*
X0193528Y0163405D01*
X0193044Y0162921D01*
X0193044Y0162438D01*
X0193528Y0161954D01*
X0323386Y0319828D02*
X0324353Y0319828D01*
X0324837Y0320312D01*
X0323870Y0321279D02*
X0323386Y0321279D01*
X0322902Y0320796D01*
X0322902Y0320312D01*
X0323386Y0319828D01*
X0323386Y0321279D02*
X0322902Y0321763D01*
X0322902Y0322247D01*
X0323386Y0322730D01*
X0324353Y0322730D01*
X0324837Y0322247D01*
X0325849Y0322730D02*
X0326816Y0322730D01*
X0326332Y0322730D02*
X0326332Y0320312D01*
X0326816Y0319828D01*
X0327300Y0319828D01*
X0327784Y0320312D01*
D14*
X0239135Y0322212D02*
X0232730Y0322212D01*
X0232730Y0319009D01*
X0233797Y0317941D01*
X0235932Y0317941D01*
X0237000Y0319009D01*
X0237000Y0322212D01*
X0235932Y0324387D02*
X0237000Y0325454D01*
X0237000Y0327589D01*
X0235932Y0328657D01*
X0234865Y0328657D01*
X0234865Y0324387D01*
X0235932Y0324387D02*
X0233797Y0324387D01*
X0232730Y0325454D01*
X0232730Y0327589D01*
X0232730Y0330832D02*
X0232730Y0332967D01*
X0232730Y0331900D02*
X0239135Y0331900D01*
X0239135Y0330832D01*
X0239135Y0341575D02*
X0232730Y0341575D01*
X0232730Y0344777D01*
X0233797Y0345845D01*
X0234865Y0345845D01*
X0235932Y0344777D01*
X0235932Y0341575D01*
X0235932Y0344777D02*
X0237000Y0345845D01*
X0238068Y0345845D01*
X0239135Y0344777D01*
X0239135Y0341575D01*
X0239135Y0354466D02*
X0234865Y0354466D01*
X0232730Y0356601D01*
X0234865Y0358736D01*
X0239135Y0358736D01*
X0237000Y0360911D02*
X0239135Y0363046D01*
X0232730Y0363046D01*
X0232730Y0360911D02*
X0232730Y0365182D01*
X0232730Y0367357D02*
X0232730Y0368424D01*
X0233797Y0368424D01*
X0233797Y0367357D01*
X0232730Y0367357D01*
X0232730Y0370579D02*
X0232730Y0374850D01*
X0232730Y0372715D02*
X0239135Y0372715D01*
X0237000Y0370579D01*
X0235932Y0315766D02*
X0237000Y0314698D01*
X0237000Y0312563D01*
X0235932Y0311496D01*
X0233797Y0311496D01*
X0232730Y0312563D01*
X0232730Y0314698D01*
X0233797Y0315766D01*
X0235932Y0315766D01*
X0232730Y0309321D02*
X0239135Y0309321D01*
X0237000Y0307185D01*
X0239135Y0305050D01*
X0232730Y0305050D01*
X0232730Y0296430D02*
X0232730Y0292159D01*
X0237000Y0296430D01*
X0238068Y0296430D01*
X0239135Y0295362D01*
X0239135Y0293227D01*
X0238068Y0292159D01*
X0232730Y0283552D02*
X0232730Y0281417D01*
X0232730Y0282484D02*
X0237000Y0282484D01*
X0237000Y0281417D01*
X0239135Y0282484D02*
X0240203Y0282484D01*
X0238068Y0279242D02*
X0235932Y0279242D01*
X0234865Y0278174D01*
X0234865Y0274971D01*
X0232730Y0274971D02*
X0239135Y0274971D01*
X0239135Y0278174D01*
X0238068Y0279242D01*
X0237000Y0266351D02*
X0231662Y0266351D01*
X0230595Y0265283D01*
X0230595Y0264215D01*
X0232730Y0263148D02*
X0232730Y0266351D01*
X0232730Y0263148D02*
X0233797Y0262080D01*
X0237000Y0262080D01*
X0237000Y0259912D02*
X0237000Y0258844D01*
X0234865Y0256709D01*
X0232730Y0256709D02*
X0237000Y0256709D01*
X0237000Y0254541D02*
X0237000Y0253473D01*
X0234865Y0251338D01*
X0232730Y0251338D02*
X0237000Y0251338D01*
X0235932Y0249163D02*
X0234865Y0249163D01*
X0234865Y0244892D01*
X0235932Y0244892D02*
X0237000Y0245960D01*
X0237000Y0248095D01*
X0235932Y0249163D01*
X0232730Y0248095D02*
X0232730Y0245960D01*
X0233797Y0244892D01*
X0235932Y0244892D01*
X0235932Y0242717D02*
X0237000Y0241650D01*
X0237000Y0238447D01*
X0239135Y0238447D02*
X0232730Y0238447D01*
X0232730Y0241650D01*
X0233797Y0242717D01*
X0235932Y0242717D01*
X0235932Y0236272D02*
X0233797Y0236272D01*
X0232730Y0235204D01*
X0232730Y0232001D01*
X0230595Y0232001D02*
X0237000Y0232001D01*
X0237000Y0235204D01*
X0235932Y0236272D01*
X0237000Y0229826D02*
X0237000Y0226623D01*
X0235932Y0225556D01*
X0234865Y0226623D01*
X0234865Y0228759D01*
X0233797Y0229826D01*
X0232730Y0228759D01*
X0232730Y0225556D01*
X0232730Y0223381D02*
X0232730Y0220178D01*
X0233797Y0219110D01*
X0234865Y0220178D01*
X0234865Y0223381D01*
X0235932Y0223381D02*
X0232730Y0223381D01*
X0235932Y0223381D02*
X0237000Y0222313D01*
X0237000Y0220178D01*
X0238068Y0216935D02*
X0235932Y0216935D01*
X0234865Y0215868D01*
X0234865Y0212665D01*
X0234865Y0214800D02*
X0232730Y0216935D01*
X0232730Y0212665D02*
X0239135Y0212665D01*
X0239135Y0215868D01*
X0238068Y0216935D01*
X0479485Y0307753D02*
X0479485Y0310115D01*
X0484209Y0310115D02*
X0484209Y0307753D01*
D15*
X0370649Y0313045D02*
X0370649Y0299745D01*
X0370649Y0313045D02*
X0330649Y0313045D01*
X0330649Y0299745D01*
X0321349Y0294945D02*
X0321349Y0281645D01*
X0321349Y0294945D02*
X0281349Y0294945D01*
X0281349Y0281645D01*
X0286349Y0289145D02*
X0286351Y0289244D01*
X0286357Y0289344D01*
X0286367Y0289443D01*
X0286381Y0289541D01*
X0286398Y0289639D01*
X0286420Y0289736D01*
X0286445Y0289832D01*
X0286474Y0289927D01*
X0286507Y0290021D01*
X0286544Y0290113D01*
X0286584Y0290204D01*
X0286628Y0290293D01*
X0286676Y0290381D01*
X0286727Y0290466D01*
X0286781Y0290549D01*
X0286838Y0290631D01*
X0286899Y0290709D01*
X0286963Y0290786D01*
X0287029Y0290859D01*
X0287099Y0290930D01*
X0287171Y0290998D01*
X0287246Y0291064D01*
X0287324Y0291126D01*
X0287404Y0291185D01*
X0287486Y0291241D01*
X0287570Y0291293D01*
X0287657Y0291342D01*
X0287745Y0291388D01*
X0287835Y0291430D01*
X0287927Y0291469D01*
X0288020Y0291504D01*
X0288114Y0291535D01*
X0288210Y0291562D01*
X0288307Y0291585D01*
X0288404Y0291605D01*
X0288502Y0291621D01*
X0288601Y0291633D01*
X0288700Y0291641D01*
X0288799Y0291645D01*
X0288899Y0291645D01*
X0288998Y0291641D01*
X0289097Y0291633D01*
X0289196Y0291621D01*
X0289294Y0291605D01*
X0289391Y0291585D01*
X0289488Y0291562D01*
X0289584Y0291535D01*
X0289678Y0291504D01*
X0289771Y0291469D01*
X0289863Y0291430D01*
X0289953Y0291388D01*
X0290041Y0291342D01*
X0290128Y0291293D01*
X0290212Y0291241D01*
X0290294Y0291185D01*
X0290374Y0291126D01*
X0290452Y0291064D01*
X0290527Y0290998D01*
X0290599Y0290930D01*
X0290669Y0290859D01*
X0290735Y0290786D01*
X0290799Y0290709D01*
X0290860Y0290631D01*
X0290917Y0290549D01*
X0290971Y0290466D01*
X0291022Y0290381D01*
X0291070Y0290293D01*
X0291114Y0290204D01*
X0291154Y0290113D01*
X0291191Y0290021D01*
X0291224Y0289927D01*
X0291253Y0289832D01*
X0291278Y0289736D01*
X0291300Y0289639D01*
X0291317Y0289541D01*
X0291331Y0289443D01*
X0291341Y0289344D01*
X0291347Y0289244D01*
X0291349Y0289145D01*
X0291347Y0289046D01*
X0291341Y0288946D01*
X0291331Y0288847D01*
X0291317Y0288749D01*
X0291300Y0288651D01*
X0291278Y0288554D01*
X0291253Y0288458D01*
X0291224Y0288363D01*
X0291191Y0288269D01*
X0291154Y0288177D01*
X0291114Y0288086D01*
X0291070Y0287997D01*
X0291022Y0287909D01*
X0290971Y0287824D01*
X0290917Y0287741D01*
X0290860Y0287659D01*
X0290799Y0287581D01*
X0290735Y0287504D01*
X0290669Y0287431D01*
X0290599Y0287360D01*
X0290527Y0287292D01*
X0290452Y0287226D01*
X0290374Y0287164D01*
X0290294Y0287105D01*
X0290212Y0287049D01*
X0290128Y0286997D01*
X0290041Y0286948D01*
X0289953Y0286902D01*
X0289863Y0286860D01*
X0289771Y0286821D01*
X0289678Y0286786D01*
X0289584Y0286755D01*
X0289488Y0286728D01*
X0289391Y0286705D01*
X0289294Y0286685D01*
X0289196Y0286669D01*
X0289097Y0286657D01*
X0288998Y0286649D01*
X0288899Y0286645D01*
X0288799Y0286645D01*
X0288700Y0286649D01*
X0288601Y0286657D01*
X0288502Y0286669D01*
X0288404Y0286685D01*
X0288307Y0286705D01*
X0288210Y0286728D01*
X0288114Y0286755D01*
X0288020Y0286786D01*
X0287927Y0286821D01*
X0287835Y0286860D01*
X0287745Y0286902D01*
X0287657Y0286948D01*
X0287570Y0286997D01*
X0287486Y0287049D01*
X0287404Y0287105D01*
X0287324Y0287164D01*
X0287246Y0287226D01*
X0287171Y0287292D01*
X0287099Y0287360D01*
X0287029Y0287431D01*
X0286963Y0287504D01*
X0286899Y0287581D01*
X0286838Y0287659D01*
X0286781Y0287741D01*
X0286727Y0287824D01*
X0286676Y0287909D01*
X0286628Y0287997D01*
X0286584Y0288086D01*
X0286544Y0288177D01*
X0286507Y0288269D01*
X0286474Y0288363D01*
X0286445Y0288458D01*
X0286420Y0288554D01*
X0286398Y0288651D01*
X0286381Y0288749D01*
X0286367Y0288847D01*
X0286357Y0288946D01*
X0286351Y0289046D01*
X0286349Y0289145D01*
X0273749Y0272745D02*
X0273749Y0259445D01*
X0273749Y0272745D02*
X0233749Y0272745D01*
X0233749Y0259445D01*
X0238749Y0266945D02*
X0238751Y0267044D01*
X0238757Y0267144D01*
X0238767Y0267243D01*
X0238781Y0267341D01*
X0238798Y0267439D01*
X0238820Y0267536D01*
X0238845Y0267632D01*
X0238874Y0267727D01*
X0238907Y0267821D01*
X0238944Y0267913D01*
X0238984Y0268004D01*
X0239028Y0268093D01*
X0239076Y0268181D01*
X0239127Y0268266D01*
X0239181Y0268349D01*
X0239238Y0268431D01*
X0239299Y0268509D01*
X0239363Y0268586D01*
X0239429Y0268659D01*
X0239499Y0268730D01*
X0239571Y0268798D01*
X0239646Y0268864D01*
X0239724Y0268926D01*
X0239804Y0268985D01*
X0239886Y0269041D01*
X0239970Y0269093D01*
X0240057Y0269142D01*
X0240145Y0269188D01*
X0240235Y0269230D01*
X0240327Y0269269D01*
X0240420Y0269304D01*
X0240514Y0269335D01*
X0240610Y0269362D01*
X0240707Y0269385D01*
X0240804Y0269405D01*
X0240902Y0269421D01*
X0241001Y0269433D01*
X0241100Y0269441D01*
X0241199Y0269445D01*
X0241299Y0269445D01*
X0241398Y0269441D01*
X0241497Y0269433D01*
X0241596Y0269421D01*
X0241694Y0269405D01*
X0241791Y0269385D01*
X0241888Y0269362D01*
X0241984Y0269335D01*
X0242078Y0269304D01*
X0242171Y0269269D01*
X0242263Y0269230D01*
X0242353Y0269188D01*
X0242441Y0269142D01*
X0242528Y0269093D01*
X0242612Y0269041D01*
X0242694Y0268985D01*
X0242774Y0268926D01*
X0242852Y0268864D01*
X0242927Y0268798D01*
X0242999Y0268730D01*
X0243069Y0268659D01*
X0243135Y0268586D01*
X0243199Y0268509D01*
X0243260Y0268431D01*
X0243317Y0268349D01*
X0243371Y0268266D01*
X0243422Y0268181D01*
X0243470Y0268093D01*
X0243514Y0268004D01*
X0243554Y0267913D01*
X0243591Y0267821D01*
X0243624Y0267727D01*
X0243653Y0267632D01*
X0243678Y0267536D01*
X0243700Y0267439D01*
X0243717Y0267341D01*
X0243731Y0267243D01*
X0243741Y0267144D01*
X0243747Y0267044D01*
X0243749Y0266945D01*
X0243747Y0266846D01*
X0243741Y0266746D01*
X0243731Y0266647D01*
X0243717Y0266549D01*
X0243700Y0266451D01*
X0243678Y0266354D01*
X0243653Y0266258D01*
X0243624Y0266163D01*
X0243591Y0266069D01*
X0243554Y0265977D01*
X0243514Y0265886D01*
X0243470Y0265797D01*
X0243422Y0265709D01*
X0243371Y0265624D01*
X0243317Y0265541D01*
X0243260Y0265459D01*
X0243199Y0265381D01*
X0243135Y0265304D01*
X0243069Y0265231D01*
X0242999Y0265160D01*
X0242927Y0265092D01*
X0242852Y0265026D01*
X0242774Y0264964D01*
X0242694Y0264905D01*
X0242612Y0264849D01*
X0242528Y0264797D01*
X0242441Y0264748D01*
X0242353Y0264702D01*
X0242263Y0264660D01*
X0242171Y0264621D01*
X0242078Y0264586D01*
X0241984Y0264555D01*
X0241888Y0264528D01*
X0241791Y0264505D01*
X0241694Y0264485D01*
X0241596Y0264469D01*
X0241497Y0264457D01*
X0241398Y0264449D01*
X0241299Y0264445D01*
X0241199Y0264445D01*
X0241100Y0264449D01*
X0241001Y0264457D01*
X0240902Y0264469D01*
X0240804Y0264485D01*
X0240707Y0264505D01*
X0240610Y0264528D01*
X0240514Y0264555D01*
X0240420Y0264586D01*
X0240327Y0264621D01*
X0240235Y0264660D01*
X0240145Y0264702D01*
X0240057Y0264748D01*
X0239970Y0264797D01*
X0239886Y0264849D01*
X0239804Y0264905D01*
X0239724Y0264964D01*
X0239646Y0265026D01*
X0239571Y0265092D01*
X0239499Y0265160D01*
X0239429Y0265231D01*
X0239363Y0265304D01*
X0239299Y0265381D01*
X0239238Y0265459D01*
X0239181Y0265541D01*
X0239127Y0265624D01*
X0239076Y0265709D01*
X0239028Y0265797D01*
X0238984Y0265886D01*
X0238944Y0265977D01*
X0238907Y0266069D01*
X0238874Y0266163D01*
X0238845Y0266258D01*
X0238820Y0266354D01*
X0238798Y0266451D01*
X0238781Y0266549D01*
X0238767Y0266647D01*
X0238757Y0266746D01*
X0238751Y0266846D01*
X0238749Y0266945D01*
X0335649Y0307245D02*
X0335651Y0307344D01*
X0335657Y0307444D01*
X0335667Y0307543D01*
X0335681Y0307641D01*
X0335698Y0307739D01*
X0335720Y0307836D01*
X0335745Y0307932D01*
X0335774Y0308027D01*
X0335807Y0308121D01*
X0335844Y0308213D01*
X0335884Y0308304D01*
X0335928Y0308393D01*
X0335976Y0308481D01*
X0336027Y0308566D01*
X0336081Y0308649D01*
X0336138Y0308731D01*
X0336199Y0308809D01*
X0336263Y0308886D01*
X0336329Y0308959D01*
X0336399Y0309030D01*
X0336471Y0309098D01*
X0336546Y0309164D01*
X0336624Y0309226D01*
X0336704Y0309285D01*
X0336786Y0309341D01*
X0336870Y0309393D01*
X0336957Y0309442D01*
X0337045Y0309488D01*
X0337135Y0309530D01*
X0337227Y0309569D01*
X0337320Y0309604D01*
X0337414Y0309635D01*
X0337510Y0309662D01*
X0337607Y0309685D01*
X0337704Y0309705D01*
X0337802Y0309721D01*
X0337901Y0309733D01*
X0338000Y0309741D01*
X0338099Y0309745D01*
X0338199Y0309745D01*
X0338298Y0309741D01*
X0338397Y0309733D01*
X0338496Y0309721D01*
X0338594Y0309705D01*
X0338691Y0309685D01*
X0338788Y0309662D01*
X0338884Y0309635D01*
X0338978Y0309604D01*
X0339071Y0309569D01*
X0339163Y0309530D01*
X0339253Y0309488D01*
X0339341Y0309442D01*
X0339428Y0309393D01*
X0339512Y0309341D01*
X0339594Y0309285D01*
X0339674Y0309226D01*
X0339752Y0309164D01*
X0339827Y0309098D01*
X0339899Y0309030D01*
X0339969Y0308959D01*
X0340035Y0308886D01*
X0340099Y0308809D01*
X0340160Y0308731D01*
X0340217Y0308649D01*
X0340271Y0308566D01*
X0340322Y0308481D01*
X0340370Y0308393D01*
X0340414Y0308304D01*
X0340454Y0308213D01*
X0340491Y0308121D01*
X0340524Y0308027D01*
X0340553Y0307932D01*
X0340578Y0307836D01*
X0340600Y0307739D01*
X0340617Y0307641D01*
X0340631Y0307543D01*
X0340641Y0307444D01*
X0340647Y0307344D01*
X0340649Y0307245D01*
X0340647Y0307146D01*
X0340641Y0307046D01*
X0340631Y0306947D01*
X0340617Y0306849D01*
X0340600Y0306751D01*
X0340578Y0306654D01*
X0340553Y0306558D01*
X0340524Y0306463D01*
X0340491Y0306369D01*
X0340454Y0306277D01*
X0340414Y0306186D01*
X0340370Y0306097D01*
X0340322Y0306009D01*
X0340271Y0305924D01*
X0340217Y0305841D01*
X0340160Y0305759D01*
X0340099Y0305681D01*
X0340035Y0305604D01*
X0339969Y0305531D01*
X0339899Y0305460D01*
X0339827Y0305392D01*
X0339752Y0305326D01*
X0339674Y0305264D01*
X0339594Y0305205D01*
X0339512Y0305149D01*
X0339428Y0305097D01*
X0339341Y0305048D01*
X0339253Y0305002D01*
X0339163Y0304960D01*
X0339071Y0304921D01*
X0338978Y0304886D01*
X0338884Y0304855D01*
X0338788Y0304828D01*
X0338691Y0304805D01*
X0338594Y0304785D01*
X0338496Y0304769D01*
X0338397Y0304757D01*
X0338298Y0304749D01*
X0338199Y0304745D01*
X0338099Y0304745D01*
X0338000Y0304749D01*
X0337901Y0304757D01*
X0337802Y0304769D01*
X0337704Y0304785D01*
X0337607Y0304805D01*
X0337510Y0304828D01*
X0337414Y0304855D01*
X0337320Y0304886D01*
X0337227Y0304921D01*
X0337135Y0304960D01*
X0337045Y0305002D01*
X0336957Y0305048D01*
X0336870Y0305097D01*
X0336786Y0305149D01*
X0336704Y0305205D01*
X0336624Y0305264D01*
X0336546Y0305326D01*
X0336471Y0305392D01*
X0336399Y0305460D01*
X0336329Y0305531D01*
X0336263Y0305604D01*
X0336199Y0305681D01*
X0336138Y0305759D01*
X0336081Y0305841D01*
X0336027Y0305924D01*
X0335976Y0306009D01*
X0335928Y0306097D01*
X0335884Y0306186D01*
X0335844Y0306277D01*
X0335807Y0306369D01*
X0335774Y0306463D01*
X0335745Y0306558D01*
X0335720Y0306654D01*
X0335698Y0306751D01*
X0335681Y0306849D01*
X0335667Y0306947D01*
X0335657Y0307046D01*
X0335651Y0307146D01*
X0335649Y0307245D01*
D16*
X0340649Y0317795D03*
X0350649Y0317795D03*
X0360649Y0317795D03*
X0311349Y0299695D03*
X0301349Y0299695D03*
X0291349Y0299695D03*
X0263749Y0277495D03*
X0253749Y0277495D03*
X0243749Y0277495D03*
D17*
X0392356Y0395461D02*
X0418341Y0395461D01*
X0418341Y0444280D01*
X0392356Y0444280D01*
X0392356Y0395461D01*
D18*
X0353352Y0356526D02*
X0348749Y0356526D01*
X0351051Y0356526D02*
X0351051Y0353457D01*
X0351818Y0351922D02*
X0348749Y0351922D01*
X0348749Y0349620D01*
X0349516Y0348853D01*
X0351818Y0348853D01*
X0351051Y0347318D02*
X0349516Y0347318D01*
X0348749Y0346551D01*
X0348749Y0345016D01*
X0349516Y0344249D01*
X0351051Y0344249D02*
X0351818Y0345784D01*
X0351818Y0346551D01*
X0351051Y0347318D01*
X0353352Y0347318D02*
X0353352Y0344249D01*
X0351051Y0344249D01*
X0348749Y0342714D02*
X0348749Y0339645D01*
X0348749Y0341180D02*
X0353352Y0341180D01*
X0351818Y0339645D01*
X0353352Y0353457D02*
X0348749Y0353457D01*
X0412981Y0345784D02*
X0419120Y0345784D01*
X0418352Y0346551D02*
X0417585Y0347318D01*
X0418352Y0346551D02*
X0418352Y0345016D01*
X0417585Y0344249D01*
X0416818Y0344249D01*
X0416051Y0345016D01*
X0416051Y0346551D01*
X0415283Y0347318D01*
X0414516Y0347318D01*
X0413749Y0346551D01*
X0413749Y0345016D01*
X0414516Y0344249D01*
X0414516Y0342714D02*
X0418352Y0342714D01*
X0418352Y0339645D02*
X0414516Y0339645D01*
X0413749Y0340412D01*
X0413749Y0341947D01*
X0414516Y0342714D01*
X0414516Y0348853D02*
X0413749Y0349620D01*
X0413749Y0351155D01*
X0414516Y0351922D01*
X0415283Y0351922D01*
X0416051Y0351155D01*
X0416051Y0348853D01*
X0414516Y0348853D01*
X0416051Y0348853D02*
X0417585Y0350387D01*
X0418352Y0351922D01*
X0470049Y0307649D02*
X0470816Y0307649D01*
X0473885Y0310718D01*
X0474652Y0310718D01*
X0474652Y0307649D01*
X0474652Y0306114D02*
X0470816Y0306114D01*
X0470049Y0305347D01*
X0470049Y0303812D01*
X0470816Y0303045D01*
X0474652Y0303045D01*
M02*
