%
M48
M72
T01C0.02362
T02C0.03600
T03C0.04000
T04C0.10827
%
T01
X114049Y187245
X169449Y188145
X167049Y278345
X113449Y277845
X119649Y338745
X119649Y357945
X101549Y365845
X87049Y365845
X87049Y358845
X96799Y383095
X127749Y390945
X170549Y408745
X225249Y460745
X233349Y399945
X249249Y366945
X352849Y449945
X296249Y514745
X444049Y442645
X423549Y355845
X439549Y347845
X454549Y347845
X432549Y313445
X393549Y352745
X376549Y340845
X297149Y224145
X444849Y186245
T02
X508549Y194845
X518549Y194845
X518549Y204845
X518549Y214845
X518549Y224845
X518549Y234845
X518549Y244845
X518549Y254845
X518549Y264845
X518549Y274845
X518549Y284845
X518549Y294845
X518549Y304845
X518549Y314845
X518549Y324845
X518549Y334845
X508549Y334845
X508549Y324845
X508549Y314845
X508549Y304845
X508549Y294845
X508549Y284845
X508549Y274845
X508549Y264845
X508549Y254845
X508549Y244845
X508549Y234845
X508549Y224845
X508549Y214845
X508549Y204845
T03
X334349Y438745
X334349Y448745
X334349Y458745
X334349Y468745
X264349Y468745
X264349Y478745
X264349Y458745
X264349Y448745
X264349Y438745
X264349Y428745
X207730Y428825
X207730Y438825
X197730Y438825
X197730Y428825
X197730Y418825
X207730Y418825
X207730Y408825
X197730Y408825
X197730Y398825
X207730Y398825
X207730Y388825
X197730Y388825
X197730Y378825
X207730Y378825
X207730Y368825
X207730Y358825
X197730Y358825
X197730Y368825
X197730Y348825
X207730Y348825
X207730Y338825
X197730Y338825
X197730Y328825
X207730Y328825
X207730Y318825
X197730Y318825
X197730Y308825
X207730Y308825
X207730Y298825
X197730Y298825
X197730Y288825
X207730Y288825
X207730Y278825
X197730Y278825
X197730Y268825
X207730Y268825
X68549Y264845
X68549Y254845
X58549Y254845
X58549Y264845
X58549Y274845
X68549Y274845
X68549Y284845
X68549Y294845
X58549Y294845
X58549Y284845
X58549Y304845
X68549Y304845
X68549Y314845
X58549Y314845
X58549Y324845
X68549Y324845
X68549Y334845
X58549Y334845
X58549Y344845
X68549Y344845
X68549Y354845
X58549Y354845
X58549Y364845
X68549Y364845
X68549Y374845
X58549Y374845
X58549Y384845
X68549Y384845
X197730Y448825
X207730Y448825
X207737Y458773
X197730Y458825
X68549Y244845
X58549Y244845
X58549Y234845
X68549Y234845
X68549Y224845
X68549Y214845
X58549Y214845
X58549Y224845
X58549Y204845
X68549Y204845
X68549Y194845
X58549Y194845
T04
X202737Y249599
X395650Y249599
X395650Y477946
X202737Y477946
M30
