G75*
%MOIN*%
%OFA0B0*%
%FSLAX25Y25*%
%IPPOS*%
%LPD*%
%AMOC8*
5,1,8,0,0,1.08239X$1,22.5*
%
%ADD10C,0.01600*%
%ADD11C,0.00000*%
%ADD12R,0.06000X0.06000*%
%ADD13C,0.06000*%
%ADD14R,0.07400X0.07400*%
%ADD15C,0.07400*%
%ADD16OC8,0.06000*%
%ADD17C,0.05400*%
%ADD18OC8,0.05400*%
%ADD19C,0.00500*%
%ADD20R,0.01819X0.04331*%
%ADD21R,0.02756X0.03937*%
%ADD22R,0.04331X0.03937*%
%ADD23C,0.03762*%
%ADD24C,0.01000*%
%ADD25C,0.03200*%
%ADD26C,0.02400*%
D10*
X0058905Y0179884D02*
X0048884Y0190305D01*
X0048884Y0388295D01*
X0190305Y0529716D01*
X0388295Y0529716D01*
X0529716Y0388295D01*
X0529716Y0190305D01*
X0518095Y0179184D01*
X0518195Y0179316D02*
X0059005Y0179916D01*
X0060195Y0183015D02*
X0051984Y0191554D01*
X0051984Y0387011D01*
X0191589Y0526616D01*
X0387011Y0526616D01*
X0526616Y0387011D01*
X0526616Y0191629D01*
X0516991Y0182418D01*
X0060195Y0183015D01*
X0059629Y0183603D02*
X0442850Y0183603D01*
X0442990Y0183463D02*
X0444196Y0182964D01*
X0445501Y0182964D01*
X0446707Y0183463D01*
X0447630Y0184386D01*
X0448130Y0185592D01*
X0448130Y0186898D01*
X0447630Y0188104D01*
X0446707Y0189027D01*
X0445501Y0189526D01*
X0444196Y0189526D01*
X0442990Y0189027D01*
X0442067Y0188104D01*
X0441567Y0186898D01*
X0441567Y0185592D01*
X0442067Y0184386D01*
X0442990Y0183463D01*
X0441729Y0185202D02*
X0170917Y0185202D01*
X0171307Y0185363D02*
X0172230Y0186286D01*
X0172730Y0187492D01*
X0172730Y0188798D01*
X0172230Y0190004D01*
X0171307Y0190927D01*
X0170101Y0191426D01*
X0168796Y0191426D01*
X0167590Y0190927D01*
X0166667Y0190004D01*
X0166167Y0188798D01*
X0166167Y0187492D01*
X0166667Y0186286D01*
X0167590Y0185363D01*
X0168796Y0184864D01*
X0170101Y0184864D01*
X0171307Y0185363D01*
X0172443Y0186800D02*
X0441567Y0186800D01*
X0442362Y0188399D02*
X0172730Y0188399D01*
X0172233Y0189997D02*
X0524911Y0189997D01*
X0523241Y0188399D02*
X0447335Y0188399D01*
X0448130Y0186800D02*
X0521570Y0186800D01*
X0519900Y0185202D02*
X0447968Y0185202D01*
X0446847Y0183603D02*
X0518230Y0183603D01*
X0518449Y0190345D02*
X0518449Y0194745D01*
X0518649Y0194745D01*
X0518649Y0194945D01*
X0523049Y0194945D01*
X0523049Y0196709D01*
X0520412Y0199345D01*
X0518649Y0199345D01*
X0518649Y0194945D01*
X0518449Y0194945D01*
X0518449Y0199345D01*
X0516685Y0199345D01*
X0514049Y0196709D01*
X0514049Y0194945D01*
X0518448Y0194945D01*
X0518448Y0194745D01*
X0514049Y0194745D01*
X0514049Y0192981D01*
X0516685Y0190345D01*
X0518449Y0190345D01*
X0518649Y0190345D02*
X0520412Y0190345D01*
X0523049Y0192981D01*
X0523049Y0194745D01*
X0518649Y0194745D01*
X0518649Y0190345D01*
X0518649Y0191596D02*
X0518449Y0191596D01*
X0518449Y0193194D02*
X0518649Y0193194D01*
X0518649Y0194793D02*
X0526616Y0194793D01*
X0526616Y0196391D02*
X0523049Y0196391D01*
X0521768Y0197990D02*
X0526616Y0197990D01*
X0526616Y0199588D02*
X0070593Y0199588D01*
X0070537Y0199645D02*
X0068749Y0199645D01*
X0068749Y0195045D01*
X0073349Y0195045D01*
X0073349Y0196833D01*
X0070537Y0199645D01*
X0070537Y0200045D02*
X0073349Y0202857D01*
X0073349Y0204645D01*
X0068749Y0204645D01*
X0068749Y0205045D01*
X0073349Y0205045D01*
X0073349Y0206833D01*
X0070537Y0209645D01*
X0068749Y0209645D01*
X0068749Y0205045D01*
X0068349Y0205045D01*
X0068349Y0209645D01*
X0066560Y0209645D01*
X0063749Y0206833D01*
X0063749Y0205045D01*
X0068348Y0205045D01*
X0068348Y0204645D01*
X0063749Y0204645D01*
X0063749Y0202857D01*
X0066560Y0200045D01*
X0068349Y0200045D01*
X0068349Y0204645D01*
X0068749Y0204645D01*
X0068749Y0200045D01*
X0070537Y0200045D01*
X0071679Y0201187D02*
X0505843Y0201187D01*
X0506685Y0200345D02*
X0504049Y0202981D01*
X0504049Y0204745D01*
X0508448Y0204745D01*
X0508448Y0204945D01*
X0504049Y0204945D01*
X0504049Y0206709D01*
X0506685Y0209345D01*
X0508449Y0209345D01*
X0508449Y0204945D01*
X0508649Y0204945D01*
X0513049Y0204945D01*
X0513049Y0206709D01*
X0510412Y0209345D01*
X0508649Y0209345D01*
X0508649Y0204945D01*
X0508649Y0204745D01*
X0513049Y0204745D01*
X0513049Y0202981D01*
X0510412Y0200345D01*
X0508649Y0200345D01*
X0508649Y0204745D01*
X0508449Y0204745D01*
X0508449Y0200345D01*
X0506685Y0200345D01*
X0506821Y0199015D02*
X0506190Y0198694D01*
X0505617Y0198277D01*
X0505116Y0197777D01*
X0504700Y0197203D01*
X0504378Y0196572D01*
X0504159Y0195899D01*
X0504049Y0195199D01*
X0504049Y0194945D01*
X0508448Y0194945D01*
X0508448Y0194745D01*
X0504049Y0194745D01*
X0504049Y0194491D01*
X0504159Y0193791D01*
X0504378Y0193118D01*
X0504700Y0192486D01*
X0505116Y0191913D01*
X0505617Y0191413D01*
X0506190Y0190996D01*
X0506821Y0190675D01*
X0507495Y0190456D01*
X0508194Y0190345D01*
X0508449Y0190345D01*
X0508449Y0194745D01*
X0508649Y0194745D01*
X0508649Y0194945D01*
X0513049Y0194945D01*
X0513049Y0195199D01*
X0512938Y0195899D01*
X0512719Y0196572D01*
X0512397Y0197203D01*
X0511981Y0197777D01*
X0511480Y0198277D01*
X0510907Y0198694D01*
X0510276Y0199015D01*
X0509602Y0199234D01*
X0508903Y0199345D01*
X0508649Y0199345D01*
X0508649Y0194945D01*
X0508449Y0194945D01*
X0508449Y0199345D01*
X0508194Y0199345D01*
X0507495Y0199234D01*
X0506821Y0199015D01*
X0505330Y0197990D02*
X0072192Y0197990D01*
X0073349Y0196391D02*
X0504319Y0196391D01*
X0504353Y0193194D02*
X0073349Y0193194D01*
X0073349Y0192857D02*
X0073349Y0194645D01*
X0068749Y0194645D01*
X0068749Y0195045D01*
X0068349Y0195045D01*
X0068349Y0199645D01*
X0066560Y0199645D01*
X0063749Y0196833D01*
X0063749Y0195045D01*
X0068348Y0195045D01*
X0068348Y0194645D01*
X0063749Y0194645D01*
X0063749Y0192857D01*
X0066560Y0190045D01*
X0068349Y0190045D01*
X0068349Y0194645D01*
X0068749Y0194645D01*
X0068749Y0190045D01*
X0070537Y0190045D01*
X0073349Y0192857D01*
X0072088Y0191596D02*
X0505434Y0191596D01*
X0508449Y0191596D02*
X0508649Y0191596D01*
X0508649Y0190345D02*
X0508649Y0194745D01*
X0513049Y0194745D01*
X0513049Y0194491D01*
X0512938Y0193791D01*
X0512719Y0193118D01*
X0512397Y0192486D01*
X0511981Y0191913D01*
X0511480Y0191413D01*
X0510907Y0190996D01*
X0510276Y0190675D01*
X0509602Y0190456D01*
X0508903Y0190345D01*
X0508649Y0190345D01*
X0508649Y0193194D02*
X0508449Y0193194D01*
X0508448Y0194793D02*
X0068749Y0194793D01*
X0068348Y0194793D02*
X0058749Y0194793D01*
X0058749Y0194645D02*
X0058749Y0195045D01*
X0063349Y0195045D01*
X0063349Y0196833D01*
X0060537Y0199645D01*
X0058749Y0199645D01*
X0058749Y0195045D01*
X0058349Y0195045D01*
X0058349Y0199645D01*
X0056560Y0199645D01*
X0053749Y0196833D01*
X0053749Y0195045D01*
X0058348Y0195045D01*
X0058348Y0194645D01*
X0053749Y0194645D01*
X0053749Y0192857D01*
X0056560Y0190045D01*
X0058349Y0190045D01*
X0058349Y0194645D01*
X0058749Y0194645D01*
X0063349Y0194645D01*
X0063349Y0192857D01*
X0060537Y0190045D01*
X0058749Y0190045D01*
X0058749Y0194645D01*
X0058348Y0194793D02*
X0051984Y0194793D01*
X0051984Y0196391D02*
X0053749Y0196391D01*
X0054905Y0197990D02*
X0051984Y0197990D01*
X0051984Y0199588D02*
X0056504Y0199588D01*
X0056560Y0200045D02*
X0053749Y0202857D01*
X0053749Y0204645D01*
X0058348Y0204645D01*
X0058348Y0205045D01*
X0053749Y0205045D01*
X0053749Y0206833D01*
X0056560Y0209645D01*
X0058349Y0209645D01*
X0058349Y0205045D01*
X0058749Y0205045D01*
X0063349Y0205045D01*
X0063349Y0206833D01*
X0060537Y0209645D01*
X0058749Y0209645D01*
X0058749Y0205045D01*
X0058749Y0204645D01*
X0063349Y0204645D01*
X0063349Y0202857D01*
X0060537Y0200045D01*
X0058749Y0200045D01*
X0058749Y0204645D01*
X0058349Y0204645D01*
X0058349Y0200045D01*
X0056560Y0200045D01*
X0055418Y0201187D02*
X0051984Y0201187D01*
X0051984Y0202785D02*
X0053820Y0202785D01*
X0053749Y0204384D02*
X0051984Y0204384D01*
X0051984Y0205982D02*
X0053749Y0205982D01*
X0054496Y0207581D02*
X0051984Y0207581D01*
X0051984Y0209179D02*
X0056095Y0209179D01*
X0056726Y0210445D02*
X0060371Y0210445D01*
X0062949Y0213022D01*
X0062949Y0216667D01*
X0060371Y0219245D01*
X0056726Y0219245D01*
X0054149Y0216667D01*
X0054149Y0213022D01*
X0056726Y0210445D01*
X0056393Y0210778D02*
X0051984Y0210778D01*
X0051984Y0212376D02*
X0054794Y0212376D01*
X0054149Y0213975D02*
X0051984Y0213975D01*
X0051984Y0215573D02*
X0054149Y0215573D01*
X0054653Y0217172D02*
X0051984Y0217172D01*
X0051984Y0218771D02*
X0056252Y0218771D01*
X0056726Y0220445D02*
X0060371Y0220445D01*
X0062949Y0223022D01*
X0062949Y0226667D01*
X0060371Y0229245D01*
X0056726Y0229245D01*
X0054149Y0226667D01*
X0054149Y0223022D01*
X0056726Y0220445D01*
X0055203Y0221968D02*
X0051984Y0221968D01*
X0051984Y0223566D02*
X0054149Y0223566D01*
X0054149Y0225165D02*
X0051984Y0225165D01*
X0051984Y0226763D02*
X0054244Y0226763D01*
X0055843Y0228362D02*
X0051984Y0228362D01*
X0051984Y0229960D02*
X0526616Y0229960D01*
X0526616Y0228362D02*
X0521396Y0228362D01*
X0520412Y0229345D02*
X0523049Y0226709D01*
X0523049Y0224945D01*
X0518649Y0224945D01*
X0518649Y0224745D01*
X0523049Y0224745D01*
X0523049Y0222981D01*
X0520412Y0220345D01*
X0518649Y0220345D01*
X0518649Y0224745D01*
X0518449Y0224745D01*
X0518449Y0220345D01*
X0516685Y0220345D01*
X0514049Y0222981D01*
X0514049Y0224745D01*
X0518448Y0224745D01*
X0518448Y0224945D01*
X0514049Y0224945D01*
X0514049Y0226709D01*
X0516685Y0229345D01*
X0518449Y0229345D01*
X0518449Y0224945D01*
X0518649Y0224945D01*
X0518649Y0229345D01*
X0520412Y0229345D01*
X0520412Y0230345D02*
X0523049Y0232981D01*
X0523049Y0234745D01*
X0518649Y0234745D01*
X0518649Y0234945D01*
X0523049Y0234945D01*
X0523049Y0236709D01*
X0520412Y0239345D01*
X0518649Y0239345D01*
X0518649Y0234945D01*
X0518449Y0234945D01*
X0518449Y0239345D01*
X0516685Y0239345D01*
X0514049Y0236709D01*
X0514049Y0234945D01*
X0518448Y0234945D01*
X0518448Y0234745D01*
X0514049Y0234745D01*
X0514049Y0232981D01*
X0516685Y0230345D01*
X0518449Y0230345D01*
X0518449Y0234745D01*
X0518649Y0234745D01*
X0518649Y0230345D01*
X0520412Y0230345D01*
X0521626Y0231559D02*
X0526616Y0231559D01*
X0526616Y0233157D02*
X0523049Y0233157D01*
X0523049Y0236354D02*
X0526616Y0236354D01*
X0526616Y0234756D02*
X0518649Y0234756D01*
X0518448Y0234756D02*
X0508649Y0234756D01*
X0508649Y0234745D02*
X0508649Y0234945D01*
X0513049Y0234945D01*
X0513049Y0236709D01*
X0510412Y0239345D01*
X0508649Y0239345D01*
X0508649Y0234945D01*
X0508449Y0234945D01*
X0508449Y0239345D01*
X0506685Y0239345D01*
X0504049Y0236709D01*
X0504049Y0234945D01*
X0508448Y0234945D01*
X0508448Y0234745D01*
X0504049Y0234745D01*
X0504049Y0232981D01*
X0506685Y0230345D01*
X0508449Y0230345D01*
X0508449Y0234745D01*
X0508649Y0234745D01*
X0513049Y0234745D01*
X0513049Y0232981D01*
X0510412Y0230345D01*
X0508649Y0230345D01*
X0508649Y0234745D01*
X0508448Y0234756D02*
X0072949Y0234756D01*
X0072949Y0236354D02*
X0504049Y0236354D01*
X0505292Y0237953D02*
X0071663Y0237953D01*
X0072949Y0236667D02*
X0070371Y0239245D01*
X0066726Y0239245D01*
X0064149Y0236667D01*
X0064149Y0233022D01*
X0066726Y0230445D01*
X0070371Y0230445D01*
X0072949Y0233022D01*
X0072949Y0236667D01*
X0072949Y0233157D02*
X0504049Y0233157D01*
X0505471Y0231559D02*
X0071485Y0231559D01*
X0070371Y0229245D02*
X0066726Y0229245D01*
X0064149Y0226667D01*
X0064149Y0223022D01*
X0066726Y0220445D01*
X0070371Y0220445D01*
X0072949Y0223022D01*
X0072949Y0226667D01*
X0070371Y0229245D01*
X0071254Y0228362D02*
X0505701Y0228362D01*
X0506685Y0229345D02*
X0504049Y0226709D01*
X0504049Y0224945D01*
X0508448Y0224945D01*
X0508448Y0224745D01*
X0504049Y0224745D01*
X0504049Y0222981D01*
X0506685Y0220345D01*
X0508449Y0220345D01*
X0508449Y0224745D01*
X0508649Y0224745D01*
X0508649Y0224945D01*
X0513049Y0224945D01*
X0513049Y0226709D01*
X0510412Y0229345D01*
X0508649Y0229345D01*
X0508649Y0224945D01*
X0508449Y0224945D01*
X0508449Y0229345D01*
X0506685Y0229345D01*
X0508449Y0228362D02*
X0508649Y0228362D01*
X0508649Y0226763D02*
X0508449Y0226763D01*
X0508449Y0225165D02*
X0508649Y0225165D01*
X0508649Y0224745D02*
X0513049Y0224745D01*
X0513049Y0222981D01*
X0510412Y0220345D01*
X0508649Y0220345D01*
X0508649Y0224745D01*
X0508649Y0223566D02*
X0508449Y0223566D01*
X0508449Y0221968D02*
X0508649Y0221968D01*
X0508649Y0220369D02*
X0508449Y0220369D01*
X0508449Y0219345D02*
X0506685Y0219345D01*
X0504049Y0216709D01*
X0504049Y0214945D01*
X0508448Y0214945D01*
X0508448Y0214745D01*
X0504049Y0214745D01*
X0504049Y0212981D01*
X0506685Y0210345D01*
X0508449Y0210345D01*
X0508449Y0214745D01*
X0508649Y0214745D01*
X0508649Y0214945D01*
X0513049Y0214945D01*
X0513049Y0216709D01*
X0510412Y0219345D01*
X0508649Y0219345D01*
X0508649Y0214945D01*
X0508449Y0214945D01*
X0508449Y0219345D01*
X0508449Y0218771D02*
X0508649Y0218771D01*
X0508649Y0217172D02*
X0508449Y0217172D01*
X0508449Y0215573D02*
X0508649Y0215573D01*
X0508649Y0214745D02*
X0513049Y0214745D01*
X0513049Y0212981D01*
X0510412Y0210345D01*
X0508649Y0210345D01*
X0508649Y0214745D01*
X0508649Y0213975D02*
X0508449Y0213975D01*
X0508449Y0212376D02*
X0508649Y0212376D01*
X0508649Y0210778D02*
X0508449Y0210778D01*
X0508449Y0209179D02*
X0508649Y0209179D01*
X0508649Y0207581D02*
X0508449Y0207581D01*
X0508449Y0205982D02*
X0508649Y0205982D01*
X0508649Y0204384D02*
X0508449Y0204384D01*
X0508449Y0202785D02*
X0508649Y0202785D01*
X0508649Y0201187D02*
X0508449Y0201187D01*
X0511254Y0201187D02*
X0515843Y0201187D01*
X0516685Y0200345D02*
X0514049Y0202981D01*
X0514049Y0204745D01*
X0518448Y0204745D01*
X0518448Y0204945D01*
X0514049Y0204945D01*
X0514049Y0206709D01*
X0516685Y0209345D01*
X0518449Y0209345D01*
X0518449Y0204945D01*
X0518649Y0204945D01*
X0523049Y0204945D01*
X0523049Y0206709D01*
X0520412Y0209345D01*
X0518649Y0209345D01*
X0518649Y0204945D01*
X0518649Y0204745D01*
X0523049Y0204745D01*
X0523049Y0202981D01*
X0520412Y0200345D01*
X0518649Y0200345D01*
X0518649Y0204745D01*
X0518449Y0204745D01*
X0518449Y0200345D01*
X0516685Y0200345D01*
X0518449Y0201187D02*
X0518649Y0201187D01*
X0518649Y0202785D02*
X0518449Y0202785D01*
X0518449Y0204384D02*
X0518649Y0204384D01*
X0518649Y0205982D02*
X0518449Y0205982D01*
X0518449Y0207581D02*
X0518649Y0207581D01*
X0518649Y0209179D02*
X0518449Y0209179D01*
X0518449Y0210345D02*
X0518449Y0214745D01*
X0518649Y0214745D01*
X0518649Y0214945D01*
X0523049Y0214945D01*
X0523049Y0216709D01*
X0520412Y0219345D01*
X0518649Y0219345D01*
X0518649Y0214945D01*
X0518449Y0214945D01*
X0518449Y0219345D01*
X0516685Y0219345D01*
X0514049Y0216709D01*
X0514049Y0214945D01*
X0518448Y0214945D01*
X0518448Y0214745D01*
X0514049Y0214745D01*
X0514049Y0212981D01*
X0516685Y0210345D01*
X0518449Y0210345D01*
X0518649Y0210345D02*
X0520412Y0210345D01*
X0523049Y0212981D01*
X0523049Y0214745D01*
X0518649Y0214745D01*
X0518649Y0210345D01*
X0518649Y0210778D02*
X0518449Y0210778D01*
X0518449Y0212376D02*
X0518649Y0212376D01*
X0518649Y0213975D02*
X0518449Y0213975D01*
X0518449Y0215573D02*
X0518649Y0215573D01*
X0518649Y0217172D02*
X0518449Y0217172D01*
X0518449Y0218771D02*
X0518649Y0218771D01*
X0518649Y0220369D02*
X0518449Y0220369D01*
X0518449Y0221968D02*
X0518649Y0221968D01*
X0518649Y0223566D02*
X0518449Y0223566D01*
X0518449Y0225165D02*
X0518649Y0225165D01*
X0518649Y0226763D02*
X0518449Y0226763D01*
X0518449Y0228362D02*
X0518649Y0228362D01*
X0515701Y0228362D02*
X0511396Y0228362D01*
X0512994Y0226763D02*
X0514103Y0226763D01*
X0514049Y0225165D02*
X0513049Y0225165D01*
X0513049Y0223566D02*
X0514049Y0223566D01*
X0515062Y0221968D02*
X0512035Y0221968D01*
X0510437Y0220369D02*
X0516661Y0220369D01*
X0516110Y0218771D02*
X0510987Y0218771D01*
X0512585Y0217172D02*
X0514512Y0217172D01*
X0514049Y0215573D02*
X0513049Y0215573D01*
X0513049Y0213975D02*
X0514049Y0213975D01*
X0514653Y0212376D02*
X0512444Y0212376D01*
X0510846Y0210778D02*
X0516252Y0210778D01*
X0516519Y0209179D02*
X0510578Y0209179D01*
X0512177Y0207581D02*
X0514921Y0207581D01*
X0514049Y0205982D02*
X0513049Y0205982D01*
X0513049Y0204384D02*
X0514049Y0204384D01*
X0514244Y0202785D02*
X0512853Y0202785D01*
X0511768Y0197990D02*
X0515330Y0197990D01*
X0514049Y0196391D02*
X0512778Y0196391D01*
X0512744Y0193194D02*
X0514049Y0193194D01*
X0515434Y0191596D02*
X0511663Y0191596D01*
X0508649Y0194793D02*
X0518448Y0194793D01*
X0518449Y0196391D02*
X0518649Y0196391D01*
X0518649Y0197990D02*
X0518449Y0197990D01*
X0521254Y0201187D02*
X0526616Y0201187D01*
X0526616Y0202785D02*
X0522853Y0202785D01*
X0523049Y0204384D02*
X0526616Y0204384D01*
X0526616Y0205982D02*
X0523049Y0205982D01*
X0522177Y0207581D02*
X0526616Y0207581D01*
X0526616Y0209179D02*
X0520578Y0209179D01*
X0520846Y0210778D02*
X0526616Y0210778D01*
X0526616Y0212376D02*
X0522444Y0212376D01*
X0523049Y0213975D02*
X0526616Y0213975D01*
X0526616Y0215573D02*
X0523049Y0215573D01*
X0522585Y0217172D02*
X0526616Y0217172D01*
X0526616Y0218771D02*
X0520987Y0218771D01*
X0520437Y0220369D02*
X0526616Y0220369D01*
X0526616Y0221968D02*
X0522035Y0221968D01*
X0523049Y0223566D02*
X0526616Y0223566D01*
X0526616Y0225165D02*
X0523049Y0225165D01*
X0522994Y0226763D02*
X0526616Y0226763D01*
X0518649Y0231559D02*
X0518449Y0231559D01*
X0518449Y0233157D02*
X0518649Y0233157D01*
X0518649Y0236354D02*
X0518449Y0236354D01*
X0518449Y0237953D02*
X0518649Y0237953D01*
X0521805Y0237953D02*
X0526616Y0237953D01*
X0526616Y0239551D02*
X0051984Y0239551D01*
X0051984Y0237953D02*
X0055434Y0237953D01*
X0054149Y0236667D02*
X0056726Y0239245D01*
X0060371Y0239245D01*
X0062949Y0236667D01*
X0062949Y0233022D01*
X0060371Y0230445D01*
X0056726Y0230445D01*
X0054149Y0233022D01*
X0054149Y0236667D01*
X0054149Y0236354D02*
X0051984Y0236354D01*
X0051984Y0234756D02*
X0054149Y0234756D01*
X0054149Y0233157D02*
X0051984Y0233157D01*
X0051984Y0231559D02*
X0055612Y0231559D01*
X0061485Y0231559D02*
X0065612Y0231559D01*
X0064149Y0233157D02*
X0062949Y0233157D01*
X0062949Y0234756D02*
X0064149Y0234756D01*
X0064149Y0236354D02*
X0062949Y0236354D01*
X0061663Y0237953D02*
X0065434Y0237953D01*
X0066726Y0240445D02*
X0070371Y0240445D01*
X0072949Y0243022D01*
X0072949Y0246667D01*
X0070371Y0249245D01*
X0066726Y0249245D01*
X0064149Y0246667D01*
X0064149Y0243022D01*
X0066726Y0240445D01*
X0066021Y0241150D02*
X0061076Y0241150D01*
X0060371Y0240445D02*
X0062949Y0243022D01*
X0062949Y0246667D01*
X0060371Y0249245D01*
X0056726Y0249245D01*
X0054149Y0246667D01*
X0054149Y0243022D01*
X0056726Y0240445D01*
X0060371Y0240445D01*
X0062674Y0242748D02*
X0064423Y0242748D01*
X0064149Y0244347D02*
X0062949Y0244347D01*
X0062949Y0245945D02*
X0064149Y0245945D01*
X0065025Y0247544D02*
X0062072Y0247544D01*
X0060474Y0249142D02*
X0066623Y0249142D01*
X0066726Y0250445D02*
X0070371Y0250445D01*
X0072949Y0253022D01*
X0072949Y0256667D01*
X0070371Y0259245D01*
X0066726Y0259245D01*
X0064149Y0256667D01*
X0064149Y0253022D01*
X0066726Y0250445D01*
X0066430Y0250741D02*
X0060667Y0250741D01*
X0060371Y0250445D02*
X0062949Y0253022D01*
X0062949Y0256667D01*
X0060371Y0259245D01*
X0056726Y0259245D01*
X0054149Y0256667D01*
X0054149Y0253022D01*
X0056726Y0250445D01*
X0060371Y0250445D01*
X0062265Y0252339D02*
X0064832Y0252339D01*
X0064149Y0253938D02*
X0062949Y0253938D01*
X0062949Y0255536D02*
X0064149Y0255536D01*
X0064616Y0257135D02*
X0062481Y0257135D01*
X0060883Y0258733D02*
X0066214Y0258733D01*
X0066726Y0260445D02*
X0070371Y0260445D01*
X0072949Y0263022D01*
X0072949Y0266667D01*
X0070371Y0269245D01*
X0066726Y0269245D01*
X0064149Y0266667D01*
X0064149Y0263022D01*
X0066726Y0260445D01*
X0065241Y0261930D02*
X0061856Y0261930D01*
X0062949Y0263022D02*
X0060371Y0260445D01*
X0056726Y0260445D01*
X0054149Y0263022D01*
X0054149Y0266667D01*
X0056726Y0269245D01*
X0060371Y0269245D01*
X0062949Y0266667D01*
X0062949Y0263022D01*
X0062949Y0263529D02*
X0064149Y0263529D01*
X0064149Y0265127D02*
X0062949Y0265127D01*
X0062890Y0266726D02*
X0064207Y0266726D01*
X0065805Y0268324D02*
X0061292Y0268324D01*
X0060371Y0270445D02*
X0062949Y0273022D01*
X0062949Y0276667D01*
X0060371Y0279245D01*
X0056726Y0279245D01*
X0054149Y0276667D01*
X0054149Y0273022D01*
X0056726Y0270445D01*
X0060371Y0270445D01*
X0061448Y0271521D02*
X0065650Y0271521D01*
X0066726Y0270445D02*
X0070371Y0270445D01*
X0072949Y0273022D01*
X0072949Y0276667D01*
X0070371Y0279245D01*
X0066726Y0279245D01*
X0064149Y0276667D01*
X0064149Y0273022D01*
X0066726Y0270445D01*
X0064149Y0273120D02*
X0062949Y0273120D01*
X0062949Y0274718D02*
X0064149Y0274718D01*
X0064149Y0276317D02*
X0062949Y0276317D01*
X0061701Y0277915D02*
X0065397Y0277915D01*
X0066726Y0280445D02*
X0070371Y0280445D01*
X0072949Y0283022D01*
X0072949Y0286667D01*
X0070371Y0289245D01*
X0066726Y0289245D01*
X0064149Y0286667D01*
X0064149Y0283022D01*
X0066726Y0280445D01*
X0066059Y0281112D02*
X0061039Y0281112D01*
X0060371Y0280445D02*
X0062949Y0283022D01*
X0062949Y0286667D01*
X0060371Y0289245D01*
X0056726Y0289245D01*
X0054149Y0286667D01*
X0054149Y0283022D01*
X0056726Y0280445D01*
X0060371Y0280445D01*
X0062637Y0282711D02*
X0064460Y0282711D01*
X0064149Y0284309D02*
X0062949Y0284309D01*
X0062949Y0285908D02*
X0064149Y0285908D01*
X0064988Y0287507D02*
X0062110Y0287507D01*
X0060511Y0289105D02*
X0066586Y0289105D01*
X0066726Y0290445D02*
X0070371Y0290445D01*
X0072949Y0293022D01*
X0072949Y0296667D01*
X0070371Y0299245D01*
X0066726Y0299245D01*
X0064149Y0296667D01*
X0064149Y0293022D01*
X0066726Y0290445D01*
X0066467Y0290704D02*
X0060630Y0290704D01*
X0060371Y0290445D02*
X0062949Y0293022D01*
X0062949Y0296667D01*
X0060371Y0299245D01*
X0056726Y0299245D01*
X0054149Y0296667D01*
X0054149Y0293022D01*
X0056726Y0290445D01*
X0060371Y0290445D01*
X0062228Y0292302D02*
X0064869Y0292302D01*
X0064149Y0293901D02*
X0062949Y0293901D01*
X0062949Y0295499D02*
X0064149Y0295499D01*
X0064579Y0297098D02*
X0062518Y0297098D01*
X0060920Y0298696D02*
X0066177Y0298696D01*
X0066726Y0300445D02*
X0070371Y0300445D01*
X0072949Y0303022D01*
X0072949Y0306667D01*
X0070371Y0309245D01*
X0066726Y0309245D01*
X0064149Y0306667D01*
X0064149Y0303022D01*
X0066726Y0300445D01*
X0065278Y0301893D02*
X0061819Y0301893D01*
X0062949Y0303022D02*
X0060371Y0300445D01*
X0056726Y0300445D01*
X0054149Y0303022D01*
X0054149Y0306667D01*
X0056726Y0309245D01*
X0060371Y0309245D01*
X0062949Y0306667D01*
X0062949Y0303022D01*
X0062949Y0303492D02*
X0064149Y0303492D01*
X0064149Y0305090D02*
X0062949Y0305090D01*
X0062927Y0306689D02*
X0064170Y0306689D01*
X0065768Y0308287D02*
X0061329Y0308287D01*
X0060371Y0310445D02*
X0062171Y0312245D01*
X0064926Y0312245D01*
X0066726Y0310445D01*
X0070371Y0310445D01*
X0072949Y0313022D01*
X0072949Y0315568D01*
X0080207Y0322826D01*
X0104149Y0322826D01*
X0105087Y0323215D01*
X0105804Y0323932D01*
X0106192Y0324869D01*
X0106192Y0359742D01*
X0105804Y0360679D01*
X0105087Y0361396D01*
X0104149Y0361785D01*
X0089649Y0361785D01*
X0089649Y0363805D01*
X0089830Y0363986D01*
X0090330Y0365192D01*
X0090330Y0366498D01*
X0089830Y0367704D01*
X0089649Y0367885D01*
X0089649Y0372268D01*
X0097194Y0379814D01*
X0097451Y0379814D01*
X0098657Y0380313D01*
X0099580Y0381236D01*
X0100080Y0382442D01*
X0100080Y0382699D01*
X0176072Y0458692D01*
X0176468Y0459647D01*
X0176468Y0460719D01*
X0176646Y0460897D01*
X0176646Y0463102D01*
X0176649Y0463108D01*
X0176649Y0467768D01*
X0177625Y0468745D01*
X0181472Y0468745D01*
X0183018Y0467199D01*
X0182963Y0467213D01*
X0181349Y0467213D01*
X0181349Y0463445D01*
X0184526Y0463445D01*
X0184526Y0465650D01*
X0184512Y0465705D01*
X0185576Y0464641D01*
X0186531Y0464245D01*
X0212066Y0464245D01*
X0213021Y0464641D01*
X0213753Y0465372D01*
X0224525Y0476145D01*
X0259905Y0476145D01*
X0260025Y0475856D01*
X0261460Y0474421D01*
X0263093Y0473745D01*
X0261460Y0473069D01*
X0260025Y0471634D01*
X0259249Y0469759D01*
X0259249Y0467730D01*
X0260025Y0465856D01*
X0261460Y0464421D01*
X0262585Y0463955D01*
X0262237Y0463842D01*
X0261466Y0463449D01*
X0260766Y0462940D01*
X0260153Y0462328D01*
X0259645Y0461628D01*
X0259252Y0460856D01*
X0258984Y0460033D01*
X0258849Y0459178D01*
X0258849Y0458945D01*
X0264148Y0458945D01*
X0264148Y0458545D01*
X0258849Y0458545D01*
X0258849Y0458312D01*
X0258984Y0457457D01*
X0259252Y0456634D01*
X0259645Y0455862D01*
X0260153Y0455162D01*
X0260766Y0454550D01*
X0261466Y0454041D01*
X0262237Y0453648D01*
X0262585Y0453535D01*
X0261460Y0453069D01*
X0260025Y0451634D01*
X0259249Y0449759D01*
X0259249Y0447730D01*
X0260025Y0445856D01*
X0261460Y0444421D01*
X0263093Y0443745D01*
X0261460Y0443069D01*
X0260025Y0441634D01*
X0259249Y0439759D01*
X0259249Y0437730D01*
X0260025Y0435856D01*
X0261460Y0434421D01*
X0263093Y0433745D01*
X0261460Y0433069D01*
X0260025Y0431634D01*
X0259249Y0429759D01*
X0259249Y0427730D01*
X0260025Y0425856D01*
X0261460Y0424421D01*
X0263334Y0423645D01*
X0265363Y0423645D01*
X0267237Y0424421D01*
X0268672Y0425856D01*
X0269449Y0427730D01*
X0269449Y0429759D01*
X0268672Y0431634D01*
X0267237Y0433069D01*
X0265604Y0433745D01*
X0267237Y0434421D01*
X0268672Y0435856D01*
X0269449Y0437730D01*
X0269449Y0439759D01*
X0268672Y0441634D01*
X0267237Y0443069D01*
X0265604Y0443745D01*
X0267237Y0444421D01*
X0268672Y0445856D01*
X0269449Y0447730D01*
X0269449Y0449759D01*
X0268672Y0451634D01*
X0267237Y0453069D01*
X0266112Y0453535D01*
X0266460Y0453648D01*
X0267231Y0454041D01*
X0267932Y0454550D01*
X0268544Y0455162D01*
X0269053Y0455862D01*
X0269446Y0456634D01*
X0269713Y0457457D01*
X0269849Y0458312D01*
X0269849Y0458545D01*
X0264549Y0458545D01*
X0264549Y0458945D01*
X0269849Y0458945D01*
X0269849Y0459178D01*
X0269713Y0460033D01*
X0269446Y0460856D01*
X0269053Y0461628D01*
X0268544Y0462328D01*
X0267932Y0462940D01*
X0267231Y0463449D01*
X0266460Y0463842D01*
X0266112Y0463955D01*
X0267237Y0464421D01*
X0268672Y0465856D01*
X0269449Y0467730D01*
X0269449Y0469759D01*
X0268672Y0471634D01*
X0267237Y0473069D01*
X0265604Y0473745D01*
X0267237Y0474421D01*
X0268672Y0475856D01*
X0269449Y0477730D01*
X0269449Y0479759D01*
X0268672Y0481634D01*
X0267237Y0483069D01*
X0265363Y0483845D01*
X0263334Y0483845D01*
X0261460Y0483069D01*
X0260025Y0481634D01*
X0259905Y0481345D01*
X0222931Y0481345D01*
X0221976Y0480949D01*
X0210472Y0469445D01*
X0188125Y0469445D01*
X0184753Y0472818D01*
X0184021Y0473549D01*
X0183066Y0473945D01*
X0176031Y0473945D01*
X0175076Y0473549D01*
X0172576Y0471049D01*
X0171844Y0470318D01*
X0171449Y0469362D01*
X0171449Y0466352D01*
X0171090Y0465993D01*
X0171090Y0461064D01*
X0096403Y0386376D01*
X0096146Y0386376D01*
X0094940Y0385877D01*
X0094017Y0384954D01*
X0093517Y0383748D01*
X0093517Y0383491D01*
X0085576Y0375549D01*
X0084844Y0374818D01*
X0084449Y0373862D01*
X0084449Y0367885D01*
X0084267Y0367704D01*
X0083767Y0366498D01*
X0083767Y0365192D01*
X0084267Y0363986D01*
X0084449Y0363805D01*
X0084449Y0361785D01*
X0079513Y0361785D01*
X0078576Y0361396D01*
X0077858Y0360679D01*
X0077470Y0359742D01*
X0077470Y0327444D01*
X0069272Y0319245D01*
X0066726Y0319245D01*
X0064926Y0317445D01*
X0062171Y0317445D01*
X0060371Y0319245D01*
X0056726Y0319245D01*
X0054149Y0316667D01*
X0054149Y0313022D01*
X0056726Y0310445D01*
X0060371Y0310445D01*
X0061410Y0311484D02*
X0065687Y0311484D01*
X0071410Y0311484D02*
X0194166Y0311484D01*
X0194000Y0311318D02*
X0193330Y0309700D01*
X0193330Y0307950D01*
X0194000Y0306333D01*
X0195237Y0305095D01*
X0196854Y0304425D01*
X0198605Y0304425D01*
X0200222Y0305095D01*
X0201460Y0306333D01*
X0202130Y0307950D01*
X0202130Y0309700D01*
X0201460Y0311318D01*
X0200222Y0312555D01*
X0198605Y0313225D01*
X0196854Y0313225D01*
X0195237Y0312555D01*
X0194000Y0311318D01*
X0193406Y0309886D02*
X0051984Y0309886D01*
X0051984Y0311484D02*
X0055687Y0311484D01*
X0054149Y0313083D02*
X0051984Y0313083D01*
X0051984Y0314681D02*
X0054149Y0314681D01*
X0054149Y0316280D02*
X0051984Y0316280D01*
X0051984Y0317878D02*
X0055359Y0317878D01*
X0056726Y0320445D02*
X0060371Y0320445D01*
X0062949Y0323022D01*
X0062949Y0326667D01*
X0060371Y0329245D01*
X0056726Y0329245D01*
X0054149Y0326667D01*
X0054149Y0323022D01*
X0056726Y0320445D01*
X0056096Y0321075D02*
X0051984Y0321075D01*
X0051984Y0319477D02*
X0069503Y0319477D01*
X0070371Y0320445D02*
X0072949Y0323022D01*
X0072949Y0326667D01*
X0070371Y0329245D01*
X0066726Y0329245D01*
X0064149Y0326667D01*
X0064149Y0323022D01*
X0066726Y0320445D01*
X0070371Y0320445D01*
X0071001Y0321075D02*
X0071102Y0321075D01*
X0072600Y0322674D02*
X0072700Y0322674D01*
X0072949Y0324272D02*
X0074299Y0324272D01*
X0072949Y0325871D02*
X0075897Y0325871D01*
X0077470Y0327469D02*
X0072147Y0327469D01*
X0070548Y0329068D02*
X0077470Y0329068D01*
X0077470Y0330666D02*
X0070592Y0330666D01*
X0070371Y0330445D02*
X0072949Y0333022D01*
X0072949Y0336667D01*
X0070371Y0339245D01*
X0066726Y0339245D01*
X0064149Y0336667D01*
X0064149Y0333022D01*
X0066726Y0330445D01*
X0070371Y0330445D01*
X0072191Y0332265D02*
X0077470Y0332265D01*
X0077470Y0333863D02*
X0072949Y0333863D01*
X0072949Y0335462D02*
X0077470Y0335462D01*
X0077470Y0337060D02*
X0072556Y0337060D01*
X0070957Y0338659D02*
X0077470Y0338659D01*
X0077470Y0340257D02*
X0051984Y0340257D01*
X0051984Y0338659D02*
X0056140Y0338659D01*
X0056726Y0339245D02*
X0054149Y0336667D01*
X0054149Y0333022D01*
X0056726Y0330445D01*
X0060371Y0330445D01*
X0062949Y0333022D01*
X0062949Y0336667D01*
X0060371Y0339245D01*
X0056726Y0339245D01*
X0056726Y0340445D02*
X0060371Y0340445D01*
X0062949Y0343022D01*
X0062949Y0346667D01*
X0060371Y0349245D01*
X0056726Y0349245D01*
X0054149Y0346667D01*
X0054149Y0343022D01*
X0056726Y0340445D01*
X0055315Y0341856D02*
X0051984Y0341856D01*
X0051984Y0343454D02*
X0054149Y0343454D01*
X0054149Y0345053D02*
X0051984Y0345053D01*
X0051984Y0346651D02*
X0054149Y0346651D01*
X0055731Y0348250D02*
X0051984Y0348250D01*
X0051984Y0349848D02*
X0077470Y0349848D01*
X0077470Y0348250D02*
X0071366Y0348250D01*
X0070371Y0349245D02*
X0066726Y0349245D01*
X0064149Y0346667D01*
X0064149Y0343022D01*
X0066726Y0340445D01*
X0070371Y0340445D01*
X0072949Y0343022D01*
X0072949Y0346667D01*
X0070371Y0349245D01*
X0070371Y0350445D02*
X0072949Y0353022D01*
X0072949Y0356667D01*
X0070371Y0359245D01*
X0066726Y0359245D01*
X0064149Y0356667D01*
X0064149Y0353022D01*
X0066726Y0350445D01*
X0070371Y0350445D01*
X0071373Y0351447D02*
X0077470Y0351447D01*
X0077470Y0353045D02*
X0072949Y0353045D01*
X0072949Y0354644D02*
X0077470Y0354644D01*
X0077470Y0356242D02*
X0072949Y0356242D01*
X0071775Y0357841D02*
X0077470Y0357841D01*
X0077470Y0359440D02*
X0051984Y0359440D01*
X0051984Y0361038D02*
X0056133Y0361038D01*
X0056726Y0360445D02*
X0060371Y0360445D01*
X0062949Y0363022D01*
X0062949Y0366667D01*
X0060371Y0369245D01*
X0056726Y0369245D01*
X0054149Y0366667D01*
X0054149Y0363022D01*
X0056726Y0360445D01*
X0056726Y0359245D02*
X0054149Y0356667D01*
X0054149Y0353022D01*
X0056726Y0350445D01*
X0060371Y0350445D01*
X0062949Y0353022D01*
X0062949Y0356667D01*
X0060371Y0359245D01*
X0056726Y0359245D01*
X0055322Y0357841D02*
X0051984Y0357841D01*
X0051984Y0356242D02*
X0054149Y0356242D01*
X0054149Y0354644D02*
X0051984Y0354644D01*
X0051984Y0353045D02*
X0054149Y0353045D01*
X0055724Y0351447D02*
X0051984Y0351447D01*
X0061373Y0351447D02*
X0065724Y0351447D01*
X0064149Y0353045D02*
X0062949Y0353045D01*
X0062949Y0354644D02*
X0064149Y0354644D01*
X0064149Y0356242D02*
X0062949Y0356242D01*
X0061775Y0357841D02*
X0065322Y0357841D01*
X0066726Y0360445D02*
X0070371Y0360445D01*
X0072949Y0363022D01*
X0072949Y0366667D01*
X0070371Y0369245D01*
X0066726Y0369245D01*
X0064149Y0366667D01*
X0064149Y0363022D01*
X0066726Y0360445D01*
X0066133Y0361038D02*
X0060964Y0361038D01*
X0062563Y0362637D02*
X0064534Y0362637D01*
X0064149Y0364235D02*
X0062949Y0364235D01*
X0062949Y0365834D02*
X0064149Y0365834D01*
X0064913Y0367432D02*
X0062184Y0367432D01*
X0060585Y0369031D02*
X0066512Y0369031D01*
X0066726Y0370445D02*
X0070371Y0370445D01*
X0072949Y0373022D01*
X0072949Y0376667D01*
X0070371Y0379245D01*
X0066726Y0379245D01*
X0064149Y0376667D01*
X0064149Y0373022D01*
X0066726Y0370445D01*
X0066542Y0370629D02*
X0060555Y0370629D01*
X0060371Y0370445D02*
X0062949Y0373022D01*
X0062949Y0376667D01*
X0060371Y0379245D01*
X0056726Y0379245D01*
X0054149Y0376667D01*
X0054149Y0373022D01*
X0056726Y0370445D01*
X0060371Y0370445D01*
X0062154Y0372228D02*
X0064943Y0372228D01*
X0064149Y0373826D02*
X0062949Y0373826D01*
X0062949Y0375425D02*
X0064149Y0375425D01*
X0064504Y0377023D02*
X0062593Y0377023D01*
X0060994Y0378622D02*
X0066103Y0378622D01*
X0066726Y0380445D02*
X0070371Y0380445D01*
X0072949Y0383022D01*
X0072949Y0386667D01*
X0070371Y0389245D01*
X0066726Y0389245D01*
X0064149Y0386667D01*
X0064149Y0383022D01*
X0066726Y0380445D01*
X0065352Y0381819D02*
X0061745Y0381819D01*
X0062949Y0383022D02*
X0060371Y0380445D01*
X0056726Y0380445D01*
X0054149Y0383022D01*
X0054149Y0386667D01*
X0056726Y0389245D01*
X0060371Y0389245D01*
X0062949Y0386667D01*
X0062949Y0383022D01*
X0062949Y0383417D02*
X0064149Y0383417D01*
X0064149Y0385016D02*
X0062949Y0385016D01*
X0062949Y0386614D02*
X0064149Y0386614D01*
X0065694Y0388213D02*
X0061403Y0388213D01*
X0055694Y0388213D02*
X0053186Y0388213D01*
X0054149Y0386614D02*
X0051984Y0386614D01*
X0051984Y0385016D02*
X0054149Y0385016D01*
X0054149Y0383417D02*
X0051984Y0383417D01*
X0051984Y0381819D02*
X0055352Y0381819D01*
X0056103Y0378622D02*
X0051984Y0378622D01*
X0051984Y0380220D02*
X0090247Y0380220D01*
X0091845Y0381819D02*
X0071745Y0381819D01*
X0072949Y0383417D02*
X0093444Y0383417D01*
X0094079Y0385016D02*
X0072949Y0385016D01*
X0072949Y0386614D02*
X0096641Y0386614D01*
X0098239Y0388213D02*
X0071403Y0388213D01*
X0070994Y0378622D02*
X0088648Y0378622D01*
X0087050Y0377023D02*
X0072593Y0377023D01*
X0072949Y0375425D02*
X0085451Y0375425D01*
X0084449Y0373826D02*
X0072949Y0373826D01*
X0072154Y0372228D02*
X0084449Y0372228D01*
X0084449Y0370629D02*
X0070555Y0370629D01*
X0070585Y0369031D02*
X0084449Y0369031D01*
X0084155Y0367432D02*
X0072184Y0367432D01*
X0072949Y0365834D02*
X0083767Y0365834D01*
X0084164Y0364235D02*
X0072949Y0364235D01*
X0072563Y0362637D02*
X0084449Y0362637D01*
X0089649Y0362637D02*
X0195433Y0362637D01*
X0195237Y0362555D02*
X0194000Y0361318D01*
X0193330Y0359700D01*
X0193330Y0357950D01*
X0194000Y0356333D01*
X0195237Y0355095D01*
X0196854Y0354425D01*
X0198605Y0354425D01*
X0200222Y0355095D01*
X0201460Y0356333D01*
X0202130Y0357950D01*
X0202130Y0359700D01*
X0201460Y0361318D01*
X0200222Y0362555D01*
X0198605Y0363225D01*
X0196854Y0363225D01*
X0195237Y0362555D01*
X0195887Y0364377D02*
X0196606Y0364143D01*
X0197352Y0364025D01*
X0197530Y0364025D01*
X0197530Y0368625D01*
X0197930Y0368625D01*
X0197930Y0369025D01*
X0202530Y0369025D01*
X0202530Y0369203D01*
X0202411Y0369949D01*
X0202178Y0370668D01*
X0201835Y0371341D01*
X0201391Y0371952D01*
X0200857Y0372486D01*
X0200245Y0372931D01*
X0199572Y0373274D01*
X0198854Y0373507D01*
X0198107Y0373625D01*
X0197930Y0373625D01*
X0197930Y0369025D01*
X0197530Y0369025D01*
X0197530Y0368625D01*
X0192930Y0368625D01*
X0192930Y0368447D01*
X0193048Y0367701D01*
X0193281Y0366983D01*
X0193624Y0366310D01*
X0194068Y0365698D01*
X0194603Y0365164D01*
X0195214Y0364720D01*
X0195887Y0364377D01*
X0196324Y0364235D02*
X0089933Y0364235D01*
X0090330Y0365834D02*
X0193970Y0365834D01*
X0193135Y0367432D02*
X0089943Y0367432D01*
X0089649Y0369031D02*
X0192930Y0369031D01*
X0192930Y0369025D02*
X0197530Y0369025D01*
X0197530Y0373625D01*
X0197352Y0373625D01*
X0196606Y0373507D01*
X0195887Y0373274D01*
X0195214Y0372931D01*
X0194603Y0372486D01*
X0194068Y0371952D01*
X0193624Y0371341D01*
X0193281Y0370668D01*
X0193048Y0369949D01*
X0192930Y0369203D01*
X0192930Y0369025D01*
X0193269Y0370629D02*
X0089649Y0370629D01*
X0089649Y0372228D02*
X0194344Y0372228D01*
X0195237Y0375095D02*
X0196854Y0374425D01*
X0198605Y0374425D01*
X0200222Y0375095D01*
X0201460Y0376333D01*
X0202130Y0377950D01*
X0202130Y0379700D01*
X0201460Y0381318D01*
X0200222Y0382555D01*
X0198605Y0383225D01*
X0196854Y0383225D01*
X0195237Y0382555D01*
X0194000Y0381318D01*
X0193330Y0379700D01*
X0193330Y0377950D01*
X0194000Y0376333D01*
X0195237Y0375095D01*
X0194908Y0375425D02*
X0092805Y0375425D01*
X0094404Y0377023D02*
X0193714Y0377023D01*
X0193330Y0378622D02*
X0096002Y0378622D01*
X0098432Y0380220D02*
X0193545Y0380220D01*
X0194501Y0381819D02*
X0099821Y0381819D01*
X0100798Y0383417D02*
X0526616Y0383417D01*
X0526616Y0381819D02*
X0210959Y0381819D01*
X0211460Y0381318D02*
X0210222Y0382555D01*
X0208605Y0383225D01*
X0206854Y0383225D01*
X0205237Y0382555D01*
X0204000Y0381318D01*
X0203330Y0379700D01*
X0203330Y0377950D01*
X0204000Y0376333D01*
X0205237Y0375095D01*
X0206854Y0374425D01*
X0208605Y0374425D01*
X0210222Y0375095D01*
X0211460Y0376333D01*
X0212130Y0377950D01*
X0212130Y0379700D01*
X0211460Y0381318D01*
X0211914Y0380220D02*
X0526616Y0380220D01*
X0526616Y0378622D02*
X0212130Y0378622D01*
X0211746Y0377023D02*
X0526616Y0377023D01*
X0526616Y0375425D02*
X0210552Y0375425D01*
X0210222Y0372555D02*
X0208605Y0373225D01*
X0206854Y0373225D01*
X0205237Y0372555D01*
X0204000Y0371318D01*
X0203330Y0369700D01*
X0203330Y0367950D01*
X0204000Y0366333D01*
X0205237Y0365095D01*
X0206854Y0364425D01*
X0208605Y0364425D01*
X0210222Y0365095D01*
X0211460Y0366333D01*
X0212130Y0367950D01*
X0212130Y0369700D01*
X0211460Y0371318D01*
X0210222Y0372555D01*
X0210550Y0372228D02*
X0526616Y0372228D01*
X0526616Y0373826D02*
X0091207Y0373826D01*
X0102396Y0385016D02*
X0195429Y0385016D01*
X0195237Y0385095D02*
X0196854Y0384425D01*
X0198605Y0384425D01*
X0200222Y0385095D01*
X0201460Y0386333D01*
X0202130Y0387950D01*
X0202130Y0389700D01*
X0201460Y0391318D01*
X0200222Y0392555D01*
X0198605Y0393225D01*
X0196854Y0393225D01*
X0195237Y0392555D01*
X0194000Y0391318D01*
X0193330Y0389700D01*
X0193330Y0387950D01*
X0194000Y0386333D01*
X0195237Y0385095D01*
X0193883Y0386614D02*
X0103995Y0386614D01*
X0105593Y0388213D02*
X0193330Y0388213D01*
X0193376Y0389811D02*
X0107192Y0389811D01*
X0108790Y0391410D02*
X0194092Y0391410D01*
X0196331Y0393008D02*
X0110389Y0393008D01*
X0111987Y0394607D02*
X0195436Y0394607D01*
X0195214Y0394720D02*
X0195887Y0394377D01*
X0196606Y0394143D01*
X0197352Y0394025D01*
X0197530Y0394025D01*
X0197530Y0398625D01*
X0197930Y0398625D01*
X0197930Y0399025D01*
X0202530Y0399025D01*
X0202530Y0399203D01*
X0202411Y0399949D01*
X0202178Y0400668D01*
X0201835Y0401341D01*
X0201391Y0401952D01*
X0200857Y0402486D01*
X0200245Y0402931D01*
X0199572Y0403274D01*
X0198854Y0403507D01*
X0198107Y0403625D01*
X0197930Y0403625D01*
X0197930Y0399025D01*
X0197530Y0399025D01*
X0197530Y0398625D01*
X0192930Y0398625D01*
X0192930Y0398447D01*
X0193048Y0397701D01*
X0193281Y0396983D01*
X0193624Y0396310D01*
X0194068Y0395698D01*
X0194603Y0395164D01*
X0195214Y0394720D01*
X0193700Y0396205D02*
X0113586Y0396205D01*
X0115184Y0397804D02*
X0193032Y0397804D01*
X0192930Y0399025D02*
X0197530Y0399025D01*
X0197530Y0403625D01*
X0197352Y0403625D01*
X0196606Y0403507D01*
X0195887Y0403274D01*
X0195214Y0402931D01*
X0194603Y0402486D01*
X0194068Y0401952D01*
X0193624Y0401341D01*
X0193281Y0400668D01*
X0193048Y0399949D01*
X0192930Y0399203D01*
X0192930Y0399025D01*
X0192961Y0399402D02*
X0116783Y0399402D01*
X0118381Y0401001D02*
X0193451Y0401001D01*
X0194758Y0402599D02*
X0119980Y0402599D01*
X0121578Y0404198D02*
X0509429Y0404198D01*
X0507831Y0405796D02*
X0210923Y0405796D01*
X0211460Y0406333D02*
X0212130Y0407950D01*
X0212130Y0409700D01*
X0211460Y0411318D01*
X0210222Y0412555D01*
X0208605Y0413225D01*
X0206854Y0413225D01*
X0205237Y0412555D01*
X0204000Y0411318D01*
X0203330Y0409700D01*
X0203330Y0407950D01*
X0204000Y0406333D01*
X0205237Y0405095D01*
X0206854Y0404425D01*
X0208605Y0404425D01*
X0210222Y0405095D01*
X0211460Y0406333D01*
X0211900Y0407395D02*
X0506232Y0407395D01*
X0504634Y0408993D02*
X0212130Y0408993D01*
X0211760Y0410592D02*
X0503035Y0410592D01*
X0501437Y0412190D02*
X0210587Y0412190D01*
X0209572Y0414377D02*
X0210245Y0414720D01*
X0210857Y0415164D01*
X0211391Y0415698D01*
X0211835Y0416310D01*
X0212178Y0416983D01*
X0212411Y0417701D01*
X0212530Y0418447D01*
X0212530Y0418625D01*
X0207930Y0418625D01*
X0207930Y0419025D01*
X0212530Y0419025D01*
X0212530Y0419203D01*
X0212411Y0419949D01*
X0212178Y0420668D01*
X0211835Y0421341D01*
X0211391Y0421952D01*
X0210857Y0422486D01*
X0210245Y0422931D01*
X0209572Y0423274D01*
X0208854Y0423507D01*
X0208107Y0423625D01*
X0207930Y0423625D01*
X0207930Y0419025D01*
X0207530Y0419025D01*
X0207530Y0418625D01*
X0207930Y0418625D01*
X0207930Y0414025D01*
X0208107Y0414025D01*
X0208854Y0414143D01*
X0209572Y0414377D01*
X0211080Y0415387D02*
X0498240Y0415387D01*
X0499838Y0413789D02*
X0131169Y0413789D01*
X0129571Y0412190D02*
X0194872Y0412190D01*
X0195237Y0412555D02*
X0194000Y0411318D01*
X0193754Y0410725D01*
X0173208Y0410725D01*
X0172407Y0411527D01*
X0171201Y0412026D01*
X0169896Y0412026D01*
X0168690Y0411527D01*
X0167767Y0410604D01*
X0167267Y0409398D01*
X0167267Y0408092D01*
X0167767Y0406886D01*
X0168690Y0405963D01*
X0169896Y0405464D01*
X0171201Y0405464D01*
X0172407Y0405963D01*
X0173330Y0406886D01*
X0173346Y0406925D01*
X0193754Y0406925D01*
X0194000Y0406333D01*
X0195237Y0405095D01*
X0196854Y0404425D01*
X0198605Y0404425D01*
X0200222Y0405095D01*
X0201460Y0406333D01*
X0202130Y0407950D01*
X0202130Y0409700D01*
X0201460Y0411318D01*
X0200222Y0412555D01*
X0198605Y0413225D01*
X0196854Y0413225D01*
X0195237Y0412555D01*
X0196854Y0414425D02*
X0195237Y0415095D01*
X0194000Y0416333D01*
X0193330Y0417950D01*
X0193330Y0419700D01*
X0194000Y0421318D01*
X0195237Y0422555D01*
X0196854Y0423225D01*
X0198605Y0423225D01*
X0200222Y0422555D01*
X0201460Y0421318D01*
X0202130Y0419700D01*
X0202130Y0417950D01*
X0201460Y0416333D01*
X0200222Y0415095D01*
X0198605Y0414425D01*
X0196854Y0414425D01*
X0194945Y0415387D02*
X0132768Y0415387D01*
X0134366Y0416986D02*
X0193729Y0416986D01*
X0193330Y0418584D02*
X0135965Y0418584D01*
X0137563Y0420183D02*
X0193530Y0420183D01*
X0194463Y0421781D02*
X0139162Y0421781D01*
X0140761Y0423380D02*
X0206214Y0423380D01*
X0205887Y0423274D02*
X0205214Y0422931D01*
X0204603Y0422486D01*
X0204068Y0421952D01*
X0203624Y0421341D01*
X0203281Y0420668D01*
X0203048Y0419949D01*
X0202930Y0419203D01*
X0202930Y0419025D01*
X0207530Y0419025D01*
X0207530Y0423625D01*
X0207352Y0423625D01*
X0206606Y0423507D01*
X0205887Y0423274D01*
X0206854Y0424425D02*
X0208605Y0424425D01*
X0210222Y0425095D01*
X0211460Y0426333D01*
X0212130Y0427950D01*
X0212130Y0429700D01*
X0211460Y0431318D01*
X0210222Y0432555D01*
X0208605Y0433225D01*
X0206854Y0433225D01*
X0205237Y0432555D01*
X0204000Y0431318D01*
X0203330Y0429700D01*
X0203330Y0427950D01*
X0204000Y0426333D01*
X0205237Y0425095D01*
X0206854Y0424425D01*
X0207530Y0423380D02*
X0207930Y0423380D01*
X0209245Y0423380D02*
X0490247Y0423380D01*
X0488649Y0424978D02*
X0267795Y0424978D01*
X0268971Y0426577D02*
X0487050Y0426577D01*
X0485452Y0428176D02*
X0269449Y0428176D01*
X0269442Y0429774D02*
X0483853Y0429774D01*
X0482255Y0431373D02*
X0268780Y0431373D01*
X0267335Y0432971D02*
X0480656Y0432971D01*
X0479058Y0434570D02*
X0337386Y0434570D01*
X0337237Y0434421D02*
X0338672Y0435856D01*
X0339449Y0437730D01*
X0339449Y0439759D01*
X0338672Y0441634D01*
X0337237Y0443069D01*
X0335604Y0443745D01*
X0337237Y0444421D01*
X0338672Y0445856D01*
X0339449Y0447730D01*
X0339449Y0449759D01*
X0338672Y0451634D01*
X0337237Y0453069D01*
X0335604Y0453745D01*
X0337237Y0454421D01*
X0338672Y0455856D01*
X0339449Y0457730D01*
X0339449Y0459759D01*
X0338672Y0461634D01*
X0337237Y0463069D01*
X0335846Y0463645D01*
X0338628Y0463645D01*
X0339449Y0464465D01*
X0339449Y0473025D01*
X0338628Y0473845D01*
X0330069Y0473845D01*
X0329249Y0473025D01*
X0329249Y0464465D01*
X0330069Y0463645D01*
X0332851Y0463645D01*
X0331460Y0463069D01*
X0330025Y0461634D01*
X0329249Y0459759D01*
X0329249Y0457730D01*
X0330025Y0455856D01*
X0331460Y0454421D01*
X0333093Y0453745D01*
X0331460Y0453069D01*
X0330025Y0451634D01*
X0329249Y0449759D01*
X0329249Y0447730D01*
X0330025Y0445856D01*
X0331460Y0444421D01*
X0333093Y0443745D01*
X0331460Y0443069D01*
X0330025Y0441634D01*
X0329249Y0439759D01*
X0329249Y0437730D01*
X0330025Y0435856D01*
X0331460Y0434421D01*
X0333334Y0433645D01*
X0335363Y0433645D01*
X0337237Y0434421D01*
X0338801Y0436168D02*
X0477459Y0436168D01*
X0475861Y0437767D02*
X0339449Y0437767D01*
X0339449Y0439365D02*
X0443393Y0439365D01*
X0443396Y0439364D02*
X0444701Y0439364D01*
X0445907Y0439863D01*
X0446830Y0440786D01*
X0447330Y0441992D01*
X0447330Y0443298D01*
X0446830Y0444504D01*
X0445907Y0445427D01*
X0444701Y0445926D01*
X0443396Y0445926D01*
X0442190Y0445427D01*
X0441267Y0444504D01*
X0440767Y0443298D01*
X0440767Y0441992D01*
X0441267Y0440786D01*
X0442190Y0439863D01*
X0443396Y0439364D01*
X0444704Y0439365D02*
X0474262Y0439365D01*
X0472664Y0440964D02*
X0446904Y0440964D01*
X0447330Y0442562D02*
X0471065Y0442562D01*
X0469467Y0444161D02*
X0446972Y0444161D01*
X0445104Y0445759D02*
X0467868Y0445759D01*
X0466270Y0447358D02*
X0354901Y0447358D01*
X0354707Y0447163D02*
X0355630Y0448086D01*
X0356130Y0449292D01*
X0356130Y0450598D01*
X0355630Y0451804D01*
X0354707Y0452727D01*
X0353501Y0453226D01*
X0352196Y0453226D01*
X0350990Y0452727D01*
X0350067Y0451804D01*
X0349567Y0450598D01*
X0349567Y0449292D01*
X0350067Y0448086D01*
X0350990Y0447163D01*
X0352196Y0446664D01*
X0353501Y0446664D01*
X0354707Y0447163D01*
X0355990Y0448956D02*
X0464671Y0448956D01*
X0463073Y0450555D02*
X0356130Y0450555D01*
X0355280Y0452153D02*
X0461474Y0452153D01*
X0459875Y0453752D02*
X0335621Y0453752D01*
X0333076Y0453752D02*
X0266663Y0453752D01*
X0268153Y0452153D02*
X0330544Y0452153D01*
X0329578Y0450555D02*
X0269119Y0450555D01*
X0269449Y0448956D02*
X0329249Y0448956D01*
X0329403Y0447358D02*
X0269294Y0447358D01*
X0268575Y0445759D02*
X0330122Y0445759D01*
X0332089Y0444161D02*
X0266608Y0444161D01*
X0267744Y0442562D02*
X0330953Y0442562D01*
X0329747Y0440964D02*
X0268950Y0440964D01*
X0269449Y0439365D02*
X0329249Y0439365D01*
X0329249Y0437767D02*
X0269449Y0437767D01*
X0268801Y0436168D02*
X0329896Y0436168D01*
X0331311Y0434570D02*
X0267386Y0434570D01*
X0261311Y0434570D02*
X0208953Y0434570D01*
X0208605Y0434425D02*
X0210222Y0435095D01*
X0211460Y0436333D01*
X0212130Y0437950D01*
X0212130Y0439700D01*
X0211460Y0441318D01*
X0210222Y0442555D01*
X0208605Y0443225D01*
X0206854Y0443225D01*
X0205237Y0442555D01*
X0204000Y0441318D01*
X0203330Y0439700D01*
X0203330Y0437950D01*
X0204000Y0436333D01*
X0205237Y0435095D01*
X0206854Y0434425D01*
X0208605Y0434425D01*
X0209219Y0432971D02*
X0261362Y0432971D01*
X0259917Y0431373D02*
X0211405Y0431373D01*
X0212099Y0429774D02*
X0259255Y0429774D01*
X0259249Y0428176D02*
X0212130Y0428176D01*
X0211561Y0426577D02*
X0259726Y0426577D01*
X0260903Y0424978D02*
X0209940Y0424978D01*
X0211515Y0421781D02*
X0491846Y0421781D01*
X0493444Y0420183D02*
X0212336Y0420183D01*
X0212530Y0418584D02*
X0495043Y0418584D01*
X0496641Y0416986D02*
X0212179Y0416986D01*
X0207930Y0416986D02*
X0207530Y0416986D01*
X0207530Y0418584D02*
X0207930Y0418584D01*
X0207530Y0418625D02*
X0207530Y0414025D01*
X0207352Y0414025D01*
X0206606Y0414143D01*
X0205887Y0414377D01*
X0205214Y0414720D01*
X0204603Y0415164D01*
X0204068Y0415698D01*
X0203624Y0416310D01*
X0203281Y0416983D01*
X0203048Y0417701D01*
X0202930Y0418447D01*
X0202930Y0418625D01*
X0207530Y0418625D01*
X0207530Y0420183D02*
X0207930Y0420183D01*
X0207930Y0421781D02*
X0207530Y0421781D01*
X0203944Y0421781D02*
X0200996Y0421781D01*
X0201930Y0420183D02*
X0203124Y0420183D01*
X0202930Y0418584D02*
X0202130Y0418584D01*
X0201730Y0416986D02*
X0203280Y0416986D01*
X0204379Y0415387D02*
X0200514Y0415387D01*
X0200587Y0412190D02*
X0204872Y0412190D01*
X0203699Y0410592D02*
X0201760Y0410592D01*
X0202130Y0408993D02*
X0203330Y0408993D01*
X0203560Y0407395D02*
X0201900Y0407395D01*
X0200923Y0405796D02*
X0204536Y0405796D01*
X0205343Y0402599D02*
X0200701Y0402599D01*
X0202008Y0401001D02*
X0203868Y0401001D01*
X0204000Y0401318D02*
X0203330Y0399700D01*
X0203330Y0397950D01*
X0204000Y0396333D01*
X0205237Y0395095D01*
X0206854Y0394425D01*
X0208605Y0394425D01*
X0210222Y0395095D01*
X0211460Y0396333D01*
X0212130Y0397950D01*
X0212130Y0399700D01*
X0211460Y0401318D01*
X0210222Y0402555D01*
X0208605Y0403225D01*
X0206854Y0403225D01*
X0205237Y0402555D01*
X0204000Y0401318D01*
X0203330Y0399402D02*
X0202498Y0399402D01*
X0202530Y0398625D02*
X0197930Y0398625D01*
X0197930Y0394025D01*
X0198107Y0394025D01*
X0198854Y0394143D01*
X0199572Y0394377D01*
X0200245Y0394720D01*
X0200857Y0395164D01*
X0201391Y0395698D01*
X0201835Y0396310D01*
X0202178Y0396983D01*
X0202411Y0397701D01*
X0202530Y0398447D01*
X0202530Y0398625D01*
X0202428Y0397804D02*
X0203390Y0397804D01*
X0204127Y0396205D02*
X0201759Y0396205D01*
X0200023Y0394607D02*
X0206416Y0394607D01*
X0206854Y0393225D02*
X0205237Y0392555D01*
X0204000Y0391318D01*
X0203330Y0389700D01*
X0203330Y0387950D01*
X0204000Y0386333D01*
X0205237Y0385095D01*
X0206854Y0384425D01*
X0208605Y0384425D01*
X0210222Y0385095D01*
X0211460Y0386333D01*
X0212130Y0387950D01*
X0212130Y0389700D01*
X0211460Y0391318D01*
X0210222Y0392555D01*
X0208605Y0393225D01*
X0206854Y0393225D01*
X0206331Y0393008D02*
X0199129Y0393008D01*
X0197930Y0394607D02*
X0197530Y0394607D01*
X0197530Y0396205D02*
X0197930Y0396205D01*
X0197930Y0397804D02*
X0197530Y0397804D01*
X0197530Y0399402D02*
X0197930Y0399402D01*
X0197930Y0401001D02*
X0197530Y0401001D01*
X0197530Y0402599D02*
X0197930Y0402599D01*
X0194536Y0405796D02*
X0172004Y0405796D01*
X0169093Y0405796D02*
X0123177Y0405796D01*
X0124775Y0407395D02*
X0167556Y0407395D01*
X0167267Y0408993D02*
X0126374Y0408993D01*
X0127972Y0410592D02*
X0167762Y0410592D01*
X0147155Y0429774D02*
X0193360Y0429774D01*
X0193330Y0429700D02*
X0193330Y0427950D01*
X0194000Y0426333D01*
X0195237Y0425095D01*
X0196854Y0424425D01*
X0198605Y0424425D01*
X0200222Y0425095D01*
X0201460Y0426333D01*
X0202130Y0427950D01*
X0202130Y0429700D01*
X0201460Y0431318D01*
X0200222Y0432555D01*
X0198605Y0433225D01*
X0196854Y0433225D01*
X0195237Y0432555D01*
X0194000Y0431318D01*
X0193330Y0429700D01*
X0193330Y0428176D02*
X0145556Y0428176D01*
X0143958Y0426577D02*
X0193898Y0426577D01*
X0195519Y0424978D02*
X0142359Y0424978D01*
X0138202Y0428176D02*
X0093148Y0428176D01*
X0094747Y0429774D02*
X0139801Y0429774D01*
X0141399Y0431373D02*
X0096345Y0431373D01*
X0097944Y0432971D02*
X0142998Y0432971D01*
X0144596Y0434570D02*
X0099542Y0434570D01*
X0101141Y0436168D02*
X0146195Y0436168D01*
X0147793Y0437767D02*
X0102739Y0437767D01*
X0104338Y0439365D02*
X0149392Y0439365D01*
X0150990Y0440964D02*
X0105936Y0440964D01*
X0107535Y0442562D02*
X0152589Y0442562D01*
X0154187Y0444161D02*
X0109133Y0444161D01*
X0110732Y0445759D02*
X0155786Y0445759D01*
X0157384Y0447358D02*
X0112330Y0447358D01*
X0113929Y0448956D02*
X0158983Y0448956D01*
X0160581Y0450555D02*
X0115527Y0450555D01*
X0117126Y0452153D02*
X0162180Y0452153D01*
X0163778Y0453752D02*
X0118724Y0453752D01*
X0120323Y0455350D02*
X0165377Y0455350D01*
X0166975Y0456949D02*
X0121922Y0456949D01*
X0123520Y0458547D02*
X0168574Y0458547D01*
X0170172Y0460146D02*
X0125119Y0460146D01*
X0126717Y0461744D02*
X0171090Y0461744D01*
X0171090Y0463343D02*
X0128316Y0463343D01*
X0129914Y0464941D02*
X0171090Y0464941D01*
X0171449Y0466540D02*
X0131513Y0466540D01*
X0133111Y0468138D02*
X0171449Y0468138D01*
X0171604Y0469737D02*
X0134710Y0469737D01*
X0136308Y0471335D02*
X0172862Y0471335D01*
X0174460Y0472934D02*
X0137907Y0472934D01*
X0139505Y0474532D02*
X0195802Y0474532D01*
X0196198Y0473576D02*
X0195023Y0476411D01*
X0195023Y0479480D01*
X0196198Y0482315D01*
X0198367Y0484485D01*
X0201202Y0485659D01*
X0204271Y0485659D01*
X0207106Y0484485D01*
X0209276Y0482315D01*
X0210450Y0479480D01*
X0210450Y0476411D01*
X0209276Y0473576D01*
X0207106Y0471407D01*
X0204271Y0470232D01*
X0201202Y0470232D01*
X0198367Y0471407D01*
X0196198Y0473576D01*
X0196840Y0472934D02*
X0184637Y0472934D01*
X0186235Y0471335D02*
X0198540Y0471335D01*
X0195140Y0476131D02*
X0141104Y0476131D01*
X0142702Y0477729D02*
X0195023Y0477729D01*
X0195023Y0479328D02*
X0144301Y0479328D01*
X0145899Y0480926D02*
X0195622Y0480926D01*
X0196408Y0482525D02*
X0147498Y0482525D01*
X0149096Y0484123D02*
X0198006Y0484123D01*
X0207467Y0484123D02*
X0390919Y0484123D01*
X0391281Y0484485D02*
X0389111Y0482315D01*
X0387937Y0479480D01*
X0387937Y0476411D01*
X0389111Y0473576D01*
X0391281Y0471407D01*
X0394116Y0470232D01*
X0397184Y0470232D01*
X0400019Y0471407D01*
X0402189Y0473576D01*
X0403363Y0476411D01*
X0403363Y0479480D01*
X0402189Y0482315D01*
X0400019Y0484485D01*
X0397184Y0485659D01*
X0394116Y0485659D01*
X0391281Y0484485D01*
X0389321Y0482525D02*
X0267781Y0482525D01*
X0268965Y0480926D02*
X0388536Y0480926D01*
X0387937Y0479328D02*
X0269449Y0479328D01*
X0269448Y0477729D02*
X0387937Y0477729D01*
X0388053Y0476131D02*
X0268786Y0476131D01*
X0267348Y0474532D02*
X0388715Y0474532D01*
X0389754Y0472934D02*
X0339449Y0472934D01*
X0339449Y0471335D02*
X0391453Y0471335D01*
X0399847Y0471335D02*
X0442292Y0471335D01*
X0443890Y0469737D02*
X0339449Y0469737D01*
X0339449Y0468138D02*
X0445489Y0468138D01*
X0447087Y0466540D02*
X0339449Y0466540D01*
X0339449Y0464941D02*
X0448686Y0464941D01*
X0450284Y0463343D02*
X0336575Y0463343D01*
X0338562Y0461744D02*
X0451883Y0461744D01*
X0453481Y0460146D02*
X0339289Y0460146D01*
X0339449Y0458547D02*
X0455080Y0458547D01*
X0456678Y0456949D02*
X0339125Y0456949D01*
X0338166Y0455350D02*
X0458277Y0455350D01*
X0442993Y0445759D02*
X0338575Y0445759D01*
X0339294Y0447358D02*
X0350796Y0447358D01*
X0349707Y0448956D02*
X0339449Y0448956D01*
X0339119Y0450555D02*
X0349567Y0450555D01*
X0350417Y0452153D02*
X0338153Y0452153D01*
X0330531Y0455350D02*
X0268680Y0455350D01*
X0269548Y0456949D02*
X0329572Y0456949D01*
X0329249Y0458547D02*
X0264549Y0458547D01*
X0264148Y0458547D02*
X0212137Y0458547D01*
X0212137Y0456949D02*
X0259149Y0456949D01*
X0260017Y0455350D02*
X0212137Y0455350D01*
X0212137Y0455193D02*
X0212137Y0462352D01*
X0211317Y0463173D01*
X0204157Y0463173D01*
X0203337Y0462352D01*
X0203337Y0455193D01*
X0204157Y0454373D01*
X0211317Y0454373D01*
X0212137Y0455193D01*
X0210222Y0452555D02*
X0208605Y0453225D01*
X0206854Y0453225D01*
X0205237Y0452555D01*
X0204000Y0451318D01*
X0203330Y0449700D01*
X0203330Y0447950D01*
X0204000Y0446333D01*
X0205237Y0445095D01*
X0206854Y0444425D01*
X0208605Y0444425D01*
X0210222Y0445095D01*
X0211460Y0446333D01*
X0212130Y0447950D01*
X0212130Y0449700D01*
X0211460Y0451318D01*
X0210222Y0452555D01*
X0210624Y0452153D02*
X0260544Y0452153D01*
X0259578Y0450555D02*
X0211776Y0450555D01*
X0212130Y0448956D02*
X0259249Y0448956D01*
X0259403Y0447358D02*
X0211884Y0447358D01*
X0210886Y0445759D02*
X0260122Y0445759D01*
X0262089Y0444161D02*
X0161541Y0444161D01*
X0163140Y0445759D02*
X0194573Y0445759D01*
X0194000Y0446333D02*
X0195237Y0445095D01*
X0196854Y0444425D01*
X0198605Y0444425D01*
X0200222Y0445095D01*
X0201460Y0446333D01*
X0202130Y0447950D01*
X0202130Y0449700D01*
X0201460Y0451318D01*
X0200222Y0452555D01*
X0198605Y0453225D01*
X0197572Y0453225D01*
X0196031Y0454766D01*
X0196854Y0454425D01*
X0198605Y0454425D01*
X0200222Y0455095D01*
X0201460Y0456333D01*
X0202130Y0457950D01*
X0202130Y0459700D01*
X0201460Y0461318D01*
X0200222Y0462555D01*
X0198605Y0463225D01*
X0196854Y0463225D01*
X0195237Y0462555D01*
X0194000Y0461318D01*
X0193330Y0459700D01*
X0193330Y0457950D01*
X0194000Y0456333D01*
X0194251Y0456081D01*
X0193943Y0456209D01*
X0179935Y0456209D01*
X0179566Y0456577D01*
X0175651Y0456577D01*
X0174830Y0455757D01*
X0174830Y0454342D01*
X0174608Y0453805D01*
X0174608Y0452612D01*
X0174830Y0452076D01*
X0174830Y0450660D01*
X0175651Y0449840D01*
X0179566Y0449840D01*
X0179935Y0450209D01*
X0192104Y0450209D01*
X0193330Y0448983D01*
X0193330Y0447950D01*
X0194000Y0446333D01*
X0193575Y0447358D02*
X0164738Y0447358D01*
X0166337Y0448956D02*
X0193330Y0448956D01*
X0197046Y0453752D02*
X0262034Y0453752D01*
X0259021Y0460146D02*
X0212137Y0460146D01*
X0212137Y0461744D02*
X0259729Y0461744D01*
X0261320Y0463343D02*
X0184526Y0463343D01*
X0184526Y0463445D02*
X0181349Y0463445D01*
X0181349Y0463445D01*
X0181348Y0463445D01*
X0181348Y0463445D01*
X0178171Y0463445D01*
X0178171Y0461239D01*
X0178293Y0460782D01*
X0178530Y0460371D01*
X0178865Y0460036D01*
X0179276Y0459799D01*
X0179734Y0459676D01*
X0181348Y0459676D01*
X0181348Y0463445D01*
X0178171Y0463445D01*
X0178171Y0465650D01*
X0178293Y0466108D01*
X0178530Y0466519D01*
X0178865Y0466854D01*
X0179276Y0467091D01*
X0179734Y0467213D01*
X0181348Y0467213D01*
X0181348Y0463445D01*
X0181349Y0463445D01*
X0181349Y0459676D01*
X0182963Y0459676D01*
X0183421Y0459799D01*
X0183832Y0460036D01*
X0184167Y0460371D01*
X0184404Y0460782D01*
X0184526Y0461239D01*
X0184526Y0463445D01*
X0184526Y0464941D02*
X0185275Y0464941D01*
X0184526Y0461744D02*
X0194426Y0461744D01*
X0193514Y0460146D02*
X0183941Y0460146D01*
X0181349Y0460146D02*
X0181348Y0460146D01*
X0181348Y0461744D02*
X0181349Y0461744D01*
X0181348Y0463343D02*
X0181349Y0463343D01*
X0181348Y0464941D02*
X0181349Y0464941D01*
X0181348Y0466540D02*
X0181349Y0466540D01*
X0182078Y0468138D02*
X0177019Y0468138D01*
X0176649Y0466540D02*
X0178551Y0466540D01*
X0178171Y0464941D02*
X0176649Y0464941D01*
X0176649Y0463343D02*
X0178171Y0463343D01*
X0178171Y0461744D02*
X0176646Y0461744D01*
X0176468Y0460146D02*
X0178756Y0460146D01*
X0175928Y0458547D02*
X0193330Y0458547D01*
X0193744Y0456949D02*
X0174329Y0456949D01*
X0174830Y0455350D02*
X0172731Y0455350D01*
X0171132Y0453752D02*
X0174608Y0453752D01*
X0174798Y0452153D02*
X0169534Y0452153D01*
X0167935Y0450555D02*
X0174936Y0450555D01*
X0159943Y0442562D02*
X0194707Y0442562D01*
X0194603Y0442486D02*
X0194068Y0441952D01*
X0193624Y0441341D01*
X0193281Y0440668D01*
X0193048Y0439949D01*
X0192930Y0439203D01*
X0192930Y0439025D01*
X0197530Y0439025D01*
X0197530Y0438625D01*
X0197930Y0438625D01*
X0197930Y0439025D01*
X0202530Y0439025D01*
X0202530Y0439203D01*
X0202411Y0439949D01*
X0202178Y0440668D01*
X0201835Y0441341D01*
X0201391Y0441952D01*
X0200857Y0442486D01*
X0200245Y0442931D01*
X0199572Y0443274D01*
X0198854Y0443507D01*
X0198107Y0443625D01*
X0197930Y0443625D01*
X0197930Y0439025D01*
X0197530Y0439025D01*
X0197530Y0443625D01*
X0197352Y0443625D01*
X0196606Y0443507D01*
X0195887Y0443274D01*
X0195214Y0442931D01*
X0194603Y0442486D01*
X0193432Y0440964D02*
X0158344Y0440964D01*
X0156746Y0439365D02*
X0192955Y0439365D01*
X0192930Y0438625D02*
X0192930Y0438447D01*
X0193048Y0437701D01*
X0193281Y0436983D01*
X0193624Y0436310D01*
X0194068Y0435698D01*
X0194603Y0435164D01*
X0195214Y0434720D01*
X0195887Y0434377D01*
X0196606Y0434143D01*
X0197352Y0434025D01*
X0197530Y0434025D01*
X0197530Y0438625D01*
X0192930Y0438625D01*
X0193037Y0437767D02*
X0155147Y0437767D01*
X0153549Y0436168D02*
X0193727Y0436168D01*
X0195509Y0434570D02*
X0151950Y0434570D01*
X0150352Y0432971D02*
X0196241Y0432971D01*
X0197930Y0434025D02*
X0198107Y0434025D01*
X0198854Y0434143D01*
X0199572Y0434377D01*
X0200245Y0434720D01*
X0200857Y0435164D01*
X0201391Y0435698D01*
X0201835Y0436310D01*
X0202178Y0436983D01*
X0202411Y0437701D01*
X0202530Y0438447D01*
X0202530Y0438625D01*
X0197930Y0438625D01*
X0197930Y0434025D01*
X0197930Y0434570D02*
X0197530Y0434570D01*
X0197530Y0436168D02*
X0197930Y0436168D01*
X0197930Y0437767D02*
X0197530Y0437767D01*
X0197530Y0439365D02*
X0197930Y0439365D01*
X0197930Y0440964D02*
X0197530Y0440964D01*
X0197530Y0442562D02*
X0197930Y0442562D01*
X0200753Y0442562D02*
X0205253Y0442562D01*
X0203853Y0440964D02*
X0202027Y0440964D01*
X0202504Y0439365D02*
X0203330Y0439365D01*
X0203406Y0437767D02*
X0202422Y0437767D01*
X0201732Y0436168D02*
X0204164Y0436168D01*
X0206506Y0434570D02*
X0199950Y0434570D01*
X0199219Y0432971D02*
X0206241Y0432971D01*
X0204054Y0431373D02*
X0201405Y0431373D01*
X0202099Y0429774D02*
X0203360Y0429774D01*
X0203330Y0428176D02*
X0202130Y0428176D01*
X0201561Y0426577D02*
X0203898Y0426577D01*
X0205519Y0424978D02*
X0199940Y0424978D01*
X0194054Y0431373D02*
X0148753Y0431373D01*
X0136604Y0426577D02*
X0091550Y0426577D01*
X0089951Y0424978D02*
X0135005Y0424978D01*
X0133407Y0423380D02*
X0088353Y0423380D01*
X0086754Y0421781D02*
X0131808Y0421781D01*
X0130210Y0420183D02*
X0085156Y0420183D01*
X0083557Y0418584D02*
X0128611Y0418584D01*
X0127013Y0416986D02*
X0081959Y0416986D01*
X0080360Y0415387D02*
X0125414Y0415387D01*
X0123816Y0413789D02*
X0078762Y0413789D01*
X0077163Y0412190D02*
X0122217Y0412190D01*
X0120619Y0410592D02*
X0075565Y0410592D01*
X0073966Y0408993D02*
X0119020Y0408993D01*
X0117422Y0407395D02*
X0072368Y0407395D01*
X0070769Y0405796D02*
X0115823Y0405796D01*
X0114224Y0404198D02*
X0069171Y0404198D01*
X0067572Y0402599D02*
X0112626Y0402599D01*
X0111027Y0401001D02*
X0065974Y0401001D01*
X0064375Y0399402D02*
X0109429Y0399402D01*
X0107830Y0397804D02*
X0062777Y0397804D01*
X0061178Y0396205D02*
X0106232Y0396205D01*
X0104633Y0394607D02*
X0059580Y0394607D01*
X0057981Y0393008D02*
X0103035Y0393008D01*
X0101436Y0391410D02*
X0056383Y0391410D01*
X0054784Y0389811D02*
X0099838Y0389811D01*
X0105445Y0361038D02*
X0118542Y0361038D01*
X0118996Y0361226D02*
X0117790Y0360727D01*
X0116867Y0359804D01*
X0116367Y0358598D01*
X0116367Y0357292D01*
X0116867Y0356086D01*
X0117749Y0355205D01*
X0117749Y0341485D01*
X0116867Y0340604D01*
X0116367Y0339398D01*
X0116367Y0338092D01*
X0116867Y0336886D01*
X0117790Y0335963D01*
X0118996Y0335464D01*
X0120301Y0335464D01*
X0121507Y0335963D01*
X0122430Y0336886D01*
X0122930Y0338092D01*
X0122930Y0339398D01*
X0122430Y0340604D01*
X0121549Y0341485D01*
X0121549Y0355205D01*
X0122430Y0356086D01*
X0122930Y0357292D01*
X0122930Y0358598D01*
X0122430Y0359804D01*
X0121507Y0360727D01*
X0120301Y0361226D01*
X0118996Y0361226D01*
X0120755Y0361038D02*
X0193884Y0361038D01*
X0193330Y0359440D02*
X0122581Y0359440D01*
X0122930Y0357841D02*
X0193375Y0357841D01*
X0194090Y0356242D02*
X0122495Y0356242D01*
X0121549Y0354644D02*
X0196326Y0354644D01*
X0196854Y0353225D02*
X0195237Y0352555D01*
X0194000Y0351318D01*
X0193330Y0349700D01*
X0193330Y0347950D01*
X0194000Y0346333D01*
X0195237Y0345095D01*
X0196854Y0344425D01*
X0198605Y0344425D01*
X0200222Y0345095D01*
X0201460Y0346333D01*
X0202130Y0347950D01*
X0202130Y0349700D01*
X0201460Y0351318D01*
X0200222Y0352555D01*
X0198605Y0353225D01*
X0196854Y0353225D01*
X0196420Y0353045D02*
X0121549Y0353045D01*
X0121549Y0351447D02*
X0194129Y0351447D01*
X0193391Y0349848D02*
X0121549Y0349848D01*
X0121549Y0348250D02*
X0193330Y0348250D01*
X0193868Y0346651D02*
X0121549Y0346651D01*
X0121549Y0345053D02*
X0195339Y0345053D01*
X0196854Y0343225D02*
X0195237Y0342555D01*
X0194000Y0341318D01*
X0193330Y0339700D01*
X0193330Y0337950D01*
X0194000Y0336333D01*
X0195237Y0335095D01*
X0196854Y0334425D01*
X0198605Y0334425D01*
X0200222Y0335095D01*
X0201460Y0336333D01*
X0202130Y0337950D01*
X0202130Y0339700D01*
X0201460Y0341318D01*
X0200222Y0342555D01*
X0198605Y0343225D01*
X0196854Y0343225D01*
X0194538Y0341856D02*
X0121549Y0341856D01*
X0121549Y0343454D02*
X0206444Y0343454D01*
X0206606Y0343507D02*
X0205887Y0343274D01*
X0205214Y0342931D01*
X0204603Y0342486D01*
X0204068Y0341952D01*
X0203624Y0341341D01*
X0203281Y0340668D01*
X0203048Y0339949D01*
X0202930Y0339203D01*
X0202930Y0339025D01*
X0207530Y0339025D01*
X0207530Y0338625D01*
X0207930Y0338625D01*
X0207930Y0339025D01*
X0212530Y0339025D01*
X0212530Y0339203D01*
X0212411Y0339949D01*
X0212178Y0340668D01*
X0211835Y0341341D01*
X0211391Y0341952D01*
X0210857Y0342486D01*
X0210245Y0342931D01*
X0209572Y0343274D01*
X0208854Y0343507D01*
X0208107Y0343625D01*
X0207930Y0343625D01*
X0207930Y0339025D01*
X0207530Y0339025D01*
X0207530Y0343625D01*
X0207352Y0343625D01*
X0206606Y0343507D01*
X0207530Y0343454D02*
X0207930Y0343454D01*
X0209016Y0343454D02*
X0374518Y0343454D01*
X0374690Y0343627D02*
X0373767Y0342704D01*
X0373267Y0341498D01*
X0373267Y0340192D01*
X0373767Y0338986D01*
X0374690Y0338063D01*
X0375896Y0337564D01*
X0377201Y0337564D01*
X0378407Y0338063D01*
X0378989Y0338645D01*
X0448460Y0338645D01*
X0449749Y0339934D01*
X0454379Y0344564D01*
X0455201Y0344564D01*
X0456407Y0345063D01*
X0457330Y0345986D01*
X0457830Y0347192D01*
X0457830Y0348498D01*
X0457330Y0349704D01*
X0456407Y0350627D01*
X0455201Y0351126D01*
X0453896Y0351126D01*
X0452690Y0350627D01*
X0451767Y0349704D01*
X0451267Y0348498D01*
X0451267Y0347675D01*
X0446637Y0343045D01*
X0435909Y0343045D01*
X0436660Y0343797D01*
X0436660Y0344145D01*
X0438960Y0344145D01*
X0439379Y0344564D01*
X0440201Y0344564D01*
X0441407Y0345063D01*
X0442330Y0345986D01*
X0442830Y0347192D01*
X0442830Y0348498D01*
X0442330Y0349704D01*
X0441407Y0350627D01*
X0440201Y0351126D01*
X0438896Y0351126D01*
X0437690Y0350627D01*
X0436767Y0349704D01*
X0436498Y0349055D01*
X0435840Y0349713D01*
X0430350Y0349713D01*
X0429749Y0349112D01*
X0429147Y0349713D01*
X0426145Y0349713D01*
X0425749Y0350110D01*
X0425749Y0353405D01*
X0426330Y0353986D01*
X0426830Y0355192D01*
X0426830Y0356498D01*
X0426330Y0357704D01*
X0425407Y0358627D01*
X0424201Y0359126D01*
X0422896Y0359126D01*
X0421690Y0358627D01*
X0420767Y0357704D01*
X0420267Y0356498D01*
X0420267Y0355192D01*
X0420767Y0353986D01*
X0421349Y0353405D01*
X0421349Y0348287D01*
X0422837Y0346799D01*
X0422837Y0343797D01*
X0423588Y0343045D01*
X0378989Y0343045D01*
X0378407Y0343627D01*
X0377201Y0344126D01*
X0375896Y0344126D01*
X0374690Y0343627D01*
X0373416Y0341856D02*
X0211461Y0341856D01*
X0212311Y0340257D02*
X0373267Y0340257D01*
X0374094Y0338659D02*
X0207930Y0338659D01*
X0207930Y0338625D02*
X0212530Y0338625D01*
X0212530Y0338447D01*
X0212411Y0337701D01*
X0212178Y0336983D01*
X0211835Y0336310D01*
X0211391Y0335698D01*
X0210857Y0335164D01*
X0210245Y0334720D01*
X0209572Y0334377D01*
X0208854Y0334143D01*
X0208107Y0334025D01*
X0207930Y0334025D01*
X0207930Y0338625D01*
X0207530Y0338625D02*
X0207530Y0334025D01*
X0207352Y0334025D01*
X0206606Y0334143D01*
X0205887Y0334377D01*
X0205214Y0334720D01*
X0204603Y0335164D01*
X0204068Y0335698D01*
X0203624Y0336310D01*
X0203281Y0336983D01*
X0203048Y0337701D01*
X0202930Y0338447D01*
X0202930Y0338625D01*
X0207530Y0338625D01*
X0207530Y0338659D02*
X0202130Y0338659D01*
X0201899Y0340257D02*
X0203148Y0340257D01*
X0203998Y0341856D02*
X0200922Y0341856D01*
X0200120Y0345053D02*
X0205339Y0345053D01*
X0205237Y0345095D02*
X0206854Y0344425D01*
X0208605Y0344425D01*
X0210222Y0345095D01*
X0211460Y0346333D01*
X0212130Y0347950D01*
X0212130Y0349700D01*
X0211460Y0351318D01*
X0210222Y0352555D01*
X0208605Y0353225D01*
X0206854Y0353225D01*
X0205237Y0352555D01*
X0204000Y0351318D01*
X0203330Y0349700D01*
X0203330Y0347950D01*
X0204000Y0346333D01*
X0205237Y0345095D01*
X0203868Y0346651D02*
X0201592Y0346651D01*
X0202130Y0348250D02*
X0203330Y0348250D01*
X0203391Y0349848D02*
X0202068Y0349848D01*
X0201330Y0351447D02*
X0204129Y0351447D01*
X0206420Y0353045D02*
X0199039Y0353045D01*
X0199133Y0354644D02*
X0206326Y0354644D01*
X0206854Y0354425D02*
X0208605Y0354425D01*
X0210222Y0355095D01*
X0211460Y0356333D01*
X0212130Y0357950D01*
X0212130Y0359700D01*
X0211460Y0361318D01*
X0210222Y0362555D01*
X0208605Y0363225D01*
X0206854Y0363225D01*
X0205237Y0362555D01*
X0204000Y0361318D01*
X0203330Y0359700D01*
X0203330Y0357950D01*
X0204000Y0356333D01*
X0205237Y0355095D01*
X0206854Y0354425D01*
X0209133Y0354644D02*
X0390807Y0354644D01*
X0390767Y0354604D02*
X0390267Y0353398D01*
X0390267Y0352092D01*
X0390767Y0350886D01*
X0391690Y0349963D01*
X0392896Y0349464D01*
X0394201Y0349464D01*
X0395407Y0349963D01*
X0396330Y0350886D01*
X0396830Y0352092D01*
X0396830Y0353398D01*
X0396330Y0354604D01*
X0395407Y0355527D01*
X0394201Y0356026D01*
X0392896Y0356026D01*
X0391690Y0355527D01*
X0390767Y0354604D01*
X0390267Y0353045D02*
X0209039Y0353045D01*
X0211330Y0351447D02*
X0390535Y0351447D01*
X0391967Y0349848D02*
X0212068Y0349848D01*
X0212130Y0348250D02*
X0421386Y0348250D01*
X0421349Y0349848D02*
X0395130Y0349848D01*
X0396562Y0351447D02*
X0421349Y0351447D01*
X0421349Y0353045D02*
X0396830Y0353045D01*
X0396290Y0354644D02*
X0420495Y0354644D01*
X0420267Y0356242D02*
X0211369Y0356242D01*
X0212084Y0357841D02*
X0420904Y0357841D01*
X0423549Y0355845D02*
X0423549Y0349198D01*
X0426402Y0346345D01*
X0426010Y0349848D02*
X0436912Y0349848D01*
X0439549Y0347845D02*
X0438049Y0346345D01*
X0433095Y0346345D01*
X0436318Y0343454D02*
X0447047Y0343454D01*
X0448645Y0345053D02*
X0441382Y0345053D01*
X0442606Y0346651D02*
X0450244Y0346651D01*
X0451267Y0348250D02*
X0442830Y0348250D01*
X0442185Y0349848D02*
X0451912Y0349848D01*
X0454549Y0347845D02*
X0447549Y0340845D01*
X0376549Y0340845D01*
X0378579Y0343454D02*
X0423179Y0343454D01*
X0422837Y0345053D02*
X0210120Y0345053D01*
X0211592Y0346651D02*
X0422837Y0346651D01*
X0425749Y0351447D02*
X0526616Y0351447D01*
X0526616Y0353045D02*
X0425749Y0353045D01*
X0426603Y0354644D02*
X0526616Y0354644D01*
X0526616Y0356242D02*
X0426830Y0356242D01*
X0426193Y0357841D02*
X0526616Y0357841D01*
X0526616Y0359440D02*
X0212130Y0359440D01*
X0211576Y0361038D02*
X0526616Y0361038D01*
X0526616Y0362637D02*
X0210026Y0362637D01*
X0210960Y0365834D02*
X0246157Y0365834D01*
X0245967Y0366292D02*
X0246467Y0365086D01*
X0247390Y0364163D01*
X0248596Y0363664D01*
X0249901Y0363664D01*
X0251107Y0364163D01*
X0252030Y0365086D01*
X0252530Y0366292D01*
X0252530Y0367598D01*
X0252030Y0368804D01*
X0251107Y0369727D01*
X0249901Y0370226D01*
X0248596Y0370226D01*
X0247390Y0369727D01*
X0246467Y0368804D01*
X0245967Y0367598D01*
X0245967Y0366292D01*
X0245967Y0367432D02*
X0211915Y0367432D01*
X0212130Y0369031D02*
X0246694Y0369031D01*
X0247318Y0364235D02*
X0199136Y0364235D01*
X0198854Y0364143D02*
X0199572Y0364377D01*
X0200245Y0364720D01*
X0200857Y0365164D01*
X0201391Y0365698D01*
X0201835Y0366310D01*
X0202178Y0366983D01*
X0202411Y0367701D01*
X0202530Y0368447D01*
X0202530Y0368625D01*
X0197930Y0368625D01*
X0197930Y0364025D01*
X0198107Y0364025D01*
X0198854Y0364143D01*
X0197930Y0364235D02*
X0197530Y0364235D01*
X0197530Y0365834D02*
X0197930Y0365834D01*
X0197930Y0367432D02*
X0197530Y0367432D01*
X0197530Y0369031D02*
X0197930Y0369031D01*
X0197930Y0370629D02*
X0197530Y0370629D01*
X0197530Y0372228D02*
X0197930Y0372228D01*
X0201116Y0372228D02*
X0204909Y0372228D01*
X0203714Y0370629D02*
X0202191Y0370629D01*
X0202530Y0369031D02*
X0203330Y0369031D01*
X0203544Y0367432D02*
X0202324Y0367432D01*
X0201489Y0365834D02*
X0204499Y0365834D01*
X0205433Y0362637D02*
X0200026Y0362637D01*
X0201576Y0361038D02*
X0203884Y0361038D01*
X0203330Y0359440D02*
X0202130Y0359440D01*
X0202084Y0357841D02*
X0203375Y0357841D01*
X0204090Y0356242D02*
X0201369Y0356242D01*
X0207530Y0341856D02*
X0207930Y0341856D01*
X0207930Y0340257D02*
X0207530Y0340257D01*
X0207530Y0337060D02*
X0207930Y0337060D01*
X0207930Y0335462D02*
X0207530Y0335462D01*
X0206854Y0333225D02*
X0205237Y0332555D01*
X0204000Y0331318D01*
X0203330Y0329700D01*
X0203330Y0327950D01*
X0204000Y0326333D01*
X0205237Y0325095D01*
X0206854Y0324425D01*
X0208605Y0324425D01*
X0210222Y0325095D01*
X0211460Y0326333D01*
X0212130Y0327950D01*
X0212130Y0329700D01*
X0211460Y0331318D01*
X0210222Y0332555D01*
X0208605Y0333225D01*
X0206854Y0333225D01*
X0204947Y0332265D02*
X0200513Y0332265D01*
X0200222Y0332555D02*
X0198605Y0333225D01*
X0196854Y0333225D01*
X0195237Y0332555D01*
X0194000Y0331318D01*
X0193330Y0329700D01*
X0193330Y0327950D01*
X0194000Y0326333D01*
X0195237Y0325095D01*
X0196854Y0324425D01*
X0198605Y0324425D01*
X0200222Y0325095D01*
X0201460Y0326333D01*
X0202130Y0327950D01*
X0202130Y0329700D01*
X0201460Y0331318D01*
X0200222Y0332555D01*
X0201730Y0330666D02*
X0203730Y0330666D01*
X0203330Y0329068D02*
X0202130Y0329068D01*
X0201930Y0327469D02*
X0203529Y0327469D01*
X0204462Y0325871D02*
X0200998Y0325871D01*
X0199572Y0323274D02*
X0198854Y0323507D01*
X0198107Y0323625D01*
X0197930Y0323625D01*
X0197930Y0319025D01*
X0202530Y0319025D01*
X0202530Y0319203D01*
X0202411Y0319949D01*
X0202178Y0320668D01*
X0201835Y0321341D01*
X0201391Y0321952D01*
X0200857Y0322486D01*
X0200245Y0322931D01*
X0199572Y0323274D01*
X0200599Y0322674D02*
X0205523Y0322674D01*
X0205237Y0322555D02*
X0204000Y0321318D01*
X0203330Y0319700D01*
X0203330Y0317950D01*
X0204000Y0316333D01*
X0205237Y0315095D01*
X0206854Y0314425D01*
X0208605Y0314425D01*
X0210222Y0315095D01*
X0211460Y0316333D01*
X0212130Y0317950D01*
X0212130Y0319700D01*
X0211460Y0321318D01*
X0210222Y0322555D01*
X0208605Y0323225D01*
X0206854Y0323225D01*
X0205237Y0322555D01*
X0203899Y0321075D02*
X0201970Y0321075D01*
X0202486Y0319477D02*
X0203330Y0319477D01*
X0202530Y0318625D02*
X0197930Y0318625D01*
X0197930Y0319025D01*
X0197530Y0319025D01*
X0197530Y0318625D01*
X0197930Y0318625D01*
X0197930Y0314025D01*
X0198107Y0314025D01*
X0198854Y0314143D01*
X0199572Y0314377D01*
X0200245Y0314720D01*
X0200857Y0315164D01*
X0201391Y0315698D01*
X0201835Y0316310D01*
X0202178Y0316983D01*
X0202411Y0317701D01*
X0202530Y0318447D01*
X0202530Y0318625D01*
X0202439Y0317878D02*
X0203359Y0317878D01*
X0204053Y0316280D02*
X0201813Y0316280D01*
X0200169Y0314681D02*
X0206237Y0314681D01*
X0206854Y0313225D02*
X0205237Y0312555D01*
X0204000Y0311318D01*
X0203330Y0309700D01*
X0203330Y0307950D01*
X0204000Y0306333D01*
X0205237Y0305095D01*
X0206854Y0304425D01*
X0208605Y0304425D01*
X0210222Y0305095D01*
X0211460Y0306333D01*
X0212130Y0307950D01*
X0212130Y0309700D01*
X0211460Y0311318D01*
X0210222Y0312555D01*
X0208605Y0313225D01*
X0206854Y0313225D01*
X0206510Y0313083D02*
X0198949Y0313083D01*
X0197530Y0314025D02*
X0197530Y0318625D01*
X0192930Y0318625D01*
X0192930Y0318447D01*
X0193048Y0317701D01*
X0193281Y0316983D01*
X0193624Y0316310D01*
X0194068Y0315698D01*
X0194603Y0315164D01*
X0195214Y0314720D01*
X0195887Y0314377D01*
X0196606Y0314143D01*
X0197352Y0314025D01*
X0197530Y0314025D01*
X0197530Y0314681D02*
X0197930Y0314681D01*
X0197930Y0316280D02*
X0197530Y0316280D01*
X0197530Y0317878D02*
X0197930Y0317878D01*
X0197530Y0319025D02*
X0192930Y0319025D01*
X0192930Y0319203D01*
X0193048Y0319949D01*
X0193281Y0320668D01*
X0193624Y0321341D01*
X0194068Y0321952D01*
X0194603Y0322486D01*
X0195214Y0322931D01*
X0195887Y0323274D01*
X0196606Y0323507D01*
X0197352Y0323625D01*
X0197530Y0323625D01*
X0197530Y0319025D01*
X0197530Y0319477D02*
X0197930Y0319477D01*
X0197930Y0321075D02*
X0197530Y0321075D01*
X0197530Y0322674D02*
X0197930Y0322674D01*
X0194860Y0322674D02*
X0080054Y0322674D01*
X0078456Y0321075D02*
X0193489Y0321075D01*
X0192973Y0319477D02*
X0076857Y0319477D01*
X0075259Y0317878D02*
X0193020Y0317878D01*
X0193646Y0316280D02*
X0073660Y0316280D01*
X0072949Y0314681D02*
X0195290Y0314681D01*
X0196510Y0313083D02*
X0072949Y0313083D01*
X0071329Y0308287D02*
X0193330Y0308287D01*
X0193852Y0306689D02*
X0072927Y0306689D01*
X0072949Y0305090D02*
X0195249Y0305090D01*
X0195887Y0303274D02*
X0195214Y0302931D01*
X0194603Y0302486D01*
X0194068Y0301952D01*
X0193624Y0301341D01*
X0193281Y0300668D01*
X0193048Y0299949D01*
X0192930Y0299203D01*
X0192930Y0299025D01*
X0197530Y0299025D01*
X0197530Y0298625D01*
X0197930Y0298625D01*
X0197930Y0299025D01*
X0202530Y0299025D01*
X0202530Y0299203D01*
X0202411Y0299949D01*
X0202178Y0300668D01*
X0201835Y0301341D01*
X0201391Y0301952D01*
X0200857Y0302486D01*
X0200245Y0302931D01*
X0199572Y0303274D01*
X0198854Y0303507D01*
X0198107Y0303625D01*
X0197930Y0303625D01*
X0197930Y0299025D01*
X0197530Y0299025D01*
X0197530Y0303625D01*
X0197352Y0303625D01*
X0196606Y0303507D01*
X0195887Y0303274D01*
X0196558Y0303492D02*
X0072949Y0303492D01*
X0071819Y0301893D02*
X0194025Y0301893D01*
X0193160Y0300295D02*
X0051984Y0300295D01*
X0051984Y0301893D02*
X0055278Y0301893D01*
X0054149Y0303492D02*
X0051984Y0303492D01*
X0051984Y0305090D02*
X0054149Y0305090D01*
X0054170Y0306689D02*
X0051984Y0306689D01*
X0051984Y0308287D02*
X0055768Y0308287D01*
X0061738Y0317878D02*
X0065359Y0317878D01*
X0066096Y0321075D02*
X0061001Y0321075D01*
X0062600Y0322674D02*
X0064497Y0322674D01*
X0064149Y0324272D02*
X0062949Y0324272D01*
X0062949Y0325871D02*
X0064149Y0325871D01*
X0064950Y0327469D02*
X0062147Y0327469D01*
X0060548Y0329068D02*
X0066549Y0329068D01*
X0066505Y0330666D02*
X0060592Y0330666D01*
X0062191Y0332265D02*
X0064906Y0332265D01*
X0064149Y0333863D02*
X0062949Y0333863D01*
X0062949Y0335462D02*
X0064149Y0335462D01*
X0064541Y0337060D02*
X0062556Y0337060D01*
X0060957Y0338659D02*
X0066140Y0338659D01*
X0065315Y0341856D02*
X0061782Y0341856D01*
X0062949Y0343454D02*
X0064149Y0343454D01*
X0064149Y0345053D02*
X0062949Y0345053D01*
X0062949Y0346651D02*
X0064149Y0346651D01*
X0065731Y0348250D02*
X0061366Y0348250D01*
X0072949Y0346651D02*
X0077470Y0346651D01*
X0077470Y0345053D02*
X0072949Y0345053D01*
X0072949Y0343454D02*
X0077470Y0343454D01*
X0077470Y0341856D02*
X0071782Y0341856D01*
X0054541Y0337060D02*
X0051984Y0337060D01*
X0051984Y0335462D02*
X0054149Y0335462D01*
X0054149Y0333863D02*
X0051984Y0333863D01*
X0051984Y0332265D02*
X0054906Y0332265D01*
X0056505Y0330666D02*
X0051984Y0330666D01*
X0051984Y0329068D02*
X0056549Y0329068D01*
X0054950Y0327469D02*
X0051984Y0327469D01*
X0051984Y0325871D02*
X0054149Y0325871D01*
X0054149Y0324272D02*
X0051984Y0324272D01*
X0051984Y0322674D02*
X0054497Y0322674D01*
X0056177Y0298696D02*
X0051984Y0298696D01*
X0051984Y0297098D02*
X0054579Y0297098D01*
X0054149Y0295499D02*
X0051984Y0295499D01*
X0051984Y0293901D02*
X0054149Y0293901D01*
X0054869Y0292302D02*
X0051984Y0292302D01*
X0051984Y0290704D02*
X0056467Y0290704D01*
X0056586Y0289105D02*
X0051984Y0289105D01*
X0051984Y0287507D02*
X0054988Y0287507D01*
X0054149Y0285908D02*
X0051984Y0285908D01*
X0051984Y0284309D02*
X0054149Y0284309D01*
X0054460Y0282711D02*
X0051984Y0282711D01*
X0051984Y0281112D02*
X0056059Y0281112D01*
X0055397Y0277915D02*
X0051984Y0277915D01*
X0051984Y0276317D02*
X0054149Y0276317D01*
X0054149Y0274718D02*
X0051984Y0274718D01*
X0051984Y0273120D02*
X0054149Y0273120D01*
X0055650Y0271521D02*
X0051984Y0271521D01*
X0051984Y0269923D02*
X0193422Y0269923D01*
X0193330Y0269700D02*
X0193330Y0267950D01*
X0194000Y0266333D01*
X0195237Y0265095D01*
X0196854Y0264425D01*
X0198605Y0264425D01*
X0200222Y0265095D01*
X0201460Y0266333D01*
X0202130Y0267950D01*
X0202130Y0269700D01*
X0201460Y0271318D01*
X0200222Y0272555D01*
X0198605Y0273225D01*
X0196854Y0273225D01*
X0195237Y0272555D01*
X0194000Y0271318D01*
X0193330Y0269700D01*
X0193330Y0268324D02*
X0071292Y0268324D01*
X0072890Y0266726D02*
X0193837Y0266726D01*
X0195205Y0265127D02*
X0072949Y0265127D01*
X0072949Y0263529D02*
X0504449Y0263529D01*
X0504449Y0263147D02*
X0506850Y0260745D01*
X0510247Y0260745D01*
X0512649Y0263147D01*
X0512649Y0266543D01*
X0510247Y0268945D01*
X0506850Y0268945D01*
X0504449Y0266543D01*
X0504449Y0263147D01*
X0505665Y0261930D02*
X0071856Y0261930D01*
X0070883Y0258733D02*
X0506639Y0258733D01*
X0506850Y0258945D02*
X0504449Y0256543D01*
X0504449Y0253147D01*
X0506850Y0250745D01*
X0510247Y0250745D01*
X0512649Y0253147D01*
X0512649Y0256543D01*
X0510247Y0258945D01*
X0506850Y0258945D01*
X0505040Y0257135D02*
X0397614Y0257135D01*
X0397184Y0257313D02*
X0394116Y0257313D01*
X0391281Y0256138D01*
X0389111Y0253969D01*
X0387937Y0251134D01*
X0387937Y0248065D01*
X0389111Y0245230D01*
X0391281Y0243060D01*
X0394116Y0241886D01*
X0397184Y0241886D01*
X0400019Y0243060D01*
X0402189Y0245230D01*
X0403363Y0248065D01*
X0403363Y0251134D01*
X0402189Y0253969D01*
X0400019Y0256138D01*
X0397184Y0257313D01*
X0393686Y0257135D02*
X0204700Y0257135D01*
X0204271Y0257313D02*
X0201202Y0257313D01*
X0198367Y0256138D01*
X0196198Y0253969D01*
X0195023Y0251134D01*
X0195023Y0248065D01*
X0196198Y0245230D01*
X0198367Y0243060D01*
X0201202Y0241886D01*
X0204271Y0241886D01*
X0207106Y0243060D01*
X0209276Y0245230D01*
X0210450Y0248065D01*
X0210450Y0251134D01*
X0209276Y0253969D01*
X0207106Y0256138D01*
X0204271Y0257313D01*
X0200773Y0257135D02*
X0072481Y0257135D01*
X0072949Y0255536D02*
X0197765Y0255536D01*
X0196185Y0253938D02*
X0072949Y0253938D01*
X0072265Y0252339D02*
X0195523Y0252339D01*
X0195023Y0250741D02*
X0070667Y0250741D01*
X0070474Y0249142D02*
X0195023Y0249142D01*
X0195239Y0247544D02*
X0072072Y0247544D01*
X0072949Y0245945D02*
X0195901Y0245945D01*
X0197081Y0244347D02*
X0072949Y0244347D01*
X0072674Y0242748D02*
X0199121Y0242748D01*
X0206353Y0242748D02*
X0392034Y0242748D01*
X0389994Y0244347D02*
X0208393Y0244347D01*
X0209572Y0245945D02*
X0388815Y0245945D01*
X0388153Y0247544D02*
X0210234Y0247544D01*
X0210450Y0249142D02*
X0387937Y0249142D01*
X0387937Y0250741D02*
X0210450Y0250741D01*
X0209951Y0252339D02*
X0388436Y0252339D01*
X0389098Y0253938D02*
X0209289Y0253938D01*
X0207708Y0255536D02*
X0390679Y0255536D01*
X0400621Y0255536D02*
X0504449Y0255536D01*
X0504449Y0253938D02*
X0402202Y0253938D01*
X0402864Y0252339D02*
X0505256Y0252339D01*
X0506850Y0248945D02*
X0504449Y0246543D01*
X0504449Y0243147D01*
X0506850Y0240745D01*
X0510247Y0240745D01*
X0512649Y0243147D01*
X0512649Y0246543D01*
X0510247Y0248945D01*
X0506850Y0248945D01*
X0505449Y0247544D02*
X0403148Y0247544D01*
X0403363Y0249142D02*
X0526616Y0249142D01*
X0526616Y0247544D02*
X0521648Y0247544D01*
X0522649Y0246543D02*
X0520247Y0248945D01*
X0516850Y0248945D01*
X0514449Y0246543D01*
X0514449Y0243147D01*
X0516850Y0240745D01*
X0520247Y0240745D01*
X0522649Y0243147D01*
X0522649Y0246543D01*
X0522649Y0245945D02*
X0526616Y0245945D01*
X0526616Y0244347D02*
X0522649Y0244347D01*
X0522250Y0242748D02*
X0526616Y0242748D01*
X0526616Y0241150D02*
X0520652Y0241150D01*
X0516446Y0241150D02*
X0510652Y0241150D01*
X0512250Y0242748D02*
X0514847Y0242748D01*
X0514449Y0244347D02*
X0512649Y0244347D01*
X0512649Y0245945D02*
X0514449Y0245945D01*
X0515449Y0247544D02*
X0511648Y0247544D01*
X0511841Y0252339D02*
X0515256Y0252339D01*
X0514449Y0253147D02*
X0516850Y0250745D01*
X0520247Y0250745D01*
X0522649Y0253147D01*
X0522649Y0256543D01*
X0520247Y0258945D01*
X0516850Y0258945D01*
X0514449Y0256543D01*
X0514449Y0253147D01*
X0514449Y0253938D02*
X0512649Y0253938D01*
X0512649Y0255536D02*
X0514449Y0255536D01*
X0515040Y0257135D02*
X0512057Y0257135D01*
X0510458Y0258733D02*
X0516639Y0258733D01*
X0516850Y0260745D02*
X0514449Y0263147D01*
X0514449Y0266543D01*
X0516850Y0268945D01*
X0520247Y0268945D01*
X0522649Y0266543D01*
X0522649Y0263147D01*
X0520247Y0260745D01*
X0516850Y0260745D01*
X0515665Y0261930D02*
X0511432Y0261930D01*
X0512649Y0263529D02*
X0514449Y0263529D01*
X0514449Y0265127D02*
X0512649Y0265127D01*
X0512466Y0266726D02*
X0514631Y0266726D01*
X0516230Y0268324D02*
X0510867Y0268324D01*
X0510247Y0270745D02*
X0512649Y0273147D01*
X0512649Y0276543D01*
X0510247Y0278945D01*
X0506850Y0278945D01*
X0504449Y0276543D01*
X0504449Y0273147D01*
X0506850Y0270745D01*
X0510247Y0270745D01*
X0511023Y0271521D02*
X0516074Y0271521D01*
X0516850Y0270745D02*
X0520247Y0270745D01*
X0522649Y0273147D01*
X0522649Y0276543D01*
X0520247Y0278945D01*
X0516850Y0278945D01*
X0514449Y0276543D01*
X0514449Y0273147D01*
X0516850Y0270745D01*
X0514475Y0273120D02*
X0512622Y0273120D01*
X0512649Y0274718D02*
X0514449Y0274718D01*
X0514449Y0276317D02*
X0512649Y0276317D01*
X0511276Y0277915D02*
X0515821Y0277915D01*
X0516850Y0280745D02*
X0520247Y0280745D01*
X0522649Y0283147D01*
X0522649Y0286543D01*
X0520247Y0288945D01*
X0516850Y0288945D01*
X0514449Y0286543D01*
X0514449Y0283147D01*
X0516850Y0280745D01*
X0516483Y0281112D02*
X0510614Y0281112D01*
X0510247Y0280745D02*
X0512649Y0283147D01*
X0512649Y0286543D01*
X0510247Y0288945D01*
X0506850Y0288945D01*
X0504449Y0286543D01*
X0504449Y0283147D01*
X0506850Y0280745D01*
X0510247Y0280745D01*
X0512213Y0282711D02*
X0514884Y0282711D01*
X0514449Y0284309D02*
X0512649Y0284309D01*
X0512649Y0285908D02*
X0514449Y0285908D01*
X0515412Y0287507D02*
X0511685Y0287507D01*
X0505412Y0287507D02*
X0498215Y0287507D01*
X0498215Y0288557D02*
X0495506Y0288557D01*
X0498215Y0288557D01*
X0498215Y0289945D01*
X0524236Y0289945D01*
X0525349Y0291058D01*
X0525349Y0298532D01*
X0524886Y0298995D01*
X0524949Y0299058D01*
X0524949Y0309032D01*
X0524186Y0309795D01*
X0525149Y0310758D01*
X0525149Y0339532D01*
X0524036Y0340645D01*
X0483162Y0340645D01*
X0482049Y0339532D01*
X0482049Y0313722D01*
X0481995Y0313776D01*
X0479017Y0313776D01*
X0478197Y0312956D01*
X0478197Y0312245D01*
X0459762Y0312245D01*
X0458649Y0311132D01*
X0448242Y0300725D01*
X0211705Y0300725D01*
X0211460Y0301318D01*
X0210222Y0302555D01*
X0208605Y0303225D01*
X0206854Y0303225D01*
X0205237Y0302555D01*
X0204000Y0301318D01*
X0203330Y0299700D01*
X0203330Y0297950D01*
X0204000Y0296333D01*
X0205237Y0295095D01*
X0206854Y0294425D01*
X0208605Y0294425D01*
X0210222Y0295095D01*
X0211460Y0296333D01*
X0211705Y0296925D01*
X0449816Y0296925D01*
X0461336Y0308445D01*
X0478197Y0308445D01*
X0478197Y0307465D01*
X0479017Y0306645D01*
X0481995Y0306645D01*
X0482049Y0306698D01*
X0482049Y0292069D01*
X0481995Y0292122D01*
X0479017Y0292122D01*
X0478197Y0291302D01*
X0478197Y0285812D01*
X0479017Y0284991D01*
X0481995Y0284991D01*
X0482055Y0285051D01*
X0483162Y0283945D01*
X0487336Y0283945D01*
X0487649Y0284258D01*
X0487762Y0284145D01*
X0493136Y0284145D01*
X0493777Y0284786D01*
X0493902Y0284714D01*
X0494360Y0284591D01*
X0495506Y0284591D01*
X0496652Y0284591D01*
X0497110Y0284714D01*
X0497521Y0284951D01*
X0497856Y0285286D01*
X0498093Y0285697D01*
X0498215Y0286154D01*
X0498215Y0288557D01*
X0498215Y0289105D02*
X0526616Y0289105D01*
X0526616Y0287507D02*
X0521685Y0287507D01*
X0522649Y0285908D02*
X0526616Y0285908D01*
X0526616Y0284309D02*
X0522649Y0284309D01*
X0522213Y0282711D02*
X0526616Y0282711D01*
X0526616Y0281112D02*
X0520614Y0281112D01*
X0521276Y0277915D02*
X0526616Y0277915D01*
X0526616Y0276317D02*
X0522649Y0276317D01*
X0522649Y0274718D02*
X0526616Y0274718D01*
X0526616Y0273120D02*
X0522622Y0273120D01*
X0521023Y0271521D02*
X0526616Y0271521D01*
X0526616Y0269923D02*
X0212416Y0269923D01*
X0212411Y0269949D02*
X0212178Y0270668D01*
X0211835Y0271341D01*
X0211391Y0271952D01*
X0210857Y0272486D01*
X0210245Y0272931D01*
X0209572Y0273274D01*
X0208854Y0273507D01*
X0208107Y0273625D01*
X0207930Y0273625D01*
X0207930Y0269025D01*
X0212530Y0269025D01*
X0212530Y0269203D01*
X0212411Y0269949D01*
X0212530Y0268625D02*
X0207930Y0268625D01*
X0207930Y0269025D01*
X0207530Y0269025D01*
X0207530Y0268625D01*
X0207930Y0268625D01*
X0207930Y0264025D01*
X0208107Y0264025D01*
X0208854Y0264143D01*
X0209572Y0264377D01*
X0210245Y0264720D01*
X0210857Y0265164D01*
X0211391Y0265698D01*
X0211835Y0266310D01*
X0212178Y0266983D01*
X0212411Y0267701D01*
X0212530Y0268447D01*
X0212530Y0268625D01*
X0212510Y0268324D02*
X0506230Y0268324D01*
X0504631Y0266726D02*
X0212047Y0266726D01*
X0210806Y0265127D02*
X0504449Y0265127D01*
X0506074Y0271521D02*
X0211704Y0271521D01*
X0209874Y0273120D02*
X0504475Y0273120D01*
X0504449Y0274718D02*
X0209313Y0274718D01*
X0208605Y0274425D02*
X0210222Y0275095D01*
X0211460Y0276333D01*
X0212130Y0277950D01*
X0212130Y0279700D01*
X0211460Y0281318D01*
X0210222Y0282555D01*
X0208605Y0283225D01*
X0206854Y0283225D01*
X0205237Y0282555D01*
X0204000Y0281318D01*
X0203330Y0279700D01*
X0203330Y0277950D01*
X0204000Y0276333D01*
X0205237Y0275095D01*
X0206854Y0274425D01*
X0208605Y0274425D01*
X0207530Y0273625D02*
X0207530Y0269025D01*
X0202930Y0269025D01*
X0202930Y0269203D01*
X0203048Y0269949D01*
X0203281Y0270668D01*
X0203624Y0271341D01*
X0204068Y0271952D01*
X0204603Y0272486D01*
X0205214Y0272931D01*
X0205887Y0273274D01*
X0206606Y0273507D01*
X0207352Y0273625D01*
X0207530Y0273625D01*
X0207530Y0273120D02*
X0207930Y0273120D01*
X0207930Y0271521D02*
X0207530Y0271521D01*
X0207530Y0269923D02*
X0207930Y0269923D01*
X0207530Y0268625D02*
X0202930Y0268625D01*
X0202930Y0268447D01*
X0203048Y0267701D01*
X0203281Y0266983D01*
X0203624Y0266310D01*
X0204068Y0265698D01*
X0204603Y0265164D01*
X0205214Y0264720D01*
X0205887Y0264377D01*
X0206606Y0264143D01*
X0207352Y0264025D01*
X0207530Y0264025D01*
X0207530Y0268625D01*
X0207530Y0268324D02*
X0207930Y0268324D01*
X0207930Y0266726D02*
X0207530Y0266726D01*
X0207530Y0265127D02*
X0207930Y0265127D01*
X0204653Y0265127D02*
X0200254Y0265127D01*
X0201623Y0266726D02*
X0203412Y0266726D01*
X0202949Y0268324D02*
X0202130Y0268324D01*
X0202038Y0269923D02*
X0203044Y0269923D01*
X0203755Y0271521D02*
X0201256Y0271521D01*
X0198859Y0273120D02*
X0205585Y0273120D01*
X0206147Y0274718D02*
X0199313Y0274718D01*
X0198605Y0274425D02*
X0200222Y0275095D01*
X0201460Y0276333D01*
X0202130Y0277950D01*
X0202130Y0279700D01*
X0201460Y0281318D01*
X0200222Y0282555D01*
X0198605Y0283225D01*
X0196854Y0283225D01*
X0195237Y0282555D01*
X0194000Y0281318D01*
X0193330Y0279700D01*
X0193330Y0277950D01*
X0194000Y0276333D01*
X0195237Y0275095D01*
X0196854Y0274425D01*
X0198605Y0274425D01*
X0196600Y0273120D02*
X0072949Y0273120D01*
X0072949Y0274718D02*
X0196147Y0274718D01*
X0194015Y0276317D02*
X0169661Y0276317D01*
X0169830Y0276486D02*
X0170330Y0277692D01*
X0170330Y0278998D01*
X0169830Y0280204D01*
X0168907Y0281127D01*
X0167701Y0281626D01*
X0166396Y0281626D01*
X0165190Y0281127D01*
X0164267Y0280204D01*
X0163767Y0278998D01*
X0163767Y0277692D01*
X0164267Y0276486D01*
X0165190Y0275563D01*
X0166396Y0275064D01*
X0167701Y0275064D01*
X0168907Y0275563D01*
X0169830Y0276486D01*
X0170330Y0277915D02*
X0193344Y0277915D01*
X0193330Y0279514D02*
X0170116Y0279514D01*
X0168921Y0281112D02*
X0193915Y0281112D01*
X0195613Y0282711D02*
X0072637Y0282711D01*
X0072949Y0284309D02*
X0482797Y0284309D01*
X0478197Y0285908D02*
X0211035Y0285908D01*
X0211460Y0286333D02*
X0212130Y0287950D01*
X0212130Y0289700D01*
X0211460Y0291318D01*
X0210222Y0292555D01*
X0208605Y0293225D01*
X0206854Y0293225D01*
X0205237Y0292555D01*
X0204000Y0291318D01*
X0203330Y0289700D01*
X0203330Y0287950D01*
X0204000Y0286333D01*
X0205237Y0285095D01*
X0206854Y0284425D01*
X0208605Y0284425D01*
X0210222Y0285095D01*
X0211460Y0286333D01*
X0211946Y0287507D02*
X0478197Y0287507D01*
X0478197Y0289105D02*
X0212130Y0289105D01*
X0211714Y0290704D02*
X0478197Y0290704D01*
X0482049Y0292302D02*
X0210475Y0292302D01*
X0210626Y0295499D02*
X0482049Y0295499D01*
X0482049Y0293901D02*
X0072949Y0293901D01*
X0072949Y0295499D02*
X0194268Y0295499D01*
X0194068Y0295698D02*
X0194603Y0295164D01*
X0195214Y0294720D01*
X0195887Y0294377D01*
X0196606Y0294143D01*
X0197352Y0294025D01*
X0197530Y0294025D01*
X0197530Y0298625D01*
X0192930Y0298625D01*
X0192930Y0298447D01*
X0193048Y0297701D01*
X0193281Y0296983D01*
X0193624Y0296310D01*
X0194068Y0295698D01*
X0193244Y0297098D02*
X0072518Y0297098D01*
X0070920Y0298696D02*
X0197530Y0298696D01*
X0197930Y0298696D02*
X0203330Y0298696D01*
X0202530Y0298625D02*
X0197930Y0298625D01*
X0197930Y0294025D01*
X0198107Y0294025D01*
X0198854Y0294143D01*
X0199572Y0294377D01*
X0200245Y0294720D01*
X0200857Y0295164D01*
X0201391Y0295698D01*
X0201835Y0296310D01*
X0202178Y0296983D01*
X0202411Y0297701D01*
X0202530Y0298447D01*
X0202530Y0298625D01*
X0202215Y0297098D02*
X0203683Y0297098D01*
X0204833Y0295499D02*
X0201192Y0295499D01*
X0200222Y0292555D02*
X0198605Y0293225D01*
X0196854Y0293225D01*
X0195237Y0292555D01*
X0194000Y0291318D01*
X0193330Y0289700D01*
X0193330Y0287950D01*
X0194000Y0286333D01*
X0195237Y0285095D01*
X0196854Y0284425D01*
X0198605Y0284425D01*
X0200222Y0285095D01*
X0201460Y0286333D01*
X0202130Y0287950D01*
X0202130Y0289700D01*
X0201460Y0291318D01*
X0200222Y0292555D01*
X0200475Y0292302D02*
X0204984Y0292302D01*
X0203745Y0290704D02*
X0201714Y0290704D01*
X0202130Y0289105D02*
X0203330Y0289105D01*
X0203513Y0287507D02*
X0201946Y0287507D01*
X0201035Y0285908D02*
X0204424Y0285908D01*
X0205613Y0282711D02*
X0199846Y0282711D01*
X0201545Y0281112D02*
X0203915Y0281112D01*
X0203330Y0279514D02*
X0202130Y0279514D01*
X0202115Y0277915D02*
X0203344Y0277915D01*
X0204015Y0276317D02*
X0201444Y0276317D01*
X0194203Y0271521D02*
X0071448Y0271521D01*
X0072949Y0276317D02*
X0164436Y0276317D01*
X0163767Y0277915D02*
X0071701Y0277915D01*
X0071039Y0281112D02*
X0165176Y0281112D01*
X0163981Y0279514D02*
X0051984Y0279514D01*
X0051984Y0268324D02*
X0055805Y0268324D01*
X0054207Y0266726D02*
X0051984Y0266726D01*
X0051984Y0265127D02*
X0054149Y0265127D01*
X0054149Y0263529D02*
X0051984Y0263529D01*
X0051984Y0261930D02*
X0055241Y0261930D01*
X0056214Y0258733D02*
X0051984Y0258733D01*
X0051984Y0257135D02*
X0054616Y0257135D01*
X0054149Y0255536D02*
X0051984Y0255536D01*
X0051984Y0253938D02*
X0054149Y0253938D01*
X0054832Y0252339D02*
X0051984Y0252339D01*
X0051984Y0250741D02*
X0056430Y0250741D01*
X0056623Y0249142D02*
X0051984Y0249142D01*
X0051984Y0247544D02*
X0055025Y0247544D01*
X0054149Y0245945D02*
X0051984Y0245945D01*
X0051984Y0244347D02*
X0054149Y0244347D01*
X0054423Y0242748D02*
X0051984Y0242748D01*
X0051984Y0241150D02*
X0056021Y0241150D01*
X0061254Y0228362D02*
X0065843Y0228362D01*
X0064244Y0226763D02*
X0062853Y0226763D01*
X0062949Y0225165D02*
X0064149Y0225165D01*
X0064149Y0223566D02*
X0062949Y0223566D01*
X0061894Y0221968D02*
X0065203Y0221968D01*
X0066726Y0219245D02*
X0064149Y0216667D01*
X0064149Y0213022D01*
X0066726Y0210445D01*
X0070371Y0210445D01*
X0072949Y0213022D01*
X0072949Y0216667D01*
X0070371Y0219245D01*
X0066726Y0219245D01*
X0066252Y0218771D02*
X0060845Y0218771D01*
X0062444Y0217172D02*
X0064653Y0217172D01*
X0064149Y0215573D02*
X0062949Y0215573D01*
X0062949Y0213975D02*
X0064149Y0213975D01*
X0064794Y0212376D02*
X0062303Y0212376D01*
X0060704Y0210778D02*
X0066393Y0210778D01*
X0066095Y0209179D02*
X0061002Y0209179D01*
X0058749Y0209179D02*
X0058349Y0209179D01*
X0058349Y0207581D02*
X0058749Y0207581D01*
X0058749Y0205982D02*
X0058349Y0205982D01*
X0058349Y0204384D02*
X0058749Y0204384D01*
X0058749Y0202785D02*
X0058349Y0202785D01*
X0058349Y0201187D02*
X0058749Y0201187D01*
X0058749Y0199588D02*
X0058349Y0199588D01*
X0058349Y0197990D02*
X0058749Y0197990D01*
X0058749Y0196391D02*
X0058349Y0196391D01*
X0058349Y0193194D02*
X0058749Y0193194D01*
X0058749Y0191596D02*
X0058349Y0191596D01*
X0055009Y0191596D02*
X0051984Y0191596D01*
X0051984Y0193194D02*
X0053749Y0193194D01*
X0053480Y0189997D02*
X0112161Y0189997D01*
X0112190Y0190027D02*
X0111267Y0189104D01*
X0110767Y0187898D01*
X0110767Y0186592D01*
X0111267Y0185386D01*
X0112190Y0184463D01*
X0113396Y0183964D01*
X0114701Y0183964D01*
X0115907Y0184463D01*
X0116830Y0185386D01*
X0117330Y0186592D01*
X0117330Y0187898D01*
X0116830Y0189104D01*
X0115907Y0190027D01*
X0114701Y0190526D01*
X0113396Y0190526D01*
X0112190Y0190027D01*
X0110975Y0188399D02*
X0055017Y0188399D01*
X0056555Y0186800D02*
X0110767Y0186800D01*
X0111452Y0185202D02*
X0058092Y0185202D01*
X0062088Y0191596D02*
X0065009Y0191596D01*
X0063749Y0193194D02*
X0063349Y0193194D01*
X0063349Y0196391D02*
X0063749Y0196391D01*
X0064905Y0197990D02*
X0062192Y0197990D01*
X0060593Y0199588D02*
X0066504Y0199588D01*
X0068349Y0199588D02*
X0068749Y0199588D01*
X0068749Y0197990D02*
X0068349Y0197990D01*
X0068349Y0196391D02*
X0068749Y0196391D01*
X0068749Y0193194D02*
X0068349Y0193194D01*
X0068349Y0191596D02*
X0068749Y0191596D01*
X0068749Y0201187D02*
X0068349Y0201187D01*
X0068349Y0202785D02*
X0068749Y0202785D01*
X0068749Y0204384D02*
X0068349Y0204384D01*
X0068349Y0205982D02*
X0068749Y0205982D01*
X0068749Y0207581D02*
X0068349Y0207581D01*
X0068349Y0209179D02*
X0068749Y0209179D01*
X0071002Y0209179D02*
X0506519Y0209179D01*
X0506252Y0210778D02*
X0070704Y0210778D01*
X0072303Y0212376D02*
X0504653Y0212376D01*
X0504049Y0213975D02*
X0072949Y0213975D01*
X0072949Y0215573D02*
X0504049Y0215573D01*
X0504512Y0217172D02*
X0072444Y0217172D01*
X0070845Y0218771D02*
X0506110Y0218771D01*
X0506661Y0220369D02*
X0051984Y0220369D01*
X0062601Y0207581D02*
X0064496Y0207581D01*
X0063749Y0205982D02*
X0063349Y0205982D01*
X0063349Y0204384D02*
X0063749Y0204384D01*
X0063820Y0202785D02*
X0063277Y0202785D01*
X0061679Y0201187D02*
X0065418Y0201187D01*
X0073277Y0202785D02*
X0504244Y0202785D01*
X0504049Y0204384D02*
X0073349Y0204384D01*
X0073349Y0205982D02*
X0504049Y0205982D01*
X0504921Y0207581D02*
X0072601Y0207581D01*
X0071894Y0221968D02*
X0294686Y0221968D01*
X0294367Y0222286D02*
X0295290Y0221363D01*
X0296496Y0220864D01*
X0297801Y0220864D01*
X0299007Y0221363D01*
X0299930Y0222286D01*
X0300430Y0223492D01*
X0300430Y0224798D01*
X0299930Y0226004D01*
X0299007Y0226927D01*
X0297801Y0227426D01*
X0296496Y0227426D01*
X0295290Y0226927D01*
X0294367Y0226004D01*
X0293867Y0224798D01*
X0293867Y0223492D01*
X0294367Y0222286D01*
X0293867Y0223566D02*
X0072949Y0223566D01*
X0072949Y0225165D02*
X0294019Y0225165D01*
X0295127Y0226763D02*
X0072853Y0226763D01*
X0071076Y0241150D02*
X0506446Y0241150D01*
X0504847Y0242748D02*
X0399266Y0242748D01*
X0401306Y0244347D02*
X0504449Y0244347D01*
X0504449Y0245945D02*
X0402485Y0245945D01*
X0403363Y0250741D02*
X0526616Y0250741D01*
X0526616Y0252339D02*
X0521841Y0252339D01*
X0522649Y0253938D02*
X0526616Y0253938D01*
X0526616Y0255536D02*
X0522649Y0255536D01*
X0522057Y0257135D02*
X0526616Y0257135D01*
X0526616Y0258733D02*
X0520458Y0258733D01*
X0521432Y0261930D02*
X0526616Y0261930D01*
X0526616Y0260332D02*
X0051984Y0260332D01*
X0072949Y0285908D02*
X0194424Y0285908D01*
X0193513Y0287507D02*
X0072110Y0287507D01*
X0070511Y0289105D02*
X0193330Y0289105D01*
X0193745Y0290704D02*
X0070630Y0290704D01*
X0072228Y0292302D02*
X0194984Y0292302D01*
X0197530Y0295499D02*
X0197930Y0295499D01*
X0197930Y0297098D02*
X0197530Y0297098D01*
X0197530Y0300295D02*
X0197930Y0300295D01*
X0197930Y0301893D02*
X0197530Y0301893D01*
X0197530Y0303492D02*
X0197930Y0303492D01*
X0198901Y0303492D02*
X0451008Y0303492D01*
X0452607Y0305090D02*
X0210210Y0305090D01*
X0211607Y0306689D02*
X0454205Y0306689D01*
X0455804Y0308287D02*
X0212130Y0308287D01*
X0212053Y0309886D02*
X0457402Y0309886D01*
X0459001Y0311484D02*
X0435228Y0311484D01*
X0435330Y0311586D02*
X0435830Y0312792D01*
X0435830Y0314098D01*
X0435330Y0315304D01*
X0434407Y0316227D01*
X0433201Y0316726D01*
X0431896Y0316726D01*
X0430690Y0316227D01*
X0429767Y0315304D01*
X0429267Y0314098D01*
X0429267Y0312792D01*
X0429767Y0311586D01*
X0430690Y0310663D01*
X0431896Y0310164D01*
X0433201Y0310164D01*
X0434407Y0310663D01*
X0435330Y0311586D01*
X0435830Y0313083D02*
X0478324Y0313083D01*
X0482049Y0314681D02*
X0435588Y0314681D01*
X0434279Y0316280D02*
X0482049Y0316280D01*
X0482049Y0317878D02*
X0212100Y0317878D01*
X0212130Y0319477D02*
X0482049Y0319477D01*
X0482049Y0321075D02*
X0211560Y0321075D01*
X0209936Y0322674D02*
X0482049Y0322674D01*
X0482049Y0324272D02*
X0105945Y0324272D01*
X0106192Y0325871D02*
X0194462Y0325871D01*
X0193529Y0327469D02*
X0106192Y0327469D01*
X0106192Y0329068D02*
X0193330Y0329068D01*
X0193730Y0330666D02*
X0106192Y0330666D01*
X0106192Y0332265D02*
X0194947Y0332265D01*
X0194871Y0335462D02*
X0106192Y0335462D01*
X0106192Y0337060D02*
X0116795Y0337060D01*
X0116367Y0338659D02*
X0106192Y0338659D01*
X0106192Y0340257D02*
X0116724Y0340257D01*
X0117749Y0341856D02*
X0106192Y0341856D01*
X0106192Y0343454D02*
X0117749Y0343454D01*
X0117749Y0345053D02*
X0106192Y0345053D01*
X0106192Y0346651D02*
X0117749Y0346651D01*
X0117749Y0348250D02*
X0106192Y0348250D01*
X0106192Y0349848D02*
X0117749Y0349848D01*
X0117749Y0351447D02*
X0106192Y0351447D01*
X0106192Y0353045D02*
X0117749Y0353045D01*
X0117749Y0354644D02*
X0106192Y0354644D01*
X0106192Y0356242D02*
X0116802Y0356242D01*
X0116367Y0357841D02*
X0106192Y0357841D01*
X0106192Y0359440D02*
X0116716Y0359440D01*
X0122574Y0340257D02*
X0193560Y0340257D01*
X0193330Y0338659D02*
X0122930Y0338659D01*
X0122502Y0337060D02*
X0193698Y0337060D01*
X0200589Y0335462D02*
X0204305Y0335462D01*
X0203256Y0337060D02*
X0201761Y0337060D01*
X0211154Y0335462D02*
X0482049Y0335462D01*
X0482049Y0337060D02*
X0212203Y0337060D01*
X0210513Y0332265D02*
X0482049Y0332265D01*
X0482049Y0333863D02*
X0106192Y0333863D01*
X0078217Y0361038D02*
X0070964Y0361038D01*
X0054534Y0362637D02*
X0051984Y0362637D01*
X0051984Y0364235D02*
X0054149Y0364235D01*
X0054149Y0365834D02*
X0051984Y0365834D01*
X0051984Y0367432D02*
X0054913Y0367432D01*
X0056512Y0369031D02*
X0051984Y0369031D01*
X0051984Y0370629D02*
X0056542Y0370629D01*
X0054943Y0372228D02*
X0051984Y0372228D01*
X0051984Y0373826D02*
X0054149Y0373826D01*
X0054149Y0375425D02*
X0051984Y0375425D01*
X0051984Y0377023D02*
X0054504Y0377023D01*
X0150695Y0485722D02*
X0427905Y0485722D01*
X0426307Y0487320D02*
X0152293Y0487320D01*
X0153892Y0488919D02*
X0424708Y0488919D01*
X0423110Y0490517D02*
X0155490Y0490517D01*
X0157089Y0492116D02*
X0421511Y0492116D01*
X0419913Y0493714D02*
X0158687Y0493714D01*
X0160286Y0495313D02*
X0418314Y0495313D01*
X0416716Y0496911D02*
X0161884Y0496911D01*
X0163483Y0498510D02*
X0415117Y0498510D01*
X0413519Y0500109D02*
X0165081Y0500109D01*
X0166680Y0501707D02*
X0411920Y0501707D01*
X0410322Y0503306D02*
X0168278Y0503306D01*
X0169877Y0504904D02*
X0408723Y0504904D01*
X0407125Y0506503D02*
X0171475Y0506503D01*
X0173074Y0508101D02*
X0405526Y0508101D01*
X0403928Y0509700D02*
X0174672Y0509700D01*
X0176271Y0511298D02*
X0402329Y0511298D01*
X0400731Y0512897D02*
X0299034Y0512897D01*
X0299030Y0512886D02*
X0299530Y0514092D01*
X0299530Y0515398D01*
X0299030Y0516604D01*
X0298107Y0517527D01*
X0296901Y0518026D01*
X0295596Y0518026D01*
X0294390Y0517527D01*
X0293467Y0516604D01*
X0292967Y0515398D01*
X0292967Y0514092D01*
X0293467Y0512886D01*
X0294390Y0511963D01*
X0295596Y0511464D01*
X0296901Y0511464D01*
X0298107Y0511963D01*
X0299030Y0512886D01*
X0299530Y0514495D02*
X0399132Y0514495D01*
X0397534Y0516094D02*
X0299241Y0516094D01*
X0297707Y0517692D02*
X0395935Y0517692D01*
X0394337Y0519291D02*
X0184263Y0519291D01*
X0182665Y0517692D02*
X0294790Y0517692D01*
X0293256Y0516094D02*
X0181066Y0516094D01*
X0179468Y0514495D02*
X0292967Y0514495D01*
X0293463Y0512897D02*
X0177869Y0512897D01*
X0185862Y0520889D02*
X0392738Y0520889D01*
X0391139Y0522488D02*
X0187460Y0522488D01*
X0189059Y0524086D02*
X0389541Y0524086D01*
X0387942Y0525685D02*
X0190657Y0525685D01*
X0209066Y0482525D02*
X0260916Y0482525D01*
X0259911Y0476131D02*
X0224511Y0476131D01*
X0222913Y0474532D02*
X0261349Y0474532D01*
X0261325Y0472934D02*
X0221314Y0472934D01*
X0219716Y0471335D02*
X0259901Y0471335D01*
X0259249Y0469737D02*
X0218117Y0469737D01*
X0216519Y0468138D02*
X0259249Y0468138D01*
X0259742Y0466540D02*
X0214920Y0466540D01*
X0213322Y0464941D02*
X0260940Y0464941D01*
X0267377Y0463343D02*
X0332122Y0463343D01*
X0330135Y0461744D02*
X0268968Y0461744D01*
X0269676Y0460146D02*
X0329409Y0460146D01*
X0329249Y0464941D02*
X0267757Y0464941D01*
X0268955Y0466540D02*
X0329249Y0466540D01*
X0329249Y0468138D02*
X0269449Y0468138D01*
X0269449Y0469737D02*
X0329249Y0469737D01*
X0329249Y0471335D02*
X0268796Y0471335D01*
X0267372Y0472934D02*
X0329249Y0472934D01*
X0336608Y0444161D02*
X0441125Y0444161D01*
X0440767Y0442562D02*
X0337744Y0442562D01*
X0338950Y0440964D02*
X0441194Y0440964D01*
X0440693Y0472934D02*
X0401547Y0472934D01*
X0402585Y0474532D02*
X0439095Y0474532D01*
X0437496Y0476131D02*
X0403247Y0476131D01*
X0403363Y0477729D02*
X0435898Y0477729D01*
X0434299Y0479328D02*
X0403363Y0479328D01*
X0402764Y0480926D02*
X0432701Y0480926D01*
X0431102Y0482525D02*
X0401979Y0482525D01*
X0400381Y0484123D02*
X0429504Y0484123D01*
X0511028Y0402599D02*
X0235334Y0402599D01*
X0235207Y0402727D02*
X0234001Y0403226D01*
X0232696Y0403226D01*
X0231490Y0402727D01*
X0230567Y0401804D01*
X0230067Y0400598D01*
X0230067Y0399292D01*
X0230567Y0398086D01*
X0231490Y0397163D01*
X0232696Y0396664D01*
X0234001Y0396664D01*
X0235207Y0397163D01*
X0236130Y0398086D01*
X0236630Y0399292D01*
X0236630Y0400598D01*
X0236130Y0401804D01*
X0235207Y0402727D01*
X0236463Y0401001D02*
X0512626Y0401001D01*
X0514225Y0399402D02*
X0236630Y0399402D01*
X0235848Y0397804D02*
X0515823Y0397804D01*
X0517422Y0396205D02*
X0211332Y0396205D01*
X0212069Y0397804D02*
X0230850Y0397804D01*
X0230067Y0399402D02*
X0212130Y0399402D01*
X0211591Y0401001D02*
X0230234Y0401001D01*
X0231363Y0402599D02*
X0210116Y0402599D01*
X0209043Y0394607D02*
X0519020Y0394607D01*
X0520619Y0393008D02*
X0209129Y0393008D01*
X0211368Y0391410D02*
X0522217Y0391410D01*
X0523816Y0389811D02*
X0212084Y0389811D01*
X0212130Y0388213D02*
X0525414Y0388213D01*
X0526616Y0386614D02*
X0211576Y0386614D01*
X0210030Y0385016D02*
X0526616Y0385016D01*
X0526616Y0370629D02*
X0211745Y0370629D01*
X0204908Y0375425D02*
X0200552Y0375425D01*
X0201746Y0377023D02*
X0203714Y0377023D01*
X0203330Y0378622D02*
X0202130Y0378622D01*
X0201914Y0380220D02*
X0203545Y0380220D01*
X0204501Y0381819D02*
X0200959Y0381819D01*
X0200030Y0385016D02*
X0205429Y0385016D01*
X0203883Y0386614D02*
X0201576Y0386614D01*
X0202130Y0388213D02*
X0203330Y0388213D01*
X0203376Y0389811D02*
X0202084Y0389811D01*
X0201368Y0391410D02*
X0204092Y0391410D01*
X0207530Y0415387D02*
X0207930Y0415387D01*
X0211295Y0436168D02*
X0259896Y0436168D01*
X0259249Y0437767D02*
X0212054Y0437767D01*
X0212130Y0439365D02*
X0259249Y0439365D01*
X0259747Y0440964D02*
X0211606Y0440964D01*
X0210206Y0442562D02*
X0260953Y0442562D01*
X0221953Y0480926D02*
X0209851Y0480926D01*
X0210450Y0479328D02*
X0220355Y0479328D01*
X0218756Y0477729D02*
X0210450Y0477729D01*
X0210334Y0476131D02*
X0217157Y0476131D01*
X0215559Y0474532D02*
X0209672Y0474532D01*
X0208633Y0472934D02*
X0213960Y0472934D01*
X0212362Y0471335D02*
X0206934Y0471335D01*
X0210763Y0469737D02*
X0187834Y0469737D01*
X0201033Y0461744D02*
X0203337Y0461744D01*
X0203337Y0460146D02*
X0201945Y0460146D01*
X0202130Y0458547D02*
X0203337Y0458547D01*
X0203337Y0456949D02*
X0201715Y0456949D01*
X0200477Y0455350D02*
X0203337Y0455350D01*
X0204835Y0452153D02*
X0200624Y0452153D01*
X0201776Y0450555D02*
X0203683Y0450555D01*
X0203330Y0448956D02*
X0202130Y0448956D01*
X0201884Y0447358D02*
X0203575Y0447358D01*
X0204573Y0445759D02*
X0200886Y0445759D01*
X0251803Y0369031D02*
X0526616Y0369031D01*
X0526616Y0367432D02*
X0252530Y0367432D01*
X0252340Y0365834D02*
X0526616Y0365834D01*
X0526616Y0364235D02*
X0251179Y0364235D01*
X0211730Y0330666D02*
X0482049Y0330666D01*
X0482049Y0329068D02*
X0212130Y0329068D01*
X0211930Y0327469D02*
X0482049Y0327469D01*
X0482049Y0325871D02*
X0210998Y0325871D01*
X0211407Y0316280D02*
X0430818Y0316280D01*
X0429509Y0314681D02*
X0209223Y0314681D01*
X0208949Y0313083D02*
X0429267Y0313083D01*
X0429869Y0311484D02*
X0211293Y0311484D01*
X0204166Y0311484D02*
X0201293Y0311484D01*
X0202053Y0309886D02*
X0203406Y0309886D01*
X0203330Y0308287D02*
X0202130Y0308287D01*
X0201607Y0306689D02*
X0203852Y0306689D01*
X0205249Y0305090D02*
X0200210Y0305090D01*
X0201434Y0301893D02*
X0204575Y0301893D01*
X0203576Y0300295D02*
X0202299Y0300295D01*
X0210884Y0301893D02*
X0449410Y0301893D01*
X0451587Y0298696D02*
X0482049Y0298696D01*
X0482049Y0297098D02*
X0449988Y0297098D01*
X0453185Y0300295D02*
X0482049Y0300295D01*
X0482049Y0301893D02*
X0454784Y0301893D01*
X0456382Y0303492D02*
X0482049Y0303492D01*
X0482049Y0305090D02*
X0457981Y0305090D01*
X0459579Y0306689D02*
X0478973Y0306689D01*
X0478197Y0308287D02*
X0461178Y0308287D01*
X0482039Y0306689D02*
X0482049Y0306689D01*
X0495506Y0288557D02*
X0495506Y0288557D01*
X0495506Y0284591D01*
X0495506Y0288557D01*
X0495506Y0288557D01*
X0495506Y0287507D02*
X0495506Y0287507D01*
X0495506Y0285908D02*
X0495506Y0285908D01*
X0498149Y0285908D02*
X0504449Y0285908D01*
X0504449Y0284309D02*
X0493300Y0284309D01*
X0504884Y0282711D02*
X0209846Y0282711D01*
X0211545Y0281112D02*
X0506483Y0281112D01*
X0505821Y0277915D02*
X0212115Y0277915D01*
X0212130Y0279514D02*
X0526616Y0279514D01*
X0526616Y0290704D02*
X0524994Y0290704D01*
X0525349Y0292302D02*
X0526616Y0292302D01*
X0526616Y0293901D02*
X0525349Y0293901D01*
X0525349Y0295499D02*
X0526616Y0295499D01*
X0526616Y0297098D02*
X0525349Y0297098D01*
X0525184Y0298696D02*
X0526616Y0298696D01*
X0526616Y0300295D02*
X0524949Y0300295D01*
X0524949Y0301893D02*
X0526616Y0301893D01*
X0526616Y0303492D02*
X0524949Y0303492D01*
X0524949Y0305090D02*
X0526616Y0305090D01*
X0526616Y0306689D02*
X0524949Y0306689D01*
X0524949Y0308287D02*
X0526616Y0308287D01*
X0526616Y0309886D02*
X0524276Y0309886D01*
X0525149Y0311484D02*
X0526616Y0311484D01*
X0526616Y0313083D02*
X0525149Y0313083D01*
X0525149Y0314681D02*
X0526616Y0314681D01*
X0526616Y0316280D02*
X0525149Y0316280D01*
X0525149Y0317878D02*
X0526616Y0317878D01*
X0526616Y0319477D02*
X0525149Y0319477D01*
X0525149Y0321075D02*
X0526616Y0321075D01*
X0526616Y0322674D02*
X0525149Y0322674D01*
X0525149Y0324272D02*
X0526616Y0324272D01*
X0526616Y0325871D02*
X0525149Y0325871D01*
X0525149Y0327469D02*
X0526616Y0327469D01*
X0526616Y0329068D02*
X0525149Y0329068D01*
X0525149Y0330666D02*
X0526616Y0330666D01*
X0526616Y0332265D02*
X0525149Y0332265D01*
X0525149Y0333863D02*
X0526616Y0333863D01*
X0526616Y0335462D02*
X0525149Y0335462D01*
X0525149Y0337060D02*
X0526616Y0337060D01*
X0526616Y0338659D02*
X0525149Y0338659D01*
X0524423Y0340257D02*
X0526616Y0340257D01*
X0526616Y0341856D02*
X0451671Y0341856D01*
X0453269Y0343454D02*
X0526616Y0343454D01*
X0526616Y0345053D02*
X0456382Y0345053D01*
X0457606Y0346651D02*
X0526616Y0346651D01*
X0526616Y0348250D02*
X0457830Y0348250D01*
X0457185Y0349848D02*
X0526616Y0349848D01*
X0482774Y0340257D02*
X0450072Y0340257D01*
X0448474Y0338659D02*
X0482049Y0338659D01*
X0504449Y0276317D02*
X0211444Y0276317D01*
X0166664Y0189997D02*
X0115936Y0189997D01*
X0117122Y0188399D02*
X0166167Y0188399D01*
X0166454Y0186800D02*
X0117330Y0186800D01*
X0116646Y0185202D02*
X0167980Y0185202D01*
X0299611Y0221968D02*
X0505062Y0221968D01*
X0504049Y0223566D02*
X0300430Y0223566D01*
X0300278Y0225165D02*
X0504049Y0225165D01*
X0504103Y0226763D02*
X0299171Y0226763D01*
X0508449Y0231559D02*
X0508649Y0231559D01*
X0508649Y0233157D02*
X0508449Y0233157D01*
X0508449Y0236354D02*
X0508649Y0236354D01*
X0508649Y0237953D02*
X0508449Y0237953D01*
X0511805Y0237953D02*
X0515292Y0237953D01*
X0514049Y0236354D02*
X0513049Y0236354D01*
X0513049Y0233157D02*
X0514049Y0233157D01*
X0515471Y0231559D02*
X0511626Y0231559D01*
X0522649Y0263529D02*
X0526616Y0263529D01*
X0526616Y0265127D02*
X0522649Y0265127D01*
X0522466Y0266726D02*
X0526616Y0266726D01*
X0526616Y0268324D02*
X0520867Y0268324D01*
X0508649Y0197990D02*
X0508449Y0197990D01*
X0508449Y0196391D02*
X0508649Y0196391D01*
X0521663Y0191596D02*
X0526581Y0191596D01*
X0526616Y0193194D02*
X0523049Y0193194D01*
D11*
X0390237Y0249599D02*
X0390239Y0249746D01*
X0390245Y0249892D01*
X0390255Y0250038D01*
X0390269Y0250184D01*
X0390287Y0250330D01*
X0390308Y0250475D01*
X0390334Y0250619D01*
X0390364Y0250763D01*
X0390397Y0250905D01*
X0390434Y0251047D01*
X0390475Y0251188D01*
X0390520Y0251327D01*
X0390569Y0251466D01*
X0390621Y0251603D01*
X0390678Y0251738D01*
X0390737Y0251872D01*
X0390801Y0252004D01*
X0390868Y0252134D01*
X0390938Y0252263D01*
X0391012Y0252390D01*
X0391089Y0252514D01*
X0391170Y0252637D01*
X0391254Y0252757D01*
X0391341Y0252875D01*
X0391431Y0252990D01*
X0391524Y0253103D01*
X0391621Y0253214D01*
X0391720Y0253322D01*
X0391822Y0253427D01*
X0391927Y0253529D01*
X0392035Y0253628D01*
X0392146Y0253725D01*
X0392259Y0253818D01*
X0392374Y0253908D01*
X0392492Y0253995D01*
X0392612Y0254079D01*
X0392735Y0254160D01*
X0392859Y0254237D01*
X0392986Y0254311D01*
X0393115Y0254381D01*
X0393245Y0254448D01*
X0393377Y0254512D01*
X0393511Y0254571D01*
X0393646Y0254628D01*
X0393783Y0254680D01*
X0393922Y0254729D01*
X0394061Y0254774D01*
X0394202Y0254815D01*
X0394344Y0254852D01*
X0394486Y0254885D01*
X0394630Y0254915D01*
X0394774Y0254941D01*
X0394919Y0254962D01*
X0395065Y0254980D01*
X0395211Y0254994D01*
X0395357Y0255004D01*
X0395503Y0255010D01*
X0395650Y0255012D01*
X0395797Y0255010D01*
X0395943Y0255004D01*
X0396089Y0254994D01*
X0396235Y0254980D01*
X0396381Y0254962D01*
X0396526Y0254941D01*
X0396670Y0254915D01*
X0396814Y0254885D01*
X0396956Y0254852D01*
X0397098Y0254815D01*
X0397239Y0254774D01*
X0397378Y0254729D01*
X0397517Y0254680D01*
X0397654Y0254628D01*
X0397789Y0254571D01*
X0397923Y0254512D01*
X0398055Y0254448D01*
X0398185Y0254381D01*
X0398314Y0254311D01*
X0398441Y0254237D01*
X0398565Y0254160D01*
X0398688Y0254079D01*
X0398808Y0253995D01*
X0398926Y0253908D01*
X0399041Y0253818D01*
X0399154Y0253725D01*
X0399265Y0253628D01*
X0399373Y0253529D01*
X0399478Y0253427D01*
X0399580Y0253322D01*
X0399679Y0253214D01*
X0399776Y0253103D01*
X0399869Y0252990D01*
X0399959Y0252875D01*
X0400046Y0252757D01*
X0400130Y0252637D01*
X0400211Y0252514D01*
X0400288Y0252390D01*
X0400362Y0252263D01*
X0400432Y0252134D01*
X0400499Y0252004D01*
X0400563Y0251872D01*
X0400622Y0251738D01*
X0400679Y0251603D01*
X0400731Y0251466D01*
X0400780Y0251327D01*
X0400825Y0251188D01*
X0400866Y0251047D01*
X0400903Y0250905D01*
X0400936Y0250763D01*
X0400966Y0250619D01*
X0400992Y0250475D01*
X0401013Y0250330D01*
X0401031Y0250184D01*
X0401045Y0250038D01*
X0401055Y0249892D01*
X0401061Y0249746D01*
X0401063Y0249599D01*
X0401061Y0249452D01*
X0401055Y0249306D01*
X0401045Y0249160D01*
X0401031Y0249014D01*
X0401013Y0248868D01*
X0400992Y0248723D01*
X0400966Y0248579D01*
X0400936Y0248435D01*
X0400903Y0248293D01*
X0400866Y0248151D01*
X0400825Y0248010D01*
X0400780Y0247871D01*
X0400731Y0247732D01*
X0400679Y0247595D01*
X0400622Y0247460D01*
X0400563Y0247326D01*
X0400499Y0247194D01*
X0400432Y0247064D01*
X0400362Y0246935D01*
X0400288Y0246808D01*
X0400211Y0246684D01*
X0400130Y0246561D01*
X0400046Y0246441D01*
X0399959Y0246323D01*
X0399869Y0246208D01*
X0399776Y0246095D01*
X0399679Y0245984D01*
X0399580Y0245876D01*
X0399478Y0245771D01*
X0399373Y0245669D01*
X0399265Y0245570D01*
X0399154Y0245473D01*
X0399041Y0245380D01*
X0398926Y0245290D01*
X0398808Y0245203D01*
X0398688Y0245119D01*
X0398565Y0245038D01*
X0398441Y0244961D01*
X0398314Y0244887D01*
X0398185Y0244817D01*
X0398055Y0244750D01*
X0397923Y0244686D01*
X0397789Y0244627D01*
X0397654Y0244570D01*
X0397517Y0244518D01*
X0397378Y0244469D01*
X0397239Y0244424D01*
X0397098Y0244383D01*
X0396956Y0244346D01*
X0396814Y0244313D01*
X0396670Y0244283D01*
X0396526Y0244257D01*
X0396381Y0244236D01*
X0396235Y0244218D01*
X0396089Y0244204D01*
X0395943Y0244194D01*
X0395797Y0244188D01*
X0395650Y0244186D01*
X0395503Y0244188D01*
X0395357Y0244194D01*
X0395211Y0244204D01*
X0395065Y0244218D01*
X0394919Y0244236D01*
X0394774Y0244257D01*
X0394630Y0244283D01*
X0394486Y0244313D01*
X0394344Y0244346D01*
X0394202Y0244383D01*
X0394061Y0244424D01*
X0393922Y0244469D01*
X0393783Y0244518D01*
X0393646Y0244570D01*
X0393511Y0244627D01*
X0393377Y0244686D01*
X0393245Y0244750D01*
X0393115Y0244817D01*
X0392986Y0244887D01*
X0392859Y0244961D01*
X0392735Y0245038D01*
X0392612Y0245119D01*
X0392492Y0245203D01*
X0392374Y0245290D01*
X0392259Y0245380D01*
X0392146Y0245473D01*
X0392035Y0245570D01*
X0391927Y0245669D01*
X0391822Y0245771D01*
X0391720Y0245876D01*
X0391621Y0245984D01*
X0391524Y0246095D01*
X0391431Y0246208D01*
X0391341Y0246323D01*
X0391254Y0246441D01*
X0391170Y0246561D01*
X0391089Y0246684D01*
X0391012Y0246808D01*
X0390938Y0246935D01*
X0390868Y0247064D01*
X0390801Y0247194D01*
X0390737Y0247326D01*
X0390678Y0247460D01*
X0390621Y0247595D01*
X0390569Y0247732D01*
X0390520Y0247871D01*
X0390475Y0248010D01*
X0390434Y0248151D01*
X0390397Y0248293D01*
X0390364Y0248435D01*
X0390334Y0248579D01*
X0390308Y0248723D01*
X0390287Y0248868D01*
X0390269Y0249014D01*
X0390255Y0249160D01*
X0390245Y0249306D01*
X0390239Y0249452D01*
X0390237Y0249599D01*
X0197324Y0249599D02*
X0197326Y0249746D01*
X0197332Y0249892D01*
X0197342Y0250038D01*
X0197356Y0250184D01*
X0197374Y0250330D01*
X0197395Y0250475D01*
X0197421Y0250619D01*
X0197451Y0250763D01*
X0197484Y0250905D01*
X0197521Y0251047D01*
X0197562Y0251188D01*
X0197607Y0251327D01*
X0197656Y0251466D01*
X0197708Y0251603D01*
X0197765Y0251738D01*
X0197824Y0251872D01*
X0197888Y0252004D01*
X0197955Y0252134D01*
X0198025Y0252263D01*
X0198099Y0252390D01*
X0198176Y0252514D01*
X0198257Y0252637D01*
X0198341Y0252757D01*
X0198428Y0252875D01*
X0198518Y0252990D01*
X0198611Y0253103D01*
X0198708Y0253214D01*
X0198807Y0253322D01*
X0198909Y0253427D01*
X0199014Y0253529D01*
X0199122Y0253628D01*
X0199233Y0253725D01*
X0199346Y0253818D01*
X0199461Y0253908D01*
X0199579Y0253995D01*
X0199699Y0254079D01*
X0199822Y0254160D01*
X0199946Y0254237D01*
X0200073Y0254311D01*
X0200202Y0254381D01*
X0200332Y0254448D01*
X0200464Y0254512D01*
X0200598Y0254571D01*
X0200733Y0254628D01*
X0200870Y0254680D01*
X0201009Y0254729D01*
X0201148Y0254774D01*
X0201289Y0254815D01*
X0201431Y0254852D01*
X0201573Y0254885D01*
X0201717Y0254915D01*
X0201861Y0254941D01*
X0202006Y0254962D01*
X0202152Y0254980D01*
X0202298Y0254994D01*
X0202444Y0255004D01*
X0202590Y0255010D01*
X0202737Y0255012D01*
X0202884Y0255010D01*
X0203030Y0255004D01*
X0203176Y0254994D01*
X0203322Y0254980D01*
X0203468Y0254962D01*
X0203613Y0254941D01*
X0203757Y0254915D01*
X0203901Y0254885D01*
X0204043Y0254852D01*
X0204185Y0254815D01*
X0204326Y0254774D01*
X0204465Y0254729D01*
X0204604Y0254680D01*
X0204741Y0254628D01*
X0204876Y0254571D01*
X0205010Y0254512D01*
X0205142Y0254448D01*
X0205272Y0254381D01*
X0205401Y0254311D01*
X0205528Y0254237D01*
X0205652Y0254160D01*
X0205775Y0254079D01*
X0205895Y0253995D01*
X0206013Y0253908D01*
X0206128Y0253818D01*
X0206241Y0253725D01*
X0206352Y0253628D01*
X0206460Y0253529D01*
X0206565Y0253427D01*
X0206667Y0253322D01*
X0206766Y0253214D01*
X0206863Y0253103D01*
X0206956Y0252990D01*
X0207046Y0252875D01*
X0207133Y0252757D01*
X0207217Y0252637D01*
X0207298Y0252514D01*
X0207375Y0252390D01*
X0207449Y0252263D01*
X0207519Y0252134D01*
X0207586Y0252004D01*
X0207650Y0251872D01*
X0207709Y0251738D01*
X0207766Y0251603D01*
X0207818Y0251466D01*
X0207867Y0251327D01*
X0207912Y0251188D01*
X0207953Y0251047D01*
X0207990Y0250905D01*
X0208023Y0250763D01*
X0208053Y0250619D01*
X0208079Y0250475D01*
X0208100Y0250330D01*
X0208118Y0250184D01*
X0208132Y0250038D01*
X0208142Y0249892D01*
X0208148Y0249746D01*
X0208150Y0249599D01*
X0208148Y0249452D01*
X0208142Y0249306D01*
X0208132Y0249160D01*
X0208118Y0249014D01*
X0208100Y0248868D01*
X0208079Y0248723D01*
X0208053Y0248579D01*
X0208023Y0248435D01*
X0207990Y0248293D01*
X0207953Y0248151D01*
X0207912Y0248010D01*
X0207867Y0247871D01*
X0207818Y0247732D01*
X0207766Y0247595D01*
X0207709Y0247460D01*
X0207650Y0247326D01*
X0207586Y0247194D01*
X0207519Y0247064D01*
X0207449Y0246935D01*
X0207375Y0246808D01*
X0207298Y0246684D01*
X0207217Y0246561D01*
X0207133Y0246441D01*
X0207046Y0246323D01*
X0206956Y0246208D01*
X0206863Y0246095D01*
X0206766Y0245984D01*
X0206667Y0245876D01*
X0206565Y0245771D01*
X0206460Y0245669D01*
X0206352Y0245570D01*
X0206241Y0245473D01*
X0206128Y0245380D01*
X0206013Y0245290D01*
X0205895Y0245203D01*
X0205775Y0245119D01*
X0205652Y0245038D01*
X0205528Y0244961D01*
X0205401Y0244887D01*
X0205272Y0244817D01*
X0205142Y0244750D01*
X0205010Y0244686D01*
X0204876Y0244627D01*
X0204741Y0244570D01*
X0204604Y0244518D01*
X0204465Y0244469D01*
X0204326Y0244424D01*
X0204185Y0244383D01*
X0204043Y0244346D01*
X0203901Y0244313D01*
X0203757Y0244283D01*
X0203613Y0244257D01*
X0203468Y0244236D01*
X0203322Y0244218D01*
X0203176Y0244204D01*
X0203030Y0244194D01*
X0202884Y0244188D01*
X0202737Y0244186D01*
X0202590Y0244188D01*
X0202444Y0244194D01*
X0202298Y0244204D01*
X0202152Y0244218D01*
X0202006Y0244236D01*
X0201861Y0244257D01*
X0201717Y0244283D01*
X0201573Y0244313D01*
X0201431Y0244346D01*
X0201289Y0244383D01*
X0201148Y0244424D01*
X0201009Y0244469D01*
X0200870Y0244518D01*
X0200733Y0244570D01*
X0200598Y0244627D01*
X0200464Y0244686D01*
X0200332Y0244750D01*
X0200202Y0244817D01*
X0200073Y0244887D01*
X0199946Y0244961D01*
X0199822Y0245038D01*
X0199699Y0245119D01*
X0199579Y0245203D01*
X0199461Y0245290D01*
X0199346Y0245380D01*
X0199233Y0245473D01*
X0199122Y0245570D01*
X0199014Y0245669D01*
X0198909Y0245771D01*
X0198807Y0245876D01*
X0198708Y0245984D01*
X0198611Y0246095D01*
X0198518Y0246208D01*
X0198428Y0246323D01*
X0198341Y0246441D01*
X0198257Y0246561D01*
X0198176Y0246684D01*
X0198099Y0246808D01*
X0198025Y0246935D01*
X0197955Y0247064D01*
X0197888Y0247194D01*
X0197824Y0247326D01*
X0197765Y0247460D01*
X0197708Y0247595D01*
X0197656Y0247732D01*
X0197607Y0247871D01*
X0197562Y0248010D01*
X0197521Y0248151D01*
X0197484Y0248293D01*
X0197451Y0248435D01*
X0197421Y0248579D01*
X0197395Y0248723D01*
X0197374Y0248868D01*
X0197356Y0249014D01*
X0197342Y0249160D01*
X0197332Y0249306D01*
X0197326Y0249452D01*
X0197324Y0249599D01*
X0197324Y0477946D02*
X0197326Y0478093D01*
X0197332Y0478239D01*
X0197342Y0478385D01*
X0197356Y0478531D01*
X0197374Y0478677D01*
X0197395Y0478822D01*
X0197421Y0478966D01*
X0197451Y0479110D01*
X0197484Y0479252D01*
X0197521Y0479394D01*
X0197562Y0479535D01*
X0197607Y0479674D01*
X0197656Y0479813D01*
X0197708Y0479950D01*
X0197765Y0480085D01*
X0197824Y0480219D01*
X0197888Y0480351D01*
X0197955Y0480481D01*
X0198025Y0480610D01*
X0198099Y0480737D01*
X0198176Y0480861D01*
X0198257Y0480984D01*
X0198341Y0481104D01*
X0198428Y0481222D01*
X0198518Y0481337D01*
X0198611Y0481450D01*
X0198708Y0481561D01*
X0198807Y0481669D01*
X0198909Y0481774D01*
X0199014Y0481876D01*
X0199122Y0481975D01*
X0199233Y0482072D01*
X0199346Y0482165D01*
X0199461Y0482255D01*
X0199579Y0482342D01*
X0199699Y0482426D01*
X0199822Y0482507D01*
X0199946Y0482584D01*
X0200073Y0482658D01*
X0200202Y0482728D01*
X0200332Y0482795D01*
X0200464Y0482859D01*
X0200598Y0482918D01*
X0200733Y0482975D01*
X0200870Y0483027D01*
X0201009Y0483076D01*
X0201148Y0483121D01*
X0201289Y0483162D01*
X0201431Y0483199D01*
X0201573Y0483232D01*
X0201717Y0483262D01*
X0201861Y0483288D01*
X0202006Y0483309D01*
X0202152Y0483327D01*
X0202298Y0483341D01*
X0202444Y0483351D01*
X0202590Y0483357D01*
X0202737Y0483359D01*
X0202884Y0483357D01*
X0203030Y0483351D01*
X0203176Y0483341D01*
X0203322Y0483327D01*
X0203468Y0483309D01*
X0203613Y0483288D01*
X0203757Y0483262D01*
X0203901Y0483232D01*
X0204043Y0483199D01*
X0204185Y0483162D01*
X0204326Y0483121D01*
X0204465Y0483076D01*
X0204604Y0483027D01*
X0204741Y0482975D01*
X0204876Y0482918D01*
X0205010Y0482859D01*
X0205142Y0482795D01*
X0205272Y0482728D01*
X0205401Y0482658D01*
X0205528Y0482584D01*
X0205652Y0482507D01*
X0205775Y0482426D01*
X0205895Y0482342D01*
X0206013Y0482255D01*
X0206128Y0482165D01*
X0206241Y0482072D01*
X0206352Y0481975D01*
X0206460Y0481876D01*
X0206565Y0481774D01*
X0206667Y0481669D01*
X0206766Y0481561D01*
X0206863Y0481450D01*
X0206956Y0481337D01*
X0207046Y0481222D01*
X0207133Y0481104D01*
X0207217Y0480984D01*
X0207298Y0480861D01*
X0207375Y0480737D01*
X0207449Y0480610D01*
X0207519Y0480481D01*
X0207586Y0480351D01*
X0207650Y0480219D01*
X0207709Y0480085D01*
X0207766Y0479950D01*
X0207818Y0479813D01*
X0207867Y0479674D01*
X0207912Y0479535D01*
X0207953Y0479394D01*
X0207990Y0479252D01*
X0208023Y0479110D01*
X0208053Y0478966D01*
X0208079Y0478822D01*
X0208100Y0478677D01*
X0208118Y0478531D01*
X0208132Y0478385D01*
X0208142Y0478239D01*
X0208148Y0478093D01*
X0208150Y0477946D01*
X0208148Y0477799D01*
X0208142Y0477653D01*
X0208132Y0477507D01*
X0208118Y0477361D01*
X0208100Y0477215D01*
X0208079Y0477070D01*
X0208053Y0476926D01*
X0208023Y0476782D01*
X0207990Y0476640D01*
X0207953Y0476498D01*
X0207912Y0476357D01*
X0207867Y0476218D01*
X0207818Y0476079D01*
X0207766Y0475942D01*
X0207709Y0475807D01*
X0207650Y0475673D01*
X0207586Y0475541D01*
X0207519Y0475411D01*
X0207449Y0475282D01*
X0207375Y0475155D01*
X0207298Y0475031D01*
X0207217Y0474908D01*
X0207133Y0474788D01*
X0207046Y0474670D01*
X0206956Y0474555D01*
X0206863Y0474442D01*
X0206766Y0474331D01*
X0206667Y0474223D01*
X0206565Y0474118D01*
X0206460Y0474016D01*
X0206352Y0473917D01*
X0206241Y0473820D01*
X0206128Y0473727D01*
X0206013Y0473637D01*
X0205895Y0473550D01*
X0205775Y0473466D01*
X0205652Y0473385D01*
X0205528Y0473308D01*
X0205401Y0473234D01*
X0205272Y0473164D01*
X0205142Y0473097D01*
X0205010Y0473033D01*
X0204876Y0472974D01*
X0204741Y0472917D01*
X0204604Y0472865D01*
X0204465Y0472816D01*
X0204326Y0472771D01*
X0204185Y0472730D01*
X0204043Y0472693D01*
X0203901Y0472660D01*
X0203757Y0472630D01*
X0203613Y0472604D01*
X0203468Y0472583D01*
X0203322Y0472565D01*
X0203176Y0472551D01*
X0203030Y0472541D01*
X0202884Y0472535D01*
X0202737Y0472533D01*
X0202590Y0472535D01*
X0202444Y0472541D01*
X0202298Y0472551D01*
X0202152Y0472565D01*
X0202006Y0472583D01*
X0201861Y0472604D01*
X0201717Y0472630D01*
X0201573Y0472660D01*
X0201431Y0472693D01*
X0201289Y0472730D01*
X0201148Y0472771D01*
X0201009Y0472816D01*
X0200870Y0472865D01*
X0200733Y0472917D01*
X0200598Y0472974D01*
X0200464Y0473033D01*
X0200332Y0473097D01*
X0200202Y0473164D01*
X0200073Y0473234D01*
X0199946Y0473308D01*
X0199822Y0473385D01*
X0199699Y0473466D01*
X0199579Y0473550D01*
X0199461Y0473637D01*
X0199346Y0473727D01*
X0199233Y0473820D01*
X0199122Y0473917D01*
X0199014Y0474016D01*
X0198909Y0474118D01*
X0198807Y0474223D01*
X0198708Y0474331D01*
X0198611Y0474442D01*
X0198518Y0474555D01*
X0198428Y0474670D01*
X0198341Y0474788D01*
X0198257Y0474908D01*
X0198176Y0475031D01*
X0198099Y0475155D01*
X0198025Y0475282D01*
X0197955Y0475411D01*
X0197888Y0475541D01*
X0197824Y0475673D01*
X0197765Y0475807D01*
X0197708Y0475942D01*
X0197656Y0476079D01*
X0197607Y0476218D01*
X0197562Y0476357D01*
X0197521Y0476498D01*
X0197484Y0476640D01*
X0197451Y0476782D01*
X0197421Y0476926D01*
X0197395Y0477070D01*
X0197374Y0477215D01*
X0197356Y0477361D01*
X0197342Y0477507D01*
X0197332Y0477653D01*
X0197326Y0477799D01*
X0197324Y0477946D01*
X0390237Y0477946D02*
X0390239Y0478093D01*
X0390245Y0478239D01*
X0390255Y0478385D01*
X0390269Y0478531D01*
X0390287Y0478677D01*
X0390308Y0478822D01*
X0390334Y0478966D01*
X0390364Y0479110D01*
X0390397Y0479252D01*
X0390434Y0479394D01*
X0390475Y0479535D01*
X0390520Y0479674D01*
X0390569Y0479813D01*
X0390621Y0479950D01*
X0390678Y0480085D01*
X0390737Y0480219D01*
X0390801Y0480351D01*
X0390868Y0480481D01*
X0390938Y0480610D01*
X0391012Y0480737D01*
X0391089Y0480861D01*
X0391170Y0480984D01*
X0391254Y0481104D01*
X0391341Y0481222D01*
X0391431Y0481337D01*
X0391524Y0481450D01*
X0391621Y0481561D01*
X0391720Y0481669D01*
X0391822Y0481774D01*
X0391927Y0481876D01*
X0392035Y0481975D01*
X0392146Y0482072D01*
X0392259Y0482165D01*
X0392374Y0482255D01*
X0392492Y0482342D01*
X0392612Y0482426D01*
X0392735Y0482507D01*
X0392859Y0482584D01*
X0392986Y0482658D01*
X0393115Y0482728D01*
X0393245Y0482795D01*
X0393377Y0482859D01*
X0393511Y0482918D01*
X0393646Y0482975D01*
X0393783Y0483027D01*
X0393922Y0483076D01*
X0394061Y0483121D01*
X0394202Y0483162D01*
X0394344Y0483199D01*
X0394486Y0483232D01*
X0394630Y0483262D01*
X0394774Y0483288D01*
X0394919Y0483309D01*
X0395065Y0483327D01*
X0395211Y0483341D01*
X0395357Y0483351D01*
X0395503Y0483357D01*
X0395650Y0483359D01*
X0395797Y0483357D01*
X0395943Y0483351D01*
X0396089Y0483341D01*
X0396235Y0483327D01*
X0396381Y0483309D01*
X0396526Y0483288D01*
X0396670Y0483262D01*
X0396814Y0483232D01*
X0396956Y0483199D01*
X0397098Y0483162D01*
X0397239Y0483121D01*
X0397378Y0483076D01*
X0397517Y0483027D01*
X0397654Y0482975D01*
X0397789Y0482918D01*
X0397923Y0482859D01*
X0398055Y0482795D01*
X0398185Y0482728D01*
X0398314Y0482658D01*
X0398441Y0482584D01*
X0398565Y0482507D01*
X0398688Y0482426D01*
X0398808Y0482342D01*
X0398926Y0482255D01*
X0399041Y0482165D01*
X0399154Y0482072D01*
X0399265Y0481975D01*
X0399373Y0481876D01*
X0399478Y0481774D01*
X0399580Y0481669D01*
X0399679Y0481561D01*
X0399776Y0481450D01*
X0399869Y0481337D01*
X0399959Y0481222D01*
X0400046Y0481104D01*
X0400130Y0480984D01*
X0400211Y0480861D01*
X0400288Y0480737D01*
X0400362Y0480610D01*
X0400432Y0480481D01*
X0400499Y0480351D01*
X0400563Y0480219D01*
X0400622Y0480085D01*
X0400679Y0479950D01*
X0400731Y0479813D01*
X0400780Y0479674D01*
X0400825Y0479535D01*
X0400866Y0479394D01*
X0400903Y0479252D01*
X0400936Y0479110D01*
X0400966Y0478966D01*
X0400992Y0478822D01*
X0401013Y0478677D01*
X0401031Y0478531D01*
X0401045Y0478385D01*
X0401055Y0478239D01*
X0401061Y0478093D01*
X0401063Y0477946D01*
X0401061Y0477799D01*
X0401055Y0477653D01*
X0401045Y0477507D01*
X0401031Y0477361D01*
X0401013Y0477215D01*
X0400992Y0477070D01*
X0400966Y0476926D01*
X0400936Y0476782D01*
X0400903Y0476640D01*
X0400866Y0476498D01*
X0400825Y0476357D01*
X0400780Y0476218D01*
X0400731Y0476079D01*
X0400679Y0475942D01*
X0400622Y0475807D01*
X0400563Y0475673D01*
X0400499Y0475541D01*
X0400432Y0475411D01*
X0400362Y0475282D01*
X0400288Y0475155D01*
X0400211Y0475031D01*
X0400130Y0474908D01*
X0400046Y0474788D01*
X0399959Y0474670D01*
X0399869Y0474555D01*
X0399776Y0474442D01*
X0399679Y0474331D01*
X0399580Y0474223D01*
X0399478Y0474118D01*
X0399373Y0474016D01*
X0399265Y0473917D01*
X0399154Y0473820D01*
X0399041Y0473727D01*
X0398926Y0473637D01*
X0398808Y0473550D01*
X0398688Y0473466D01*
X0398565Y0473385D01*
X0398441Y0473308D01*
X0398314Y0473234D01*
X0398185Y0473164D01*
X0398055Y0473097D01*
X0397923Y0473033D01*
X0397789Y0472974D01*
X0397654Y0472917D01*
X0397517Y0472865D01*
X0397378Y0472816D01*
X0397239Y0472771D01*
X0397098Y0472730D01*
X0396956Y0472693D01*
X0396814Y0472660D01*
X0396670Y0472630D01*
X0396526Y0472604D01*
X0396381Y0472583D01*
X0396235Y0472565D01*
X0396089Y0472551D01*
X0395943Y0472541D01*
X0395797Y0472535D01*
X0395650Y0472533D01*
X0395503Y0472535D01*
X0395357Y0472541D01*
X0395211Y0472551D01*
X0395065Y0472565D01*
X0394919Y0472583D01*
X0394774Y0472604D01*
X0394630Y0472630D01*
X0394486Y0472660D01*
X0394344Y0472693D01*
X0394202Y0472730D01*
X0394061Y0472771D01*
X0393922Y0472816D01*
X0393783Y0472865D01*
X0393646Y0472917D01*
X0393511Y0472974D01*
X0393377Y0473033D01*
X0393245Y0473097D01*
X0393115Y0473164D01*
X0392986Y0473234D01*
X0392859Y0473308D01*
X0392735Y0473385D01*
X0392612Y0473466D01*
X0392492Y0473550D01*
X0392374Y0473637D01*
X0392259Y0473727D01*
X0392146Y0473820D01*
X0392035Y0473917D01*
X0391927Y0474016D01*
X0391822Y0474118D01*
X0391720Y0474223D01*
X0391621Y0474331D01*
X0391524Y0474442D01*
X0391431Y0474555D01*
X0391341Y0474670D01*
X0391254Y0474788D01*
X0391170Y0474908D01*
X0391089Y0475031D01*
X0391012Y0475155D01*
X0390938Y0475282D01*
X0390868Y0475411D01*
X0390801Y0475541D01*
X0390737Y0475673D01*
X0390678Y0475807D01*
X0390621Y0475942D01*
X0390569Y0476079D01*
X0390520Y0476218D01*
X0390475Y0476357D01*
X0390434Y0476498D01*
X0390397Y0476640D01*
X0390364Y0476782D01*
X0390334Y0476926D01*
X0390308Y0477070D01*
X0390287Y0477215D01*
X0390269Y0477361D01*
X0390255Y0477507D01*
X0390245Y0477653D01*
X0390239Y0477799D01*
X0390237Y0477946D01*
D12*
X0207737Y0458773D03*
D13*
X0197730Y0458825D03*
X0197730Y0448825D03*
X0207730Y0448825D03*
X0207730Y0438825D03*
X0207730Y0428825D03*
X0197730Y0428825D03*
X0197730Y0438825D03*
X0197730Y0418825D03*
X0207730Y0418825D03*
X0207730Y0408825D03*
X0197730Y0408825D03*
X0197730Y0398825D03*
X0207730Y0398825D03*
X0207730Y0388825D03*
X0197730Y0388825D03*
X0197730Y0378825D03*
X0207730Y0378825D03*
X0207730Y0368825D03*
X0207730Y0358825D03*
X0197730Y0358825D03*
X0197730Y0368825D03*
X0197730Y0348825D03*
X0207730Y0348825D03*
X0207730Y0338825D03*
X0197730Y0338825D03*
X0197730Y0328825D03*
X0207730Y0328825D03*
X0207730Y0318825D03*
X0197730Y0318825D03*
X0197730Y0308825D03*
X0207730Y0308825D03*
X0207730Y0298825D03*
X0197730Y0298825D03*
X0197730Y0288825D03*
X0207730Y0288825D03*
X0207730Y0278825D03*
X0197730Y0278825D03*
X0197730Y0268825D03*
X0207730Y0268825D03*
D14*
X0334349Y0468745D03*
D15*
X0334349Y0458745D03*
X0334349Y0448745D03*
X0334349Y0438745D03*
X0264349Y0438745D03*
X0264349Y0428745D03*
X0264349Y0448745D03*
X0264349Y0458745D03*
X0264349Y0468745D03*
X0264349Y0478745D03*
D16*
X0068549Y0384845D03*
X0058549Y0384845D03*
X0058549Y0374845D03*
X0068549Y0374845D03*
X0068549Y0364845D03*
X0058549Y0364845D03*
X0058549Y0354845D03*
X0068549Y0354845D03*
X0068549Y0344845D03*
X0058549Y0344845D03*
X0058549Y0334845D03*
X0068549Y0334845D03*
X0068549Y0324845D03*
X0058549Y0324845D03*
X0058549Y0314845D03*
X0068549Y0314845D03*
X0068549Y0304845D03*
X0058549Y0304845D03*
X0058549Y0294845D03*
X0068549Y0294845D03*
X0068549Y0284845D03*
X0058549Y0284845D03*
X0058549Y0274845D03*
X0068549Y0274845D03*
X0068549Y0264845D03*
X0068549Y0254845D03*
X0058549Y0254845D03*
X0058549Y0264845D03*
X0058549Y0244845D03*
X0068549Y0244845D03*
X0068549Y0234845D03*
X0058549Y0234845D03*
X0058549Y0224845D03*
X0068549Y0224845D03*
X0068549Y0214845D03*
X0058549Y0214845D03*
X0058549Y0204845D03*
X0068549Y0204845D03*
X0068549Y0194845D03*
X0058549Y0194845D03*
D17*
X0508549Y0194845D03*
D18*
X0518549Y0194845D03*
X0518549Y0204845D03*
X0518549Y0214845D03*
X0518549Y0224845D03*
X0518549Y0234845D03*
X0518549Y0244845D03*
X0518549Y0254845D03*
X0518549Y0264845D03*
X0518549Y0274845D03*
X0518549Y0284845D03*
X0518549Y0294845D03*
X0518549Y0304845D03*
X0518549Y0314845D03*
X0518549Y0324845D03*
X0518549Y0334845D03*
X0508549Y0334845D03*
X0508549Y0324845D03*
X0508549Y0314845D03*
X0508549Y0304845D03*
X0508549Y0294845D03*
X0508549Y0284845D03*
X0508549Y0274845D03*
X0508549Y0264845D03*
X0508549Y0254845D03*
X0508549Y0244845D03*
X0508549Y0234845D03*
X0508549Y0224845D03*
X0508549Y0214845D03*
X0508549Y0204845D03*
D19*
X0103642Y0325376D02*
X0080020Y0325376D01*
X0080020Y0359235D01*
X0103642Y0359235D01*
X0103642Y0325376D01*
X0097892Y0355691D02*
X0097894Y0355766D01*
X0097900Y0355841D01*
X0097910Y0355915D01*
X0097924Y0355989D01*
X0097941Y0356062D01*
X0097963Y0356133D01*
X0097988Y0356204D01*
X0098017Y0356273D01*
X0098049Y0356341D01*
X0098085Y0356406D01*
X0098125Y0356470D01*
X0098168Y0356532D01*
X0098214Y0356591D01*
X0098263Y0356648D01*
X0098315Y0356702D01*
X0098369Y0356753D01*
X0098427Y0356801D01*
X0098486Y0356846D01*
X0098549Y0356888D01*
X0098613Y0356927D01*
X0098679Y0356962D01*
X0098747Y0356994D01*
X0098817Y0357022D01*
X0098887Y0357046D01*
X0098960Y0357067D01*
X0099033Y0357083D01*
X0099107Y0357096D01*
X0099181Y0357105D01*
X0099256Y0357110D01*
X0099331Y0357111D01*
X0099406Y0357108D01*
X0099480Y0357101D01*
X0099554Y0357090D01*
X0099628Y0357075D01*
X0099701Y0357057D01*
X0099772Y0357034D01*
X0099842Y0357008D01*
X0099911Y0356978D01*
X0099978Y0356945D01*
X0100044Y0356908D01*
X0100107Y0356868D01*
X0100168Y0356824D01*
X0100226Y0356777D01*
X0100282Y0356728D01*
X0100336Y0356675D01*
X0100386Y0356620D01*
X0100434Y0356562D01*
X0100478Y0356501D01*
X0100519Y0356439D01*
X0100557Y0356374D01*
X0100591Y0356307D01*
X0100622Y0356239D01*
X0100649Y0356169D01*
X0100673Y0356098D01*
X0100692Y0356025D01*
X0100708Y0355952D01*
X0100720Y0355878D01*
X0100728Y0355803D01*
X0100732Y0355728D01*
X0100732Y0355654D01*
X0100728Y0355579D01*
X0100720Y0355504D01*
X0100708Y0355430D01*
X0100692Y0355357D01*
X0100673Y0355284D01*
X0100649Y0355213D01*
X0100622Y0355143D01*
X0100591Y0355075D01*
X0100557Y0355008D01*
X0100519Y0354943D01*
X0100478Y0354881D01*
X0100434Y0354820D01*
X0100386Y0354762D01*
X0100336Y0354707D01*
X0100282Y0354654D01*
X0100226Y0354605D01*
X0100168Y0354558D01*
X0100107Y0354514D01*
X0100044Y0354474D01*
X0099978Y0354437D01*
X0099911Y0354404D01*
X0099842Y0354374D01*
X0099772Y0354348D01*
X0099701Y0354325D01*
X0099628Y0354307D01*
X0099554Y0354292D01*
X0099480Y0354281D01*
X0099406Y0354274D01*
X0099331Y0354271D01*
X0099256Y0354272D01*
X0099181Y0354277D01*
X0099107Y0354286D01*
X0099033Y0354299D01*
X0098960Y0354315D01*
X0098887Y0354336D01*
X0098817Y0354360D01*
X0098747Y0354388D01*
X0098679Y0354420D01*
X0098613Y0354455D01*
X0098549Y0354494D01*
X0098486Y0354536D01*
X0098427Y0354581D01*
X0098369Y0354629D01*
X0098315Y0354680D01*
X0098263Y0354734D01*
X0098214Y0354791D01*
X0098168Y0354850D01*
X0098125Y0354912D01*
X0098085Y0354976D01*
X0098049Y0355041D01*
X0098017Y0355109D01*
X0097988Y0355178D01*
X0097963Y0355249D01*
X0097941Y0355320D01*
X0097924Y0355393D01*
X0097910Y0355467D01*
X0097900Y0355541D01*
X0097894Y0355616D01*
X0097892Y0355691D01*
D20*
X0480506Y0310210D03*
X0485506Y0310210D03*
X0490506Y0310210D03*
X0495506Y0310210D03*
X0495506Y0288557D03*
X0490506Y0288557D03*
X0485506Y0288557D03*
X0480506Y0288557D03*
D21*
X0181349Y0463445D03*
X0173868Y0463445D03*
X0177608Y0453209D03*
D22*
X0426402Y0346345D03*
X0433095Y0346345D03*
D23*
X0439549Y0347845D03*
X0423549Y0355845D03*
X0393549Y0352745D03*
X0376549Y0340845D03*
X0432549Y0313445D03*
X0454549Y0347845D03*
X0444049Y0442645D03*
X0352849Y0449945D03*
X0296249Y0514745D03*
X0225249Y0460745D03*
X0170549Y0408745D03*
X0127749Y0390945D03*
X0101549Y0365845D03*
X0087049Y0365845D03*
X0087049Y0358845D03*
X0096799Y0383095D03*
X0119649Y0357945D03*
X0119649Y0338745D03*
X0113449Y0277845D03*
X0167049Y0278345D03*
X0249249Y0366945D03*
X0233349Y0399945D03*
X0297149Y0224145D03*
X0169449Y0188145D03*
X0114049Y0187245D03*
X0444849Y0186245D03*
D24*
X0485506Y0288557D02*
X0485506Y0292222D01*
X0484399Y0292222D01*
X0484018Y0292120D01*
X0483949Y0292080D01*
X0483949Y0306687D01*
X0484018Y0306647D01*
X0484399Y0306545D01*
X0485506Y0306545D01*
X0485506Y0310210D01*
X0485506Y0310210D01*
X0485506Y0306545D01*
X0486613Y0306545D01*
X0486994Y0306647D01*
X0487336Y0306845D01*
X0487616Y0307124D01*
X0487813Y0307466D01*
X0487915Y0307847D01*
X0487915Y0310210D01*
X0485506Y0310210D01*
X0485506Y0310210D01*
X0487915Y0310210D01*
X0487915Y0312573D01*
X0487813Y0312955D01*
X0487616Y0313297D01*
X0487336Y0313576D01*
X0486994Y0313773D01*
X0486613Y0313876D01*
X0485506Y0313876D01*
X0484399Y0313876D01*
X0484018Y0313773D01*
X0483949Y0313734D01*
X0483949Y0338745D01*
X0506509Y0338745D01*
X0504349Y0336585D01*
X0504349Y0335245D01*
X0508148Y0335245D01*
X0508148Y0334445D01*
X0504349Y0334445D01*
X0504349Y0333105D01*
X0506809Y0330645D01*
X0508149Y0330645D01*
X0508149Y0334445D01*
X0508949Y0334445D01*
X0508949Y0335245D01*
X0512749Y0335245D01*
X0512749Y0336585D01*
X0510588Y0338745D01*
X0516509Y0338745D01*
X0514349Y0336585D01*
X0514349Y0335245D01*
X0518148Y0335245D01*
X0518148Y0334445D01*
X0514349Y0334445D01*
X0514349Y0333105D01*
X0516809Y0330645D01*
X0518149Y0330645D01*
X0518149Y0334445D01*
X0518949Y0334445D01*
X0518949Y0335245D01*
X0522749Y0335245D01*
X0522749Y0336585D01*
X0520588Y0338745D01*
X0523249Y0338745D01*
X0523249Y0311545D01*
X0521188Y0311545D01*
X0522749Y0313105D01*
X0522749Y0314445D01*
X0518949Y0314445D01*
X0518949Y0315245D01*
X0522749Y0315245D01*
X0522749Y0316585D01*
X0520288Y0319045D01*
X0518949Y0319045D01*
X0518949Y0315245D01*
X0518149Y0315245D01*
X0518149Y0319045D01*
X0516809Y0319045D01*
X0514349Y0316585D01*
X0514349Y0315245D01*
X0518148Y0315245D01*
X0518148Y0314445D01*
X0514349Y0314445D01*
X0514349Y0313105D01*
X0515909Y0311545D01*
X0511188Y0311545D01*
X0512749Y0313105D01*
X0512749Y0314445D01*
X0508949Y0314445D01*
X0508949Y0315245D01*
X0512749Y0315245D01*
X0512749Y0316585D01*
X0510288Y0319045D01*
X0508949Y0319045D01*
X0508949Y0315245D01*
X0508149Y0315245D01*
X0508149Y0319045D01*
X0506809Y0319045D01*
X0504349Y0316585D01*
X0504349Y0315245D01*
X0508148Y0315245D01*
X0508148Y0314445D01*
X0504349Y0314445D01*
X0504349Y0313105D01*
X0505909Y0311545D01*
X0503649Y0311545D01*
X0503649Y0314245D01*
X0492549Y0314245D01*
X0492549Y0313364D01*
X0492336Y0313576D01*
X0491994Y0313773D01*
X0491613Y0313876D01*
X0490506Y0313876D01*
X0489399Y0313876D01*
X0489018Y0313773D01*
X0488676Y0313576D01*
X0488396Y0313297D01*
X0488199Y0312955D01*
X0488097Y0312573D01*
X0488097Y0310210D01*
X0488097Y0307847D01*
X0488199Y0307466D01*
X0488396Y0307124D01*
X0488676Y0306845D01*
X0489018Y0306647D01*
X0489399Y0306545D01*
X0490506Y0306545D01*
X0490506Y0310210D01*
X0490506Y0310210D01*
X0490506Y0306545D01*
X0491613Y0306545D01*
X0491994Y0306647D01*
X0492336Y0306845D01*
X0492549Y0307057D01*
X0492549Y0299645D01*
X0486549Y0299645D01*
X0486549Y0292222D01*
X0485506Y0292222D01*
X0485506Y0288557D01*
X0485506Y0288557D01*
X0485506Y0288622D02*
X0485506Y0288622D01*
X0485506Y0289620D02*
X0485506Y0289620D01*
X0485506Y0290619D02*
X0485506Y0290619D01*
X0485506Y0291617D02*
X0485506Y0291617D01*
X0486549Y0292616D02*
X0483949Y0292616D01*
X0483949Y0293614D02*
X0486549Y0293614D01*
X0486549Y0294613D02*
X0483949Y0294613D01*
X0483949Y0295611D02*
X0486549Y0295611D01*
X0486549Y0296610D02*
X0483949Y0296610D01*
X0483949Y0297608D02*
X0486549Y0297608D01*
X0486549Y0298607D02*
X0483949Y0298607D01*
X0483949Y0299605D02*
X0486549Y0299605D01*
X0488549Y0297745D02*
X0505509Y0297745D01*
X0504349Y0296585D01*
X0504349Y0295245D01*
X0508148Y0295245D01*
X0508148Y0294445D01*
X0504349Y0294445D01*
X0504349Y0293105D01*
X0505609Y0291845D01*
X0492414Y0291845D01*
X0492336Y0291922D01*
X0491994Y0292120D01*
X0491613Y0292222D01*
X0490506Y0292222D01*
X0490506Y0288557D01*
X0490506Y0288557D01*
X0490506Y0292222D01*
X0489399Y0292222D01*
X0489018Y0292120D01*
X0488676Y0291922D01*
X0488549Y0291795D01*
X0488549Y0297745D01*
X0488549Y0297608D02*
X0505372Y0297608D01*
X0504374Y0296610D02*
X0488549Y0296610D01*
X0488549Y0295611D02*
X0504349Y0295611D01*
X0504349Y0293614D02*
X0488549Y0293614D01*
X0488549Y0292616D02*
X0504838Y0292616D01*
X0508148Y0294613D02*
X0488549Y0294613D01*
X0490506Y0291617D02*
X0490506Y0291617D01*
X0490506Y0290619D02*
X0490506Y0290619D01*
X0490506Y0289620D02*
X0490506Y0289620D01*
X0490506Y0288622D02*
X0490506Y0288622D01*
X0494149Y0299845D02*
X0494149Y0306612D01*
X0494399Y0306545D01*
X0495506Y0306545D01*
X0495506Y0310210D01*
X0495506Y0310210D01*
X0495506Y0306545D01*
X0496613Y0306545D01*
X0496994Y0306647D01*
X0497336Y0306845D01*
X0497616Y0307124D01*
X0497813Y0307466D01*
X0497915Y0307847D01*
X0497915Y0308245D01*
X0506009Y0308245D01*
X0504349Y0306585D01*
X0504349Y0305245D01*
X0508148Y0305245D01*
X0508148Y0304445D01*
X0504349Y0304445D01*
X0504349Y0303105D01*
X0506809Y0300645D01*
X0508149Y0300645D01*
X0508149Y0304445D01*
X0508949Y0304445D01*
X0508949Y0305245D01*
X0512749Y0305245D01*
X0512749Y0306585D01*
X0511088Y0308245D01*
X0516009Y0308245D01*
X0514349Y0306585D01*
X0514349Y0305245D01*
X0518148Y0305245D01*
X0518148Y0304445D01*
X0514349Y0304445D01*
X0514349Y0303105D01*
X0516809Y0300645D01*
X0518149Y0300645D01*
X0518149Y0304445D01*
X0518949Y0304445D01*
X0518949Y0305245D01*
X0522749Y0305245D01*
X0522749Y0306585D01*
X0521088Y0308245D01*
X0523049Y0308245D01*
X0523049Y0299845D01*
X0494149Y0299845D01*
X0494149Y0300604D02*
X0523049Y0300604D01*
X0523049Y0301602D02*
X0521246Y0301602D01*
X0520288Y0300645D02*
X0522749Y0303105D01*
X0522749Y0304445D01*
X0518949Y0304445D01*
X0518949Y0300645D01*
X0520288Y0300645D01*
X0518949Y0301602D02*
X0518149Y0301602D01*
X0518149Y0302601D02*
X0518949Y0302601D01*
X0518949Y0303599D02*
X0518149Y0303599D01*
X0518148Y0304598D02*
X0508949Y0304598D01*
X0508949Y0304445D02*
X0512749Y0304445D01*
X0512749Y0303105D01*
X0510288Y0300645D01*
X0508949Y0300645D01*
X0508949Y0304445D01*
X0508148Y0304598D02*
X0494149Y0304598D01*
X0494149Y0305596D02*
X0504349Y0305596D01*
X0504359Y0306595D02*
X0496799Y0306595D01*
X0495506Y0306595D02*
X0495506Y0306595D01*
X0495506Y0307593D02*
X0495506Y0307593D01*
X0495506Y0308592D02*
X0495506Y0308592D01*
X0495506Y0309590D02*
X0495506Y0309590D01*
X0497847Y0307593D02*
X0505357Y0307593D01*
X0505866Y0311587D02*
X0503649Y0311587D01*
X0503649Y0312586D02*
X0504868Y0312586D01*
X0504349Y0313584D02*
X0503649Y0313584D01*
X0504349Y0315581D02*
X0483949Y0315581D01*
X0483949Y0314583D02*
X0508148Y0314583D01*
X0508949Y0314583D02*
X0518148Y0314583D01*
X0518949Y0314583D02*
X0523249Y0314583D01*
X0523249Y0315581D02*
X0522749Y0315581D01*
X0522749Y0316580D02*
X0523249Y0316580D01*
X0523249Y0317578D02*
X0521755Y0317578D01*
X0520756Y0318577D02*
X0523249Y0318577D01*
X0523249Y0319576D02*
X0483949Y0319576D01*
X0483949Y0320574D02*
X0523249Y0320574D01*
X0523249Y0321573D02*
X0521216Y0321573D01*
X0520288Y0320645D02*
X0522749Y0323105D01*
X0522749Y0324445D01*
X0518949Y0324445D01*
X0518949Y0325245D01*
X0522749Y0325245D01*
X0522749Y0326585D01*
X0520288Y0329045D01*
X0518949Y0329045D01*
X0518949Y0325245D01*
X0518149Y0325245D01*
X0518149Y0329045D01*
X0516809Y0329045D01*
X0514349Y0326585D01*
X0514349Y0325245D01*
X0518148Y0325245D01*
X0518148Y0324445D01*
X0514349Y0324445D01*
X0514349Y0323105D01*
X0516809Y0320645D01*
X0518149Y0320645D01*
X0518149Y0324445D01*
X0518949Y0324445D01*
X0518949Y0320645D01*
X0520288Y0320645D01*
X0518949Y0321573D02*
X0518149Y0321573D01*
X0518149Y0322571D02*
X0518949Y0322571D01*
X0518949Y0323570D02*
X0518149Y0323570D01*
X0518148Y0324568D02*
X0508949Y0324568D01*
X0508949Y0324445D02*
X0508949Y0325245D01*
X0512749Y0325245D01*
X0512749Y0326585D01*
X0510288Y0329045D01*
X0508949Y0329045D01*
X0508949Y0325245D01*
X0508149Y0325245D01*
X0508149Y0329045D01*
X0506809Y0329045D01*
X0504349Y0326585D01*
X0504349Y0325245D01*
X0508148Y0325245D01*
X0508148Y0324445D01*
X0504349Y0324445D01*
X0504349Y0323105D01*
X0506809Y0320645D01*
X0508149Y0320645D01*
X0508149Y0324445D01*
X0508949Y0324445D01*
X0512749Y0324445D01*
X0512749Y0323105D01*
X0510288Y0320645D01*
X0508949Y0320645D01*
X0508949Y0324445D01*
X0508148Y0324568D02*
X0483949Y0324568D01*
X0483949Y0323570D02*
X0504349Y0323570D01*
X0504883Y0322571D02*
X0483949Y0322571D01*
X0483949Y0321573D02*
X0505881Y0321573D01*
X0508149Y0321573D02*
X0508949Y0321573D01*
X0508949Y0322571D02*
X0508149Y0322571D01*
X0508149Y0323570D02*
X0508949Y0323570D01*
X0508949Y0325567D02*
X0508149Y0325567D01*
X0508149Y0326565D02*
X0508949Y0326565D01*
X0508949Y0327564D02*
X0508149Y0327564D01*
X0508149Y0328562D02*
X0508949Y0328562D01*
X0510771Y0328562D02*
X0516326Y0328562D01*
X0515327Y0327564D02*
X0511770Y0327564D01*
X0512749Y0326565D02*
X0514349Y0326565D01*
X0514349Y0325567D02*
X0512749Y0325567D01*
X0512749Y0323570D02*
X0514349Y0323570D01*
X0514883Y0322571D02*
X0512214Y0322571D01*
X0511216Y0321573D02*
X0515881Y0321573D01*
X0516341Y0318577D02*
X0510756Y0318577D01*
X0511755Y0317578D02*
X0515342Y0317578D01*
X0514349Y0316580D02*
X0512749Y0316580D01*
X0512749Y0315581D02*
X0514349Y0315581D01*
X0514349Y0313584D02*
X0512749Y0313584D01*
X0512229Y0312586D02*
X0514868Y0312586D01*
X0515866Y0311587D02*
X0511231Y0311587D01*
X0511740Y0307593D02*
X0515357Y0307593D01*
X0514359Y0306595D02*
X0512738Y0306595D01*
X0512749Y0305596D02*
X0514349Y0305596D01*
X0514349Y0303599D02*
X0512749Y0303599D01*
X0512244Y0302601D02*
X0514853Y0302601D01*
X0515852Y0301602D02*
X0511246Y0301602D01*
X0508949Y0301602D02*
X0508149Y0301602D01*
X0508149Y0302601D02*
X0508949Y0302601D01*
X0508949Y0303599D02*
X0508149Y0303599D01*
X0505852Y0301602D02*
X0494149Y0301602D01*
X0494149Y0302601D02*
X0504853Y0302601D01*
X0504349Y0303599D02*
X0494149Y0303599D01*
X0492549Y0303599D02*
X0483949Y0303599D01*
X0483949Y0302601D02*
X0492549Y0302601D01*
X0492549Y0301602D02*
X0483949Y0301602D01*
X0483949Y0300604D02*
X0492549Y0300604D01*
X0492549Y0304598D02*
X0483949Y0304598D01*
X0483949Y0305596D02*
X0492549Y0305596D01*
X0492549Y0306595D02*
X0491799Y0306595D01*
X0490506Y0306595D02*
X0490506Y0306595D01*
X0490506Y0307593D02*
X0490506Y0307593D01*
X0490506Y0308592D02*
X0490506Y0308592D01*
X0490506Y0309590D02*
X0490506Y0309590D01*
X0490506Y0310210D02*
X0488097Y0310210D01*
X0490506Y0310210D01*
X0490506Y0310210D01*
X0490506Y0313876D01*
X0490506Y0310210D01*
X0490506Y0310210D01*
X0490506Y0310589D02*
X0490506Y0310589D01*
X0490506Y0311587D02*
X0490506Y0311587D01*
X0490506Y0312586D02*
X0490506Y0312586D01*
X0490506Y0313584D02*
X0490506Y0313584D01*
X0488690Y0313584D02*
X0487322Y0313584D01*
X0487912Y0312586D02*
X0488100Y0312586D01*
X0488097Y0311587D02*
X0487915Y0311587D01*
X0487915Y0310589D02*
X0488097Y0310589D01*
X0488097Y0309590D02*
X0487915Y0309590D01*
X0487915Y0308592D02*
X0488097Y0308592D01*
X0488165Y0307593D02*
X0487847Y0307593D01*
X0486799Y0306595D02*
X0489213Y0306595D01*
X0485506Y0306595D02*
X0485506Y0306595D01*
X0485506Y0307593D02*
X0485506Y0307593D01*
X0485506Y0308592D02*
X0485506Y0308592D01*
X0485506Y0309590D02*
X0485506Y0309590D01*
X0485506Y0310210D02*
X0485506Y0313876D01*
X0485506Y0310210D01*
X0485506Y0310210D01*
X0485506Y0310589D02*
X0485506Y0310589D01*
X0485506Y0311587D02*
X0485506Y0311587D01*
X0485506Y0312586D02*
X0485506Y0312586D01*
X0485506Y0313584D02*
X0485506Y0313584D01*
X0483949Y0316580D02*
X0504349Y0316580D01*
X0505342Y0317578D02*
X0483949Y0317578D01*
X0483949Y0318577D02*
X0506341Y0318577D01*
X0508149Y0318577D02*
X0508949Y0318577D01*
X0508949Y0317578D02*
X0508149Y0317578D01*
X0508149Y0316580D02*
X0508949Y0316580D01*
X0508949Y0315581D02*
X0508149Y0315581D01*
X0518149Y0315581D02*
X0518949Y0315581D01*
X0518949Y0316580D02*
X0518149Y0316580D01*
X0518149Y0317578D02*
X0518949Y0317578D01*
X0518949Y0318577D02*
X0518149Y0318577D01*
X0522214Y0322571D02*
X0523249Y0322571D01*
X0523249Y0323570D02*
X0522749Y0323570D01*
X0523249Y0324568D02*
X0518949Y0324568D01*
X0518949Y0325567D02*
X0518149Y0325567D01*
X0518149Y0326565D02*
X0518949Y0326565D01*
X0518949Y0327564D02*
X0518149Y0327564D01*
X0518149Y0328562D02*
X0518949Y0328562D01*
X0520771Y0328562D02*
X0523249Y0328562D01*
X0523249Y0327564D02*
X0521770Y0327564D01*
X0522749Y0326565D02*
X0523249Y0326565D01*
X0523249Y0325567D02*
X0522749Y0325567D01*
X0523249Y0329561D02*
X0483949Y0329561D01*
X0483949Y0330559D02*
X0523249Y0330559D01*
X0523249Y0331558D02*
X0521201Y0331558D01*
X0520288Y0330645D02*
X0522749Y0333105D01*
X0522749Y0334445D01*
X0518949Y0334445D01*
X0518949Y0330645D01*
X0520288Y0330645D01*
X0518949Y0331558D02*
X0518149Y0331558D01*
X0518149Y0332556D02*
X0518949Y0332556D01*
X0518949Y0333555D02*
X0518149Y0333555D01*
X0518148Y0334553D02*
X0508949Y0334553D01*
X0508949Y0334445D02*
X0512749Y0334445D01*
X0512749Y0333105D01*
X0510288Y0330645D01*
X0508949Y0330645D01*
X0508949Y0334445D01*
X0508148Y0334553D02*
X0483949Y0334553D01*
X0483949Y0333555D02*
X0504349Y0333555D01*
X0504898Y0332556D02*
X0483949Y0332556D01*
X0483949Y0331558D02*
X0505896Y0331558D01*
X0508149Y0331558D02*
X0508949Y0331558D01*
X0508949Y0332556D02*
X0508149Y0332556D01*
X0508149Y0333555D02*
X0508949Y0333555D01*
X0511201Y0331558D02*
X0515896Y0331558D01*
X0514898Y0332556D02*
X0512199Y0332556D01*
X0512749Y0333555D02*
X0514349Y0333555D01*
X0514349Y0335552D02*
X0512749Y0335552D01*
X0512749Y0336550D02*
X0514349Y0336550D01*
X0515313Y0337549D02*
X0511784Y0337549D01*
X0510786Y0338547D02*
X0516311Y0338547D01*
X0520786Y0338547D02*
X0523249Y0338547D01*
X0523249Y0337549D02*
X0521784Y0337549D01*
X0522749Y0336550D02*
X0523249Y0336550D01*
X0523249Y0335552D02*
X0522749Y0335552D01*
X0523249Y0334553D02*
X0518949Y0334553D01*
X0522199Y0332556D02*
X0523249Y0332556D01*
X0523249Y0333555D02*
X0522749Y0333555D01*
X0506326Y0328562D02*
X0483949Y0328562D01*
X0483949Y0327564D02*
X0505327Y0327564D01*
X0504349Y0326565D02*
X0483949Y0326565D01*
X0483949Y0325567D02*
X0504349Y0325567D01*
X0504349Y0335552D02*
X0483949Y0335552D01*
X0483949Y0336550D02*
X0504349Y0336550D01*
X0505313Y0337549D02*
X0483949Y0337549D01*
X0483949Y0338547D02*
X0506311Y0338547D01*
X0492549Y0313584D02*
X0492322Y0313584D01*
X0494149Y0306595D02*
X0494213Y0306595D01*
X0484213Y0306595D02*
X0483949Y0306595D01*
X0480506Y0310210D02*
X0480371Y0310345D01*
X0460549Y0310345D01*
X0449029Y0298825D01*
X0207730Y0298825D01*
X0119649Y0338745D02*
X0119649Y0357945D01*
X0170549Y0408745D02*
X0170629Y0408825D01*
X0197730Y0408825D01*
X0508949Y0295245D02*
X0508949Y0294445D01*
X0512749Y0294445D01*
X0512749Y0293105D01*
X0511488Y0291845D01*
X0515609Y0291845D01*
X0514349Y0293105D01*
X0514349Y0294445D01*
X0518148Y0294445D01*
X0518148Y0295245D01*
X0514349Y0295245D01*
X0514349Y0296585D01*
X0515509Y0297745D01*
X0511588Y0297745D01*
X0512749Y0296585D01*
X0512749Y0295245D01*
X0508949Y0295245D01*
X0508949Y0294613D02*
X0518148Y0294613D01*
X0518949Y0294613D02*
X0523449Y0294613D01*
X0522749Y0294445D02*
X0518949Y0294445D01*
X0518949Y0295245D01*
X0522749Y0295245D01*
X0522749Y0296585D01*
X0521588Y0297745D01*
X0523449Y0297745D01*
X0523449Y0291845D01*
X0521488Y0291845D01*
X0522749Y0293105D01*
X0522749Y0294445D01*
X0522749Y0293614D02*
X0523449Y0293614D01*
X0523449Y0292616D02*
X0522259Y0292616D01*
X0522749Y0295611D02*
X0523449Y0295611D01*
X0523449Y0296610D02*
X0522723Y0296610D01*
X0523449Y0297608D02*
X0521725Y0297608D01*
X0522244Y0302601D02*
X0523049Y0302601D01*
X0523049Y0303599D02*
X0522749Y0303599D01*
X0523049Y0304598D02*
X0518949Y0304598D01*
X0522749Y0305596D02*
X0523049Y0305596D01*
X0523049Y0306595D02*
X0522738Y0306595D01*
X0523049Y0307593D02*
X0521740Y0307593D01*
X0521231Y0311587D02*
X0523249Y0311587D01*
X0523249Y0312586D02*
X0522229Y0312586D01*
X0522749Y0313584D02*
X0523249Y0313584D01*
X0515372Y0297608D02*
X0511725Y0297608D01*
X0512723Y0296610D02*
X0514374Y0296610D01*
X0514349Y0295611D02*
X0512749Y0295611D01*
X0512749Y0293614D02*
X0514349Y0293614D01*
X0514838Y0292616D02*
X0512259Y0292616D01*
D25*
X0197730Y0448825D02*
X0193346Y0453209D01*
X0177608Y0453209D01*
D26*
X0173868Y0460165D02*
X0096799Y0383095D01*
X0087049Y0373345D01*
X0087049Y0365845D01*
X0087049Y0358845D01*
X0087049Y0333345D01*
X0068549Y0314845D01*
X0058549Y0314845D01*
X0173868Y0460165D02*
X0173868Y0463445D01*
X0174049Y0463625D01*
X0174049Y0468845D01*
X0176549Y0471345D01*
X0182549Y0471345D01*
X0187049Y0466845D01*
X0211549Y0466845D01*
X0223449Y0478745D01*
X0264349Y0478745D01*
M02*
